<mxfile host="app.diagrams.net" modified="2023-09-26T08:09:55.351Z" agent="Mozilla/5.0 (Windows NT 10.0; Win64; x64) AppleWebKit/537.36 (KHTML, like Gecko) Chrome/117.0.0.0 Safari/537.36" etag="1VXW2ZKWHUSatMoCsB8F" version="21.8.2" type="github">
  <diagram name="Page-1" id="RlmEmpo5elgQ4JokeiOO">
    <mxGraphModel dx="748" dy="380" grid="1" gridSize="10" guides="1" tooltips="1" connect="1" arrows="1" fold="1" page="1" pageScale="1" pageWidth="850" pageHeight="1100" math="0" shadow="0">
      <root>
        <mxCell id="0" />
        <mxCell id="1" parent="0" />
        <mxCell id="K7MtmnWvU8Wbs0aJZbg5-1" value="" style="rounded=0;whiteSpace=wrap;html=1;strokeColor=none;" vertex="1" parent="1">
          <mxGeometry x="40" y="80" width="220" height="370" as="geometry" />
        </mxCell>
        <mxCell id="K7MtmnWvU8Wbs0aJZbg5-3" value="" style="shape=image;verticalLabelPosition=bottom;labelBackgroundColor=default;verticalAlign=top;aspect=fixed;imageAspect=0;image=data:image/jpeg,/9j/2wBDAAYEBQYFBAYGBQYHBwYIChAKCgkJChQODwwQFxQYGBcUFhYaHSUfGhsjHBYWICwgIyYnKSopGR8tMC0oMCUoKSj/2wBDAQcHBwoIChMKChMoGhYaKCgoKCgoKCgoKCgoKCgoKCgoKCgoKCgoKCgoKCgoKCgoKCgoKCgoKCgoKCgoKCgoKCj/wAARCAZAA3sDASIAAhEBAxEB/8QAHAABAAICAwEAAAAAAAAAAAAAAAUGBAcCAwgB/8QAWBAAAQQBAgMEBAYNBwwABgEFAAECAwQFBhESITEHE0FRFGFxkQgiMlKB0RUWNjdCVHN0kqGxsrMjM1Vyk8HSFyQ0NThTYnWCwuHwQ2OUosPxJVYmJ9Py/8QAGwEBAQEBAQEBAQAAAAAAAAAAAAECAwQFBgf/xAAtEQEAAgICAgEDBAIBBQEAAAAAAQIDESExBBJBBRNRFCJh4XGB8AYjMkKRof/aAAwDAQACEQMRAD8A0AADSAAAAAAAAAAAAAAAAAAAAAAAAAAAAAAAAAAAAAAAAAAAAAAAAAAAAAAAAAAAAAAAAAAAAAAAAAAAAAAAAAAAAAAAAAAAAAAAAAAAAAAAAAAAAAAAAAAAAAAAAAAAAAAAAAAAAAAAAAAAAAAAAAAAAAAAAAAAAAAAAAAAAAAAAAAAAAAAAAAAAAAAAAAAAAAAAAAAAAAAAAAAAAAAAAAAAAAAAAAAAAAAAAAAAAAAAAAAAAAAAAAAAAAAAAAAAAAAAAAAAAAAAAAAAAAAAAAAAAAAAAAAAAAAAAAAAAAAAAAAAAAAAABLW9P5OpiIMlYqvZUmXZHL1TyVU8EUCJAAAAAAAAAAAAAAAAAAAAAAAAAAAAAAAAAAAAAAAAAAAAAAAAAAAAAAAAAAAAAAAAAAAAAAZVbHXbUfeVqdiZm+3FHG5ye9EO77C5T+jbn9g76gI8Eh9hcp/Rtz+wd9Q+wuU/o65/YO+oCPBzkjfFI5krHMe3krXJsqHAAAAAAAAAAAAABnMxGSkY17MfbcxyIqOSFyoqefQDBBmzYrIQxOkmo2o42pu5zonIiJ612MIAAAAAAAAAAAAAAAAAAAAAAAAAAAAAAAAAAAAAAAAAAAAAAAAAAAABsvs40Mtt0eUzMSpXRUdDA5Pl/8Sp5eoodnGhltLHlczFtB8qGByfL/AOJfV6iQ7TNZQxV5sLjOCR704J5Nt2sT5qev9h2do2t0pNfisNInpG3DNMzpGnzW+v8AYahVVVVVV3VeqqEfAARQAAAAAAAAAAAAAAAAAAAAAAAAAAAAAAAAAAAAAAAAAAAAAAAAAAAAAAAAAAAAAAAAmdI4VdQZ6Cgj+BjkV8jvFGp129ZDF37Hvu0b+bS/3FG0chJbwVOpU0/hvS4mN2VEkRiMRPb1VSP+zupv/wCl0/8AqWlc1vrrMYbU1uhTWv3ESM4eONFXmxFXn7VIJO03UCqiItVVX/5KF2zpsD7O6m//AKXT/wCpacm53UvEnFpf4u/Pay0otrtA1XTRq267IEcuzVkrcO/s3Mf/ACnag86v9khNrpbe1PTUN7EvzUDEht12cUrdvls9frQ00bvkyljM9k16/c4O/lrS8XAmycnqicvYhpASQAAigAAAAAWHQi4lNQNTPNjdTdE5qI9qqnGqpw9PpK8d1T/S6/5Rv7UA3hm8Ro3CNiXKUasCSqqM3jVd1Tbfp7UMiDW2mIIY4Yr7GRxtRjWpG7ZERNkToVvt0/0bEflJf2NIXVek8bi9D0crVSb0uZIOLifu347d15FZXu3rPStyrLWs3o5IJW8L2Ojds5PLocMThdH5enLax9GrNBG5WvckapsqJuvX1KUinpLGTdm0mcek3pzYJJE2f8Xdr1ROXsQsPZB9xuU/LyfwmmhrTVj8c/UFt2FRiY9eHukYionyU35L69yIPjPkp7D6YaAAAAAAAASWnMcmXztGgr+BtiVGK5PBOq/qQ3XZ0rpfF0e9s42NYo02c9WK93tXbmak7PPu3w/5b/tU2jqrWf2u6mgp2oUloS12vcrflNVXOTf1psiciwko30ns6/3dT+xd9Q9J7Ov93U/sXfUcc7o3E6nqOyemp4mTu5q1vyHr5Kn4KmrMjjLuNurUu15Ip99kaqfK9nmBtX0ns6/3dT+xd9RJYbGaMzL3txtCvPwfKckLkRPpVNio6Q7OprTW3M+q1qqfG7nfZzk9a+CE3l9b47DdxitMwxOVHtjWRqfEbz2XbzX1mhWe1PTdPBXKc+Ob3UFpHIsXg1zdunq5oUU2x25ptHh0/wCOb9jDU5mSAAEUAAAAAADIgp2p4nSwVppI2fKexiqie1UAxwDImp2oYWzTVpo4n/Je5io1fYoGODnFG+WRscTHPe7kjWpuq/QcrNeatJ3dmGSF/XhkarV9ygdQAAAAAAAAAAAACe0S7FM1DXXONVau/Lf5KO8Fd6jdusG5KTTc/wBgHNSwreXD1Vm3Pg9fkedDYvZzrh2PfHjMvIq03LtFK7/4S+S+r9hYSWvJEekjkkRyPRV4kd139ZxNydomiWZSN2Uw7G+mbcUkbekyeaev9ppxzVa5WuRUci7Ki9UUD4ACKAAAAAAAAAAAAAAAAAAAAAAAAAAAAAAAAAAAAAAAAAAAAAAAAAAAAAAAAAAAAAAAAF37Hvu0b+bS/wBxSC79j33aN/Npf7iwMPtS+7nI+yP+G0+0NFZSbBQ5mJiOYsjXNhTm5Wb/ACv/AAfO1L7ucj7I/wCG0zOz7WkmCmbTvudJjHr7ViVfFPV5oEXntPwdvPzYWpSb/wDFkWSRfkxt2bzU1DqHD2cFlZaNzZXs5tc3o5q9FN1ax1lTwmMY+rJHYt2GcUDWrumy/hL6jReQu2MhcltXJXSzyLu5zhJDbOI+8nY/Np/4jjTxuHEfeTsfm0/8Rxp4SQAAigAAAAAd1T/S6/5Rv7UOk7qn+l1/yjf2oBtTt0/0bEflJv2NO7tA+9Zi/ZV/hnT26f6NiPykv7GnDXV6pN2Z4yCG1BJM1K28bZEVybM58issrG/eRm/NZv4jj72QfcblPy8n8JpjY6/Ub2OTVnWoEsLWlTulkTj3WR3h1Mnsg+43Kfl5P4TTQ04z5Kew+nxnyU9h9MNAAAAAAAALF2efdvh/y3/apPdtP3T1fzNv77yB7PPu3w/5b/tUnu2n7p6v5m3995fhFRwebv4S2k+PndGv4TerXJ5KhtLHdoOEvU0s5eskd6snE1vBxcS/8C+BpsAWzV2t8hn3OhjVatHwhYvN39ZfErVH/Tqv5Vn7yHQd9H/Tqv5Vn7yBW0e3T5GH/rzf9hqc2x26fIw/9eb/ALDU4lI6AARQAAAAAXoeidFPx66UoLRWJIWwt7zmnJ23xuL6d+p52OyOeWNjmRyva13VEcqIpUlaJX4j/KTx7M+xPpm6/N28/ZxfqNwavkx6aWvLdWFazoHcHNOa7fF4fXvt0POZ2PnlfG1j5HuY3o1XKqINml+7GH0m5m2lpY0trE1IFf7V4kT19Cb7anUvsdSYqsXIJLu3b5SM257/AE7GpGOcxyOY5WuToqLsqH2WR8ruKV7nu83Luo2acAARQAAAAAAAAAAAABsbs51wuPdHjMvIq01XaKZy84l8l9X7CZ7TtI1rNOXN0HRQysbxzJuiNlTzT1/tNQElazeQtYqDHT2ZH1IVVWMVf2+exU0jQARQAAAAAAAAAAAAAAAAAAAAAAAAAAAAAAAAAAAAAAAAAAAAAAAAAAAAAAAAAAAAAAAAt3ZZdgo6wgfakSNkkT4kc5dkRy7bb+4qIA3Zqfs8bns3YyX2RdF3yN+IkfEibNROu/qIr/JIz+ln/wBj/wCTWKXraJslmZE/rqPT7f4zN+mpUbPd2TI7biy8i7Jsm8XRPefP8kjP6Wf/AGP/AJNY+n2/xmb9NR6fb/GZv01A3Ln61fS/Zpaxc1lJHrE+KNVTZXq5yr09W5pE7Zp5Ztu+lfJt04nKux1AAARQAAAAAOyB6RzxPd0a9HL9CnWAN+6s0/X1tSoS17yRwxq57XMaj+LiRPd0Kz/klb/Sz/7H/wAmr4rViJnDFPKxvk1yohy9Pt/jM36alTTZ3+SVv9LP/sf/ACWPE4qtojS2QZZuJJG5Xy8Tk4V3ViN4UTxXkaO9Pt/jM36anCWzPM3hlmke3rs5yqNmnS3k1EABFAAAAAAAASOnsiuIzdK+jOP0eRHq3zTov6lNs38/ofMvjs5JYZJkYjU72Jyuam6rtyT1qaVBUbh9J7Ov93T/ALF31D0ns6/3dP8AsXfUaeA2abh9J7Ov93T/ALF31H1lvs7Y9rmsqI5qoqL3LuSp9Bp0DZpd+1DU9XUFypFj9316yOXvFTbjc7bfb1ckKQARQAAAAAAAAAAAAAAAAAAAAAAAAAAAAAAAAAAAAAAAAAAAAAAAAAAAAAAAAAAAAAAAAAAAAAAAAAAAAAAAAAAAAAAAAAAAAAAAAAAAAAAAAAAAAAAAAAAAAAAAAAAAAAAAAAAAAAAAAAAAAAAAAAAAAAAAAAAAAAAAAAAAAAAAAAAAAAAAAAAAAAAAAAAAAAAAAAAAAAAAAAAAAAAAAAAAAAAAAAAAAAAAAAAAAAAAAAAAAAAAAAAAAAAAAAAAAAAAAAAAAAAAAAAAAAAAAAAAAAAAAAAAAAAAAAAAAAAAAAAAAAAAAAAAAAAAAAAAAAAAAAAAAAAAAAAAAAAAAAAAAAAAAAAAAAAAAAAAAAAAAAAAAAAAAAAAAAAAAAAAAAAAAAAAAAAAAAAAAAAAAAAAAAAAAAAAAAAAAAAAAAAAAAAAAAAAAAAAAAAAAAAAAAAAAAAAAAAAAAAAAAAAAAAAAAAAAAAAAAAAAFy0/wBmWrs9A2ehh5mwO5tknVI0VPVvzJS/2Ma2pwrJ9i2TtRN1SGZqr7gNcgyL9K1j7T616vLXsMXZ0crVa5PoUxwAAAAAAAAAAAAAADlGx0kjWRtVz3KjWtRN1VV6IWLU+iNQ6XqV7Wcx0laCddmPVyOTfbfZduigVsAAAAAAAAAAAAAAAAAAAAAAAAAAAAAAAAAAAAAAAAAAAAAAAAHbWgks2Ya8DVfNK9sbGp+E5V2RPepKal0xmdMzQxZ2jJTkmRXRo9UXiRF2XooEMAAALDpjRmoNTtc/CYyazE1dnS8msRfLdTp1RpXM6WnhhztF9V8yKse7kVHonXbb2oBCAAAAAAAAAAAAAAAAAAAAT1bSOdtadkz0GOlfiY0crrKKnCiNXZfHfkoECCd0ppPNarszQYGk6y+FvFIu6Na1F6bqvmRmToWsXkJ6OQhfBbgcrJI3pzaoGKAAABKadwOS1HlGY/DVXWbbkV3A3lsidVVfBAIsEnqLBZLTuUkx+ZqurW2IjlY7nui9FRfFCMAAAAAAAM/B4i/nclHj8TWdZuSIqtiaqIqoibr19R8zWJvYTJS4/K13V7kW3HE5U3TdN06epQMEAAAAAAAAAAAAAAAAAAAAAAAAAAAAAN/dj+g8VhNNP1vrVjEhYzvqsMqbo1qdHqni5V6IaR0/R+yedx1BUVUtWY4V2/4nIn95vf4U+SdSpae0/UXu6itdO5jemzNmMT6OYFc1f28Z2/afHp1rMZRauzF4UdI5PWvRPYhB4jtn1nj7LZJcl6ZGi7ujsMRyOTy80NbgD1BUn0325abnimrso6jqx7o5PlMXwci/hMVeqeB5szOMtYbK2sdkIlit1pFjkavgqf3eJYeyjNTYHtBwtuF6tY+w2CVN+To3rwqi+/f6C8fCmxcdPW9K7EzhW9U3kVPFzHK3f27be4DTO52xQTTNVYYZZETqrGKqJ7j1ZNo7TWR7MdN3c3HBUoU6sNy3IxiNdK1Ivkqqc+aqntKbB25YPGTpUxOlImYpi8LdlRrlb57bbAaA8Qeke1XTWA1l2crrXTNdkNiJnfPVjUar2Iuz2vRPwm9d/UaT7PNKWdZ6oq4qsqsjd/KTy/7uNOrvbzRE9agVyNj5HcMbHPd5NTdT7JHJE7hlY9jvJzVRf1npbUOrdG9lD0weCw0V7IxInfuXbdq7fhvVFVXeo6tO9oWke0a03BamwUFSxZXggk5K1XL0RHbbtd5AeawXHtV0ZJofVcuPRzpKUre+qyu6uYvLZfWi7oU4DOwMcc+dx0MzUdHJZja5q9FRXIiobX+EppzD6cy2FjwlCCkyaGR0jYk24lR2ybmN2Oa4wOn6MWKymES7dsXkdHY2avAjuFqJzTfkqKpubtd1tg9JXsfDnMMmSknjc6N2zV4ERdlTmgHkSjakpXa9qBUSWCRsjFXmm6Lun7DY3ab2tXNdYSrjJKENSKORJpXMcrlkeiKibeSc1KprrM0tQavt5LGU/Qqc7mcEGyJw7IiL05dUNv8AwlsXQx+m9Mvo04K75Hu41jYjVd/Jt67AeftzsiilmVUhjfIqdUY1XfsPSfZHpPHal7Elr2YoIprEszHWlYivY1JOaovsRSHf2taW0hYXFaT05DYx8C8DrDnI10qpyVUXbdfaoGgVRWqqORUVOqL4HKKKSZ3DDG+R3kxqqv6j1Rk9J6a7YNK08zh4mY+6sqNfK1iI5uypxscidV26L7Ct5LtK0poC27B6TwMNyOq7gmsucicb05Lz23cvrA89PY6N6tka5rk6tcmyocT1Nbr6e7ZOz69dx1GOpmKiLwqqJxxSInEiKqdWuT/3keZ8Li7WZy9TGUY1fbsyJExnrX6gMJEVVRERVVeiIc5YZYdu+ikj36cbVTf3npe6zRvYtiKsc1JmU1DOzdVciK93mu678Ld+hG4rtp05n7SY7VGna8FGdeBZdkka3y4k26etAPOwNqduXZ3BpC7WyeF3dhL67MTi4u6ftvwovi1U5oarADctHZfDFY7RdNwzxtkikvRNcxybo5OLoqHovXuB0XpbLP1bqGrC9jYmQVKLI02dIm6qvD0Veac16bAeUVgmSPvFhlSP56sXb3nUehKvb1iZLSQXdLxsx6rw/Ec1zmp57bbKYva72f4TI6VbrTQ7WJU4UknhiTZjmb7K5E8FReqAaFO2GCaZFWGGWRE68DFdt7i49klDTGQ1S2PWNruKbWcUbHboyV/k5ydE/abQyXbdgMNZWlpjTkEtGJeFJHIkaOT/AIWonT2geenNVrla5Fa5OqKmyofD1HjHaP7asHchTHsx+brs33RER8ar0cip8pu/VDz/AKf0vYyWvKumbC9zYfcWrKvzeFV4lT6GqBX4o5JXcMTHyO8mNVV/UJI3xO4ZWOY7yciop6d1jqvTPZEtXB4XAxWLqwpK9ztk2Rd0RXO23cq7KR2K7QdEdoNSzj9Y4utjJGxq9s69OXXhcibo79oHnA5xRSTO4YY3yO8mNVy/qLZpXTFTUXaTXwNC2suOlsua2xtwq6FqK5V28F4UN36z1tpzsqtxafwWn4ZrLImySOXZEai9N123cq7AeY5GOjdwyNcx3k5NlOO56Opa40H2iYq7V1bj6+Jswxq9s3j7WORN90Xbl4la+DvJift3yuCtR179WyxzqsssSfGWNV5oi9N2qq7eoDSwLH2i4VdPa4zWM4eGOGy5Yk/+W74zf1KhuD4N+nsa3TuVz+cgrvhlsMqQunaiomyonLfzc9qfQB58BsTt506zTvaLdbWiSKnca21C1qbInFyciexyL+osvwZtN1cpnMrlcnBHNTpQJG1JW7t4381Xn5NRfeBpY+ta57kaxqucvRETdS8V8TL2i9qNutiI2QV7Vl70VjURsMDV24tvZt9Km4M5ndEdkTG4nF4tmRzLWJ3yu2Vyb893vVOq9dkA81SwywqiTRyRqvg9qt/adZ6Mw/a9pXVVhuL1bp+vWrzqjEmVEexqr035bp7ShdtnZw3Rl+C9ildJg7i7Rqq8SxP234d/FFTmigaw3OccckqqkTHvVOezWqp6J7BdN0tQdlWarzV4FtT2ZYGTvjRzo942bKi+rfc7LHaHojs6k+wOAw32QWt/Jz2Gq1OJ6dfjKiq5d9wPOCpsuy8lOcUMsyqkMUkip14Gq79huLSOl6vax2l5fLpDJV09G9ssrE2a5VVE2jTbz2VVXyLZqHtY0ro2y7D6VwVa0ysqsfI1EZHunVEXbd3tA0HpRFbq3Co5FRyX4N0VNlT+Uabl+Fr/AK8wH5CX99CZwOV0h2sW4GegMw+p6kjLMDm7fynA5HKiKm3EnLopC/CyXfNafXzry/vIBoU5ws7yaOPfbjcjd/auxwNqdk2u8BpnEyUMxg0yFma13jJtmrwoqNRE5p5oqgbT7W9ST9l2jMDiNMMiryzIsSS8KLwNY1OJdvFVVep571frPM6vSkudsNsPqI5sb0YjV2dsq77deh6m7XdY4XSTcYucxCZJLKyd3yavBttv1Tx3Q8zdoGoMbqfWMN/EY9KFRWxR9xsnVF5ry8wKfuc1ikSNJFjeka9HK1dl+k9f6/0rpCk+lqHUFetBjMZG5VgZGiJPK5U4UVE+V0Xl6zWWr+2LAZvS+Vw1TAPrJPAsVeX4nxV8F2ROXvA0UdrIJpGK+OGV7E6uaxVT3m7uyTs7w9bTL9Z664Ux7W95Xgk+SrPnuTx3XohIWu3jEVLC18TpeJ1BnxUV6oxXJ7ETZAPPgPS9jB6P7YtPW7unoGY7UFdu7mo1GuR3gj0Tk5q7dTRekaD6/aHh6GQh2kjyUUM0T035pIiKigVzc7HQTNiSR0UiRr0erFRF+k9W9peH0bpbIRaoztKGVIokgp4+NiIksu6qrlTovLbmvQgdK9s2C1BloMPmdP16lS05IWP5PYiryRHIqdPWB5sO30ebuu97mXuvn8C8PvPTWc7OdGaGyeR1XmWI/FM4Vq49U3RJl33RE8fUnhzIrDdu2FsZGOnkNORVcbI5Gd41UdwIvLdU25oB51BuT4ReiaOnsnQzGFhjho5FFa+KP5LZE57ongiov6jTYA+oiuVEaiqq9EQy8PjrOXytTHUWcdq1K2KNvm5VPSdmDRvYtg6qW6jMln52b80RZH+a7r8lm/IDzJLDLDt30Uke/Tjard/eejNJf7K+S/JWv4qmFV7ZdM6jl+x2rNNwxUJl4Fmbs/u9+W6ptv8AShdtRafqaZ7DdQY/GT9/j+5mnrv33+JI7iRN/Hr1A0H2Vdo9ns/sXljpx3K1tG8cbncKo5u+yov0la1dnrGp9SX8zcYxk1uTjVjOjU2RERPoRDZvwYcfUyGrMrHerQ2GNpI5GysRyIveN58zXeu66N15nK9aNERL8sccbE/41RERAK8dkkE0TUdLDIxq9FcxURT0niNO6X7ItJ1svqquy7np0+LGqI5yP2+QxF5IieLiIZ26YbITLVzOlYVxr/iu2VHuansVNl/UB5/3LX2bazsaG1H9lK0DLDXRLDLE9duJqqi8l8F3RD0hhdG6Xp6M1BkcFFXt47IV5LdVXsRyw/ySorUVeac0328DQ3YHVgu9p2MgtwxzQuZLuyRvEi/ya+AEN2kaxsa41I7K2YGV0SJsMcTF34WpuvNfFeamy/g8aXwmoNO6inzONr3Ja72pE6Vu6s+I5eX0oVrtbWlg+2uSVKkfoVWWtK6uxqIjmo1qqm3TnzN+9ler8NqnFZazhcSmOhquRJWbNTvN2qvgnkgHjR+3G5E26qfDcuve0vTGd0tkMZjNNpTuTbIyfhZ8VUcir0TfwI3sWh0PC3I5PWM7X2qiccNWVu7HNTxRPwnb8tgNZMrTyM42QTOZ85rFVPedJ6Bl7fcdDZ7qjpeH0BvJEc5GuVPYibISeqtOaa7T9B2dSaVrMq5as1z3MY1GuVzU3dG9E5Ku3RQNafB1++zi/wAlP/DU6vhA/fZzXsi/htO74Oi79rGKX/5U/wDDU6fhA/fZzXsi/htA12AAAAAAAAAAAAAAAAAAAAAAAAAAAAAk9M3kxmo8Vfcuza1qKZV8ka9F/uN4fCtxzpnaezUCcdVWPrue3puuzm+9N/cefD0X2V6rxOutGP0Rq+RjbTWJFWkeuyyNT5Kovz2/rA86A2ZrHsZ1RgrkiUajspR4v5OaDbi2/wCJvgpB4rs11fk7DYq+DtM3XZXzJ3bU9qqBjdmWJlzevsHShYrt7TJH+pjF4nL7kNifCryMdnWWMpRvRzqlNVkRPwXPcqp+pELrpfA4TsV05PmdQWYrGdsRq1jG9V8e7jTrtvtu4846lzVvUOcu5XIuR1m09Xu26J4IiepE2QD0H2tWJIPg76eZG5WpMykx+3i3u99veiHmo9H9sP8As96X9lP+Ep5wA9I9lTlk+DnqNj13a2K6iIvgnd7/AN5h/BMrRceorao1Z0SGJF8Ub8ZV967e4y+yf/Z31N+Tu/wyifB31dBprWElTISpFRybGwq93RkiL8RV8k5qn0gWzLYLsnyGUt3L2pbLrU8rpJVV7vlKu6/gnTV072RVbUNiHUtlssL2yMcj3cnIu6L8n1EH2udk+YxmoLmRwNKS7ibUizNSBOJ0Su5q1U8U36KhXtE9lmpNSZWCKbH2KNHjTvrFhis4W+OyLzVQLl8I3U+ntTVMJJg8hFcs15JGycDVRWsVEXxTzQ0eXbtb0zh9J6qfjcHffbY1nFKx+yrC5ejeJOq7e4pIElpr7o8V+dxfvobq+Fr/AK70/wDm8v75o/DTtq5ijYk+RFYje72I5FU9H/CQ0nltTtwmT0/VffiiY9j2xKirwuVHNcnmgHmaP+cZ/WT9p6M+FL9y+lfyj/4bTQOWxV7CZRaOUrurW4+FXxO23bvsqb7epTf3wpfuX0r+Uf8Aw2gd/Z7YkqfBly00DlZK2G5wuTqiq5U3PNR6Q0R/svZj8jc/eU83gemPg32JIey7Ub2OXeKxM9nqXuW/UeZ0cr04nqqudzVV8VPSXwdfvVao/LTfwGnmxnyG+wD0R8ExyqzU0ar8Re5VU/TQqXweasU3a8rpEbvBHZkjRfndOX0Kpa/gl/K1L7If+41Z2fakbpPtIrZabf0aOxJHOide7cqtd7t9/oA3T2jYrs3y2r70+pc/YhyjFbFJCjnIkfCmyInxStfat2Pf/wBSWP03f4TP7cezi3qC+zVmkmNvxXI2unihVFV2ycpG+e6bboalwnZ5qnMX2Va2GtxuV2zpJ41jYxPNVX+4Db/a3qjSN/soZg8NmGXbFNYErtcjleqMXh33VPmqp51Nn9sGgMPoanio6uUfPlpmJ39ZURU5JzenzUVeSIawAtnZP983TH/MIv3i/fCpuTya0xtNznejw0kexvhxOcu6/qRCg9k/3zdMf8wi/ePQPbzoKTWUEVvCLHJm8czZ9fiRHSROVVRPbvvt9IHlI9JfBre7I9nupcZc+PTbK5qI7miI+P4yf3mlKmgtVW76U4sFfSffZeOJWtT/AKl5G+LMNfsd7HLVKWxG/O5FHIiNX5Ur04VVP+FrfH6wNM9lXZ5b17lJ445vRaFVEWefh3XdejWp5rspsbI4vsd0zYfj7z7V+3H8SV8bnP2d0Xmiom/sJD4LN2vNp3UOJZI2O8siSp5q1zOFFT2Kn6zTOa0HqjGZWWnZw96WZHqiSRRK9snP5SOTlzA9B9keL0GmpJclojIzpY9HdFLSlcu6tVWrxbO58lTwXxNIa5yk+B7ZsvlKOyWKmSdMzfoq780X28/ebk+D/oGxpSWbJ59GV8reiWOtVVycbIkVFcq+vfh9hqnUOKx+b7dsrjcvdWjTsZCRjp0ROS+Cc+m68twNl3M52cdqtatJnpfsXmGM4OJ7+BzfUj+jk38yt6h7BJlpSXdJZiHJxIm7YnKm7vUjk5bkD2o9kWU03lHS4GpZv4aREWN0acb4125o5E5rz8SxfB1wmraWrGzzV7tTCd29LDbCKxr12+KiNXx325gal07lL2j9W1b7Ylju4+f48MibLy5OavtTdDfeRyPZr2qths5WyuLzCRoxXSP7t6J5cXyXJ5blL1ZjcBq3t/v4+xf9EozPbGs0e2z5msajm79E3cipv5kV2m9k+Y01mZnYilZvYd68UMkTVe9ifNcic908wJ/U/YNchoyXtK5SHKwIiuSJdkc5PJrkXZVNYaOy02l9Z4zIva+OSlZTvWKmyo3fZ7V+hVQ3L8G7Darx+esTXYLdTBrA5HssIrUe/lw8LV57pz5mrO16zSudpWoJsarXVXWNkczo5yNRHKn/AFIoGwvhR4ZqZ3DZ2onHFkIO5VzU+U5uytX6WuT3GZ2sSu0T2R6W0tVd3d2wrbE/Cuy7t2eq/pqn6JcNBVa3aP2XaYS85HT4i5F3m/NVWFen/UxUNOfCEzyZvtJuRxu3gx7Eps26bpurv/uVU+gC79ucbdWdl+l9YV0R0kbWsnVPBHoiLv7Ht2+kyMG77R/g2Wryfyd/Lo5Wr0VVlXgb7mJudfYUsWsOzHUejrkmyxrvEq81Y2Tmip7Ht3+kjvhNZSKr9r+laSo2CjAksjE6Iu3CxPoair9IGV8EurE7I6isuRqzMihjb5o1Vcq/sT3GkdR3Z8lqDJXLbnOsT2JHvV3XdXLyL52Aavh0rrRY78iR4/IsSvI9ejHb7scvq33T6SZ7YeyfK1M/by+nKjr2KuPWfgg+M6Jzuapt4t3XdNgNMnpLNyOzHwWK1nILxzwwxqx7uqqybgb/APbyNS6S7MNT6iyUUDcbYp11ciS2LLFY1jfFdl5qps3t8zmO07ozG6Dw0iOdG2P0hEXfgYzmiL/xOdzAkOwOxJU7F9S2IXK2WKSy9jk8FSFuynmriV/xnKquXmqr4qekOw77xuq/61r+A083M+Q32Aekuyp64n4O+oshR5W3NtSK5vVFRqNT3Jz+k83e1d18zfnwbtQUbWMy+jMu9qR3eJ8DXLtxo5vDI1PXyRUKDrbss1HprKzQwY+xeocS9xYrsV/E3w3ROaKBXdD3J8frPB2arlbMy7Dtt47vRFT3Kpt/4Wf+u9P/AJvL+8hG9jnZjfZnK2odUwLjsXQe2ZjbHxXSvRfi8vBN9upI/Cy55rT35vL+8gGhTvpf6bW/Ks/ah0HfS/02t+VZ+1APQXwtf5vTP9af/sPPlP8A0yv+Ub+1D0H8LX+b0z/Wn/7Dz5T/ANMr/lG/tQD0V8LCzKzEacqteqQyTSyPb4OVrWonu3X3nnBrUc5rVXZFVE3PRPws/wDRdMf1p/2MPOq80A9IfCWldjtBaXxlP4lKR+zms5IqMjbwp/8Acqnm89OUm1e2TsigoNsRs1BjWt5O8JGpsir/AMLk/X7DRWQ0FqqhdWrYwV5ZUXbeOJXtX2OTkBZ/g5XZ6valQhhc7u7UUsUrU8WoxXJ7laikrr6tFV+EnWSBGokmQpyuRPnO4FUt3YvoR+hYLurtZKyk+KBzYonuTeJq/Kcv/EqckT1qaqr55+p+2ihmHorUtZaBzGr+CxJGo1PciAXz4WViR2fwFfiXum1pHo3w3V6Jv+o0dQcrb9VzV2VJWKi/9SG6/hYfdTg/zN/75pOl/ptb8qz95APRHwsrMn2O03AjlSN8s0jk8FVGtRP2r7zzg/5DvYeifhZf6Npj2zfsYedn/Id7APSXwhFWXsk0tK/m/vYOftgd9R5uPSPwgPvPaV/KwfwHHm4DaPwb60VjtRqOmRqrDXmlYi/O4dkX9aqR/b3cnt9q2cbO5ytrvZDGi+DUY3bb3qQ3ZnqP7VNb4vLPVfR4pOCfbmvduThd+pdzcPbn2dWtR24tWaTa2+y1E3v4olRVeiJ8WRvny2RU9QHnY9LacuTXPgt31sOc5Yq08LVX5rZOX1GmNPdnGqc5kWVIMRagRXIj5bEaxsYnmqr1+g9H6oxFLT/YTmMPjZmzRUaT4XvResm6K/f17qBq/wCCl92OX/MU/iNK/ja8Vr4Q6Q2Easa5t6qjui7PVUT3ohYPgpfdjl/zFP4jSg6pyU2H7V8pkqy7TVMq+ZntbJuBdPhS2ppe0CpWe53cw0GOYnhu5zt1/Uhps9N9q2lI+1PTmM1RpF7J7kcXAsPEiK9nVWL5Oau/U0rQ7M9YXbyVY8FajkVdldKiNY31qoG5OwO1NN2N6mhlcqx11sNj38EWHdUT6TWXwePvrYn8nN/DcegtLabqaR7McthK9iOe3BVmfdcxf/iviVfo5bbeo8+/B4++tifyc38NwHz4Qv318t/Uh/htNj/Bb+5XVX5Rv8Nxrj4Qv318t/Uh/htNhfBUswy4/U2NV6NsPWORGqvNWq1zVX6FVPeB54k/nH/1l/abT7JuypdW0Jc1mba0cJE5U4k2R0vD8pd15I1PMq+ouz7U2DTIT5DFTR06iq59jdODh4tkVF3577oby0PC7VnwdZsNg5WNyMcL672b7Lxo/i2X+snj6wKxYb2KU5HU1ZcsbLss8avcn0LuimyuyjFaWo4XOTaMyL7dG01HSQvdusLkY5NufNN0Xx8jzBHofU77/oTcDkPSN+HhWFUTf+t0/WeoOx/R6aL0jepWpY35iwz0i2xjt+63aqMb+p3P2gaI+Dym3a7jkTpwWP4bjH+ED99nNeyL+G0yfg9ffex39Sx+44xvhA/fZzXsi/htA12AAAAAAAAAAAAAAAAAAAAAAAAAAAAAHKN7o3tfG5Wvau6OauyopxAGy9OdtOrsLAyB1uO/C1NkS03iVP8Aq6kpkO37VdmFWV4aFRyptxxxKqp+kqmoABJZ3N5LP3nXMxcmt2F/CkdvsnknkhGgAWvO69zuc0xTwGQnifjand90xsTWqnA3hbzRN15FUAAteF17ncNpa3p+jPEzGWkkSVjomucvGmzvjKm6ciqdOgAGxdJ9sGqtOVGVI7TLtVibMjtN4+FPJF67Gbn+3HVuVqvrwS18ex/JXVWbO29SruqGrQBzlkfLI6SV7nyOXdznLuqr5qcAABsDSva3qvTePjo1bjJ6kabRssMR/Ankirz29Rr8AS2p8/e1LnbGXyj2PuTq1XK1qNTkiInJPUhKax17ndX06dbNzxSxVFVYkZE1m26IngnPkiFVAFrx+vc7j9Hz6ZrTxNxM7XtfGsTVcqPXd3xttyqAAWzS2vs9pjDXMXiZ4o6dtznStfE1yqqtRq81TlyQqaJsiIngABaNE65zejFtrgp4ovSuHveOJr9+HfbqnLqpWZXrJK+R/wAp7lcvtVdziALnovtJ1JpGPuMZd46fX0aZONiexPD6C1ZHt81ZarOirx0ajnJt3kUaq5PWm6qaiAGVk8hbyl6W5kbElm1KvE+SR26qpigAWzsn++bpj/mEX7xs/t+1HldL9qNG9hLclaf7HsR3Dza9ON3JydFQ1DoXKQYTWWFylxHrWqWmTSIxN14UXddiy9tur8drTVVbI4hJkgjqthXvW8K8SOVf7wJ93wgNVLW7ttfHNl2271Il392+xrPUeoMpqTIuu5q5LasKmyK9eTU8kTwQigBn4TL38HkYr+JtSVbUfyZI12X2L5obRh7f9VMqpHJBjpZUTbvXRKi+3ZF2/UafAF2i7T9Us1OufXId5f7p0De8YjmMY5UVUa1eSdEKvmspazOXt5O89HW7MiyyOa1Gorl8kToYIA2Tpftm1XgKbKnpEV6vGiIxtpvErUTw367HdqPtt1Zmab60UsGPiemzvRWcLlT+su6oawAHLjd3nHxLx78XFvz38zZmm+2vVmFqMrSTw5CJnJvpTeJyJ5cSczWIA2Xqjtn1XnqUlRJ4aFeROF7areFXJ5cS8zWq815nwAW3RXaDqDRtWzXwdmOKGw9JHtkia9OJE23TdORV7diW3amsWHq+aZ6yPcvVXKu6r7zqAE/o3VmW0fkpb2DnbDPLGsT+JiPRW7ovRfYYup89f1Lmp8rlpUluTcKOcjUamyJsiIick5IRQAF/0h2s6p0xVZUrW22qbE2ZDZbxo1PJF6oUAAbXzXbrq3I1Xw13VaHEmyvrx/G+hVVdjVtmxNasST2ZXyzSKrnveu6uXzVTqAFr07r3O6f07dwmNniZj7avWVjomuVeNqNXmqbpyQqiJsmwAHZXmlrzxzQSOjljcjmPauytVPFFNp4Tt11bjqjYLDqt/hTZH2GLxfSqKm5qgAXjV3afqXVE0C3raRV4ZGysrwt4Y+JqoqKqePNPEjNa60zOs7FWbOzRyyVmqyNWRtZsiruvT2FaAA5RvWORj2/KaqOT2ocQBadba6zmtEqJnp4pUq8SxcETWbcW2/ROfRCsRuVkjXt+U1UcntQ4gC06113nNZsptzs8UqVFcsXBE1m3Ftv0Tn0QqwAEjgs1kcBkGXcRblq2W9Hxu23TyXzQ2fV7f9VRV0jlgx88iJt3r4lRfbyXY0+ALVrPXuoNYPRMxdc6u1eJteNOGNq+xCv4y7NjclVvVHI2xWlbNGqpuiOau6cvahigCxa01jl9ZXK9rOzRyzV41jYrI0Zs1V38CvxvWORj2/KaqOT2ocQBada66zms20252eKVKvF3XBE1m3Ftv0Tn0QqypumwAFr1Nr7O6kwVPEZWeKSlUc10TWxNaqK1qtTmibryVSqAAC66K7S9SaQi9HxtvvKXNfRp042Ivq8voKUANrZvt01Zkqb68C1aHGmzpK7FR/0Kqrt9BVauv9QV9KW9PMtMdjbSvWVHxo57leu7l4l59SpgCw6L1fltHXp7mDmjinmj7p6vjR6K3dF6L60InJ3bGVylm7aVHWbUqySKiIiK5y7ry8DEAGy4a2veyqlUyjXSUqtx3OLiSRm6Jy429EVUXkZGQ7dNY2qiwx2K1ZypsssUSI76F8CwaE7YqEmAZp/XtL02m1qRtscKP3YnRHtXrt5ktBkexOhJ6dBW72VF4mxOie7mnqXkBn9my2sJ2HanzedfJ32RbPOj5l3c9HR92xV381PPmls/f0xmYMpiZGR3IUcjXOYjkTdNl5L6lL72t9qs2soGYrF11pYSNyO7tflSqnTi25IieCGrQJXU+evamzU+Vy0jJLkyNR7msRqLsiInJPUhw0/nMjp7Jx5DD2pKtpnJHsXqnii+aeojQBsPU/a5qfUmAnxGRlrLVnRElVkKNc5EXfr4c0ToVrSOrMzpK+trB3HwPcmz2dWPT/iavJSBAG4LPb9qqWqscUGPhlVNu+bEquT17KuxU8J2m6ow9nKWK19JJ8kqLYknjSRXbIqJtv05OXoUsAS+l9Q5DTOciy2JkZHdjRyNc5iOT4yKi8l5dFOOps7e1LmrGVyr2yXJ+Hjc1iNRdkRE5J6kIoAAAAAAAAAAAAAMqzRnr06tqVipFZRyxr57LsBigAAAAAAAAAAAAAAAAAAAAAAAAAAAAAAAAAAAAAAAAAAAAAAAAAAAAAAAAAAAAAAAAAAAAAAAAAAAAAAAAAAAAAAAAAAAAAAAAAAAAAAAAAAAAAAAAAAAAAAAAAAAAAAAAAAAAAAAAAAAAAAAAzsPjlydxKzJo4pHfJ7xdkX1Fqb2fWmt4p7sDE9hRUMbUkv34KsSbvlejU9XrNpaqxVe3pqWlU4Vmx7Gua1OqbJ0+lDB0/gKGnrjr9nIQyujjdwt3Tl5r7iH0lqJV1XaltvRsF9VR3EvJq/g/UEUoGwbeiKdieWSpk4mse5XIzdF23XoYdnQFuGN0iXIO7am6udy2QaNqUDnMxI5Xsa9Ho1duJvRTgRQAAAAAAAAAACQyWFyeLhglyWPt1Ip03ifNErEf7FUx6Fj0S9Ws8DZO5kbJwO6O2VF2X3G3O2HtZx+t9M1MZj8bPBIkzZ5XzqnxFRFThZt169eQGmwBunmB21a89udkFWGSeZ/yY42q5zvHkiHK5UsUp1huV5a8yIiqyVitdt7FLx2Dffa0/8A15f4LyS+Ej99K1+bQ/ugauAG6eYAAAAAiovRQABuDS3Z/hMl2K5TU9lthcpXSZWK2XZnxVTbdv0gafJCjhsnkKk9qjj7dmtB/OyxROc1ntVCPN0dlfa9j9HaKnw9zGTT2GSPkhdEqI2Ti8H79Pbz5AaXMrH4+7kp+5x9Sxal68EMavX9R0WJO8lllVqN4nK7hb0Tfnsh6knu0uxrsoxtihSisZW53aOc9Nu8lc3ic5ypz4URNkT2AeZ8niMlinNbk6FqoruTe/iczf2bmAX3tF7S8lrvHUauUqVYXVJXStfBunFum2yoqqUIAAAAAAADdPMAZVHHXcgr0oU7FpWbK5IY1fw79N9jFN//AAS/9Y6l/JQfvPA0E9rmPcx7Va5q7KipsqL5HEktSfdHlvzyb+I4jVXbqAA6gADcPYl2fYPWOns7czLbKzU3o2LupeBPkKvPz5oafdycqesAiKqoiIqqvJETxJaXTOdiqelS4bIsr7b946u9E28+ht74MemqFyfL6gyUTJnY/hZAj03Riqiuc/bzRETb2mPn+37KXX5CpWxdNuMnZJAxHq5ZOFyK3iVd9t+e/QDSQA3TzAAAAANwAAAyKdOe7L3daNXu8fJPapIfa/a8Z6iL5LMh225HUMDSigXhdaRZJHJ1VPBCEAlvsBZ/GKf9sPsBZ/GKf9sQ4AmPsBZ/GKf9sPsBZ/GKf9sQ4AmPsBZ/GKf9sPsBZ/GKf9sQ4AmPsBZ/GKf9sPsBZ/GKf9sQ4Al34C4jVWN0Eypz4Y5EVSKe1zHK16K1yLsqL1Q5QyyQyNfE9WPRd0VFJXUHDPDQvcKNksRrx7eKtXbcCGAAAAAAAAAAAAAAAAAAAAAAAAAAAAAAAAAAAAAAAAAAAAAAAAAAAAAfWuVrkc1VRU5oqF805qmG9V+xWf8AjRvThbOq+7f6yhHfQrut3q9dibulkaz3qUTWrtPzYOwxySrLUmVe7fvz9ikAbG13j7mXy9LH4+JXMgi3c5eTWqq7c19iIR93QMrKe9O2ya2xN5Iunu/8jSPmlNPwxUm5nNToyo1OJke/yvWv1EfqvVU2XesFbeGi3kjUXm/1r9RO1609js5u0rMT47FJyrwuTZURFR37FU12AABFAAAAAAAAAAB9T5Se03f2/aPwOm9M6es4THRVJ7L1SVzN93J3aL+1TSDflN9qHo74UP3H6V/KL/CaBr7sZ7M11tZmv5OR9fB1XbPc3kszuqtRfBETqpfsjq7sl07OuNp6fhyLY/iSTRQNe1dv+Jy7u9p3Zew/S3wYcemOXu5b0ccb3t6/yrnOcu/rRNjzaB6i0XpXSWZ1Rh9X6AmbAypM5LlFeXAjo3N34fwV3VPUpq74Sf30rX5tD+6dXwd8tPju06hWicvcX2Prys8FThVyL9Ct/WpO9sFGPJ/CAx9GdEWGw+pG9F8WqvNPcBn9n/ZlgsNpZmq+0aRGV3tSSKpJuiNRfk8SJzc5fBpnM152S25kpT6XSGovxUmdUZsm/iqIu6F67YtI0dWrjqd/UlfEQVUdI2vI5id4q8kdsrk6Iion0mtf8imnf/67o/pRf4gIntf7MaWFxMOptIzLYwU3Cr2I7jSJHdHI7xaq8ufRSL+D/p/F6k1rYpZuoy3VbSfKkb99kcjmIi/rU3TjcVhMF2VZbTM2pcfkYnQT90rp40VvEm6NROJejuaGq/gtc+0Oz/y6T9+MCz5bSmgezrIWsjquJLti1O99HFxJxNii3+Kqt3/Wv0Etpu12X9o7n4iDCxUb7mKsbFiSJ6oic1Y9vinkac7cL017tTz6zOVUhmSCNF/Ba1qbJ+0i+y+Z8HaNpuSNdnJfiT3rsv7QLBY03idC9rDcZq5rreCi4n8XAqrJG5i8C7J4ouyL7D0JgLmi5Oy+/YxdVWaVakvfxd2qb804+W+/kad+FUxE11jHInNcc3f6JJCyaD/2Y877LP7WgUTtQv8AZ1awEDNE0lgyKTor3LE5u8ey7puq+exP9i+j8DnuzjUWRy2Ois3Kz5UildvuzaLiT9fM0cnQ9IfB6+9Lqz+vP/AA1r2U3dCVKeTTXdRbErnsWuqRq/Zuy8XRfYeiO023o2tpzFP1jWWfGue30VqRq7hXg5ckX5p4vf8AzbvYelPhLfe70v8AlmfwQNd6kyWgft+wU+DxrX6fRqMvQyMVqKquVFd18EVF+gkfhB6Fo6YvYzJYCs2DE3I+7Vse6tbInPf/AKmrv9CmoD0ppZ/+U/sIt4iRUkzGMakce/NyuYnFGv0t3aB5sRFVURqKqquyInipvbX2jtPaI7IqC3cfDJqe41kaTOVeJr1+M9dv+FOXuKT2HaYXUnaHSisRqtWj/ndhqp81fitX2u2/WSHwh9UfbBr2WpXk4qeLatZmy8lk33evv5f9IGri29k+Mp5ntFwWPycDZ6diZWyxO6OTgcv7UQqReew777Gm/wA4d+44DcWouzHRWnM3d1BqJYqmn42xsrUWKv8AKScPxlVOqrvv8VPapG09cdkuSnTH2dNx1Kzl4WzyVWo1PWvCu6e3mVz4UOXsWdb1sW57kq06zXtZ4K9+6q73bJ9BpkDb3bJ2W19NUotQaaldYwUyt4mcXH3PF8lyO8WL5+tCwfBL/wBY6l/JQfvPJnsZldqbsRz2HyKrLFWSaCNXL0YrEe1N/Uu+30EL8Eld7+o184a/7XgaoZjIMz2h2MfbvQ4+CfISsfZm+SxON3/6N05Sbsr7OHJjX41uZybETvXcKTORf+Jy8kX1IaTkwt7UOu72MxUCz257syNb0RPju3VV8ERPE2u7sb01gKsUmudWpWtyJxLHG5rUX2borl9uwE9iKvZj2oxzUcfj0xWWRiuYjGJFJ7W7cnInkaRyWAZpDtCjxWpGpLTq2o1nVrV2lgVUXiRPW03Lojs50vFqrF5bR2sGW5qc7Zn15Farns/CRNtl5pv4KVD4UTGt7Rq7kTm6hHv69nOA3b2W29GWsPlnaLqrBSa5PSmrGreJeFfNfLc1suY7Et13xbt9/wAXd9ZmfBe+4/VX5RP4Tjzg75TvaoHsvsvt6Ms4LLP0bVWCgx3+dNWNW8S8C+Cr83c0zrnJ9lU+k8hHpnHuizDmJ6O9YXN2XiTfmq+W5avgyfcNqv8Arr/CU83om/JPEDbfZB2Ww6koy6g1NOtTAQbqiK7gWZG/KcrvwWp5+JbLGt+yXETLRpabZcgb8V07KzVR3rRXLuvt5GV262X6c7ItM4LH/wAlXstjik4fFrI0cqexXLv9B5uA9EZvs40lr7T0+Z7OZWV7sSK51RN0a5dt+BzF+Qq+CpyNH6bopLq7F0L8K8L70UE8T02XZZEa5q/rQvPwcsvYx3aXUqQvd6PkI5IZmeC7NVzV9qKn61M7tKxsON+ELVbXajW2L1SyqJ85727+9UVfpA2Nqnsr0ZjMy3NZRkON05Trp3kLXKiTyq5evivLbknUo/aJqXs1ymjb9PTWMjrZRnB6PJ6Ikar8ZN9nIvlv1JX4WWQnS1p/HNeqVlZLYc1F5OdujUVfYm/vPPoAAATWc/1XhvyC/tQzuz7B1M/lrFa8siRxwOkTgdsu6Kn1mDnP9V4b8gv7ULH2OfdDc/NHftQqKQ2vLIsvcxSSNj3Vytaq8Kea7dDm6jbbXSw6rOkC80kWNeH3l87LJGQ1tTSSRpIxlbiVjujtuLkpk9n+qsjmtQpjMm+OajZiendd2iNZsnJE9QEDoDFUsnUz77sDZXVqneRKv4Lvjc/1FXSlbWslj0afuNt+87teH3mxezVkNPIasjezjggic1WL+E1rncvchi6W1zk7WoatS33L8dZekPo6RojWIvJNv1Aa8MpcddSDvlp2e5234+6dt79i/wCG03T/AMqVym9jXVKvFYbGvNPBUTbyTi/UYcXaFlnaiRXOZ9j3Td2tXgThRm+3t32Ao8EE1hytrxSSuRN1RjVcqJ9BxjiklkSOKN75F6Na1VVfoL1qeX7Te0L0rGNRkTkbK6JOSK13ym/qUsN+vj9NRXNW0WK915jUqRKzZInvTdVUDUcjHxvcyRrmPauytcmyp9BLZX/UeH/qyftQi55pLE8k0z1fLI5XOcvVVXqSmV/1Hh/6sn7UCocAEAAAAAAAAAAAAAAAAAAAAAAAAAAAAAAAAAAAAAAAAAAAAAAAAAAACf0R3DNQRWbcjY4K7XSq5y+KJsn61IAAXzUWupJVfDh2rExeSzKnxl9nkVGllr1O4tqCzI2ZV3c5V34vb5mCCjZ2C1nUyUTqmVa2CWRqsV/4D9025+RrWxF3NiWJVReB6t3Tx2U6wEAARQAAAAAAAAAAfW/Kb7UPR3wofuP0r+UX+E084ouyovkXztE7S7+uMVjaN2hVqsou4mOhVyq74qN57r6gNs6Cjr9pHYVLplszGZSg3u2o5fkua5XRuX1KnLf2nnnM4XJYW8+nlKVitYY7hVr2Km/sXoqewydJ6lymlcvHkcLYWGdvJydWyN+a5PFDcdf4QqyV2/ZTTNaxZany2S7N39itX9oHX8HLQd5ueZqbLV31atdjmVGzN4XSyOTbiRF57Iir7dyE7eb78X20syESbyVW1p2p5q3nt+oxcx21Z/JajxuRWCvFToS97FRaqpG93CrUV677rsilP19qqxrPUcmYuV4a0z42RrHEqq1Eam3jzA3n246ck17pjD6s0si3VjhVHxRc3OiXnyTza7dFT1qecW1Lb7Po7a9hbG+3dJG7j38tupb+zztKzuh3OioPZYoPXidUn3Vm/m35q+w2Q74QsSM7yPS0CW/94s/Lf9Hf9YFLyvZPksR2e/bLlr0NGdF3WjOio5WryaiL89fLYlvgt/fEtf8AL5P34yl6+19m9b2mSZWVrK0S7xVYUVsbPXt4r61Ovs61na0NnZMpSqwWpXwOgVkyqjURVau/JevxQO/tg++hqX88d+xDC7N/vg6c/P4f3kMHVOZl1DqLIZexEyGW5Ksro49+Fq7JyTfn4HTgMlJhs5QycMbJJKczZ2sfvs5WrvsuwG3PhWfdviv+Xp/FeWnsprSZj4O+cx9FqyW3OsxpGnVXbNcifSaZ7SdcW9eZetkL1SvVkgg7hGQq5UVOJXb81Xn8Y59nXaFmNCWpn4zupqs+yzVpt1Y5U6Km3NF9aAVmzjL9WJ0lqjagYxyMc6WJzUR3luqdeR6F+D196XVn9ef+Aa87TO1m3rnBQ4uXF1qcbJmzuex6ucrkRU25+HMj9Ddpd/SOmcnhalCrYhvK9XySq5HN4mcHLZdgKA/+bd7D0p8Jb73el/yzP4J5scm7VTzTYv8A2gdpl/WmCx2LuUKlaKk5HNfCrlc7ZnDz3UCgmzPg/wCqPtc19Xgnk4KOST0WXdeSOX5Dv0uX0qazJ/QeAn1Pq7GYmsrmunlRXvb1YxvNzvoRFA9OZXH4/sqwestR1VYtnIzK+u3bbhc5PisT1cSud7PYeRpJHyyPklcr5HqrnOXqqr1U3l8KDU6WctR01Vk4oaLUnsc995VTZqL7G8/+o0WALz2HffY03+cO/ccUYvPYd99jTf5w79xwG2PhI6Eu5WevqPDQPtSQxpBbhiTiejU3Vr0ROvXZfVseeaONvX7jalKnYnsuXhSKONVdv7PA352ra/zGhe1mxJi3Mlqz1IVmqzbqx6oipv6l28UMZ3whmxwq+ppevHbVPlrN8Xf2I1F/WBYY6reybsMtxX3sTMZBH/ye/wD8aRqN4U8+Fqc/YvmV74JSbZDUieUVf9rzUmttY5jWWT9MzM/Fw8ooWco4k8mp/eSfZn2hXdAT5CWhSrW1uNY1yTq5OHhVVTbZU+cBsD4P8tVna/qNk/ClmRLCQb9eUu7kT6P2FI7cqmWr9o+Ymy7Ju7lmV1aR6LwOi/ARq9OSctvMqcGau1dQOzNGV1W76Q6wx8a/IcrlXZPVz2NyY/4Qcz6bI89p2rdnan85HJwIq+eyov6gITsA0Tkcnq6lnLMMtbFUHpMksiK1Jn/gtbv157Kv/k7vhSffDq/mEf7zjD1H22ZvLZPHSVqtenjqNhlhtONV2lVqoqI9eqpy6JsVPtG1na1znI8ndqwVZWQtgRkKqrVRFVd+ar5gbk+Cu5s2ndUVGqnfLIxdvU5jkRfeaEyWDyuPsW47mOuQrWcqSufC5Gt57bqu22xn6G1hldF5j7IYeRqOc3glikTdkrfJU/vL1rftrvaq0rbw0uIqV0tI1skrHuVURHIvJF9niBdPgyfcNqv+uv8ACU83+Bfez3tLv6Jw+Sx9KhVsx3l3e+ZXIrfiq3lsvrKEB6byNNna32KY9cY9js1jGs3i3594xvC5i+XEmyop5vvY29j7bqt6nYr2Grssckatdv7CW0Xq/L6OyfpuFsd253KSJ3OOVPJzfE25D8IVJIUdkNMVprSJ8tk2yb+xWqv6wOPweNC3KOUk1bnoXUadSF/o/fpwK5VaqOkVF6NRu/Xz9RSc3qJmqe22rlIF3rPydeOBfONsjUav07b/AEnPtB7Xc9rCq6jtHj8Y5fjQV1XeRPJzvFPV0KFiLr8ZlaV+JjXvqzsna13RytcjkRfVyA3X8LH7osB+ay/voaJLl2l69ua+vUrV+nWquqxuja2BXKjkVd913VSmgAABNZz/AFXhvyC/tQlezTLUsPmbM+Rn7mJ9ZzGu4VXdyqnLkhF5Rq2MFjZ404mQtWJ+34K+shCouGicvRxtHUMd2fu32q6shThVeJ3xuXJOXUw+zvI1cTqqrbyEvdV2Mejn7Ku26bJyQrYIq/6L1BjMXldSWLsqLFaR3ctVq/yvxnLtyTlui+Pmc8ImjsXdZmW5CxI6P+UipOjXia7y36Lsa9BUWvGaukra2lzskaqyZ7kkjRefdr4J7Nk9xMMraLjyyZZMrMsKP75KXdLvxb77b+W5rwAW+XK4/UetnZDNy+i45qoqMVquVzW9G8k8fElqms6uUy2TqZz4mDts4Im8O/ccPJqoif8Au5roAd1yOOG1LHBMk0TXKjJERU4k8F2Uksr/AKjw/wDVk/ahEIiqqIibqvREJnOt7ijjKr/56KNznp5cS77BUKACAAAAAAAAAAAAAAAAAAAAAAAAAAAAAAAAAAAAAAAAAAAAAAAAAAAAAAAAAAAAAAAAAAAAAAAAAAAAAAAAAAAAAAAAAAAAAAAAAbk7A83pjSdbL5vOX42ZRWLDWr8DldwInEuy7bbuXZPoNNgDPzuTnzWavZO4u9i3M6Z/qVV32+joYAAAtvZPk6eG7RcFkMnOkFOvMrpZXIqo1OByeHrUqQA2L28Z3G6i1469hrTbVRa0bO8aionEm+6c0NdAAAAAAAAAAAAAAAAAAAAAAAAAAZuOyM1FXJHwvif8uN6btcZv2Worzdh6yr48/wDwQoAmvsrR/oev+kv1D7K0f6Hr/pL9RCgomvsrR/oev+kv1D7K0f6Hr/pL9RCgCa+ytH+h6/6S/UPsrR/oev8ApL9RCgCa+ytH+h6/6S/UPsrR/oev+kv1EKAJtM1BF8apja0Mvg/rsRFiaSxM6WZyvkcu6qp1ggAAAAAAAAAAAAAAAAAAAAAAAAAAAAAAAAAAAAAAAAAAAAAAAAAAAAAAAAAAAAAAAAAAAAAAAAAAAAAAAAAAAAAAAAAAAAAAAAAAAAAAAAAAAAAAAAAAAAAAAAAAAAAAAAAAAAAAAAAAAAAAAAAAAAAAAAAAAAAAAAAAAAAAAAAAAAAAAAAAAAAAAAAAAAAAAAAAAAAAAAAAAAAAAAAAAAAAAAAAAAAAAAAAAAAAAAAAAAAAAAAAAAAAAAAAAAAAAAAAAAAAAAAAAAAAAAAAAAAAAAAAAAAAAAAAAAAAAAAAAAAAAAAAAAAAAAAAAAAAAAAAAAAAAAAAAAAAAAAAAAAAAAAAAAAAAAAAAAAAAAAAAAAAAAAAAAAAAAAAAAAAAAAAAAAAAAAAAAAAAAAAAAAAAAAAAAAAAAAAAAAAAAAAAAAAAAAAAAAAAAAAAAAAAAAAAAAAAAAAAAAAAAAAAAAAAAAAAAAAAAAAAAAAAAAAAAAAAAAAAAAAAAAAAAAAAAAAAAAAAAAAAAAAAAAAAAAAAAAAAAAAAAAAAAAAAAAAAAAAAAAAAAAAAAAAAAAAAAAAAAAAAAAAAAAAAAAAAAAAAAAAAAAAAAAAAAAAAAAAAAAAAAAAAAAAAAAAAAAAAAAAAAAAAAAAAAAAAAAAAAAAAAAAAAAAAAAAAATeL09ZuIj5f5GLzXqv0AQhya1zvktcvsTcv9LAUayJvH3jvN/MkmQxMT4kbG+xCptq/upE/wDhv/RU4qiouypsvrNqq1F6ohjz0as6bSwRuT2DRtrEFzv6WgkRXVHrE75q80Kteo2KMnBYjVvkvgoVigAgAAAAAAAAAboAAA8QAA8vWABaNBW9MVLd92sKVi3XfWc2skK7cMvgq80Kuu2/LknhuAAAADxAAAeO3iABsXs005i81o/XF7I1u9s42j31V/Eqd27Z3PZF59E6nzROncZkuzDWuWu1u8v45sa1pOJU4N1Tfki7L9IGuwF5dQABsTsZ07jNR3tQR5et37KuMlsRJxK3henReSmumru3f3gfQAAAJvTemr+fm2qsSOBq7PsScmNXy38V9SAQgM3NY9+KytqhK9r5K71Y5zeiqZWmsDZz950FZzImRt45JpPksTw39qgRAM/O4yTD5azQme2SSB3Crm9F5bmAABb4tGJBWhkzeXp4ySZqOZDIivfsvTdE6EVqLT1rCLDI98VinOm8NmFd2P8AV6lKIUAEAAAAAAAAAAAAAAAAAAAAAAAAAAAAAAAAAAAAAAAAAAAAAAAAAAAAAAAAAAAAAAAAAAAAAAAAAAAAAAAAAAAD6iKqoiJuq+B8LNpHFpK/0ydu7Gr8RF8V8wMzT2BbC1ti41HSrzaxejSygFQAJmjjG8CPsJuq/gmhDAsr6Fd7du7RPWhC5CmtWRNl3YvRQjEOm3WitwrFOxHNXz8DuBlWvc7iH42bdN3QOX4rvL1KRRtC5Wjt13wzJu1ye41xkKj6VuSCRObV5L5p5gYwAIoAAJvREbJtZYKOVjXxvuwtc1ybo5Fem6KhtvtG1jjtDa+ylHAadxM0jnsktSWoUdzVjf5NiJsjW7bL7VU1PoP7t8B+fw/voT/bx99nUX5SP+EwDYGu7um9K08Rq3D6epSZPPQNkjr2GcVetsnx3NYm3xlVUT6CN1HPj9edj1/U0uKp0M3ibTYXPqM4Gytcreqex3vQju2L73/Zr+YSf9hy0j/s7a1/P4f+wDs0pQxWiezOLWeVxkGTymRnWChBZTeOJqb/AB1TxX4qr7iR0XqXG9puTdpjU+Cxlee3G/0S7Sh7p8T2puievodL6k+uOwTEVcJGtnJ4C0vf1WLu9Y1RyI5E8eSp+swOwzSmUq62r57LUrGPxOKa+eaxaYsSIvCqIib7b9QOvsb0fRta7ztLN1mXrGGhkfDTcuzbErH8PPzT1es7n9ojH5CXH680dj2Y16OjdFDU7maFfDgcvkQmHx+b1jrbUOZ0fZSC9FNLcjY2VY5XsVy7cHmu23L1mwezjUWsNUZ6HA6ywSZHEyI5tqa7S4HQtRF58WyJvvt6wKv2DUcbe1RqhjqzLFNmNnfAlliOVqcXxVX/AItvE5fB4xmNylbVzMzDG+u3HIrpHMRzok+NxObv0XbxJXsYq06XaNrqrjH95Rho2Y4HIu+7EdsnPxMP4NtaO7T1nVmlbDFPjEidI5dkYjkem6r5JuBG0O1elRtNqQ6Rwv2vNXgWu6HildH5q9ertvUR/bFo6rgNY04sC1fsfl4WWKsfzFcu3Cnq3295Bp2fapdm/sS3C3PSlfwI7ul7v+tx/J4fHfcvXbrlq2P1lpjH05Gzrp+rCyVWrv8AHa5HcPuRPeBIavy2N7JnUtO4LDY67lmwMmvXrsXeK5zvBqeHn7FQqWsM/pjVmk0yLqUGI1ZBIjHQ1I1SG1H4u8kXn+osHbxpy9m9QVtV4CrPkcTlK0TklrMWTgcjdtlROackT6dylZPQOQxGiE1Bm5EoPmmSGvRmYqTTJ4u28ETn1TwAu9dmM7Muz/CZaXE1MpqPONWaN1tnGyvGiIqbN89lT6VMrS9/HdrlXJYTK4fH0M7FXdYpXqcXd7q38FyePX3HTrvHWtcdl2jsxp+B92TFV3UrsEKcT4l2am/CnNfk/rOHYXgrumshk9X6hqzY/F4+nI1r7DVjWR7k22ai815frVAMTsdY6PQXaax6bObjuFU8lRHnX2bfeW7R/wCpD+1DI7JJlsaJ7Up3JsstBXqnlukimP2bfeW7R/6kP7UArmgtRaf03j7tm7hG5bPvcjajbCI6CNviqt6qvX3IbH0bkGdp8WWwmo9NUqcraj56l2tVWFYnt22Tdfb+owtCR2ML2LyZ3SONhv6hlurFakWFJpII0VduFvs4V/6i3djWU1zl8jds6smmixnor2wwzwthdI/lza3ZFVETx9aAUL4M0Uc+otQQzuVkUmLex7k6taq7KvuMGv2oUcNaSjiNKYd2BhXu+7nh45pmpyVzn/OXr0M74M0cc2otQRTPSOJ+Le171XZGtVdlX6EKPd0Bqavm1xkWHtzSOftFJFGropGr8lyP+TsqbLvuBPdtWmcdh8hicvgI+5xObrJaih8InclVqer4ycvaa3NvdvksOPpaQ0uyRslrD0EbZ4V34XuRqcP6lX3GoQBYtP5a7NkcFjnTOSnDbiVsTeSKqyIu6+aldJPTPLUmJ/O4v30Az9dsdJrfKxxtVz3WVa1qdVVdtkJy29unWYzTtZyLalninyEjfF3EnDH7EMPNZOPEdpt7IPgbZbDZc5I1XZFXbZF39S8/oMmrqLBXM1DLJp1vpM07VWVbLlVHK5PjFRE9o/3bZX8on7qFdiescrHom6tcjtl9Rce1G3Sm1FZgr0mxWo5f5Wwj1Xvfipty6IU+v3XpEXpHF3PEnHw9eHfnt9AVsTO42jrW4mUxeWrw25Y2pJUsrwq1yJtsi+RV9RUc7hKUONyiyJRRyyRNR3FGrvFWr9JKZPQ1qWZtjTTm38bKiOjekicTfU5PMy9To7E6Cq4XJ2GTZR1jvUja/jWBnkq/+9Qj4tKhpnE491jD/ZXI3YknesiKrImr0RETxMHVeKpy4Gnn8ZUfRZNIsM9V2+zHp0Vu/gpZLFzNZ3C4uzpa+qSQ12wWqrZEa5rm8uLZeu5W9Yrl62MrwZvM+kWZHcTqSO4u7ROiuVOW/qAksrDg8JgdP35MZFZuWaqL3Tl2Y5eW73ea+Gxg5apjc3pWbNYuk2hapytjswRruxzV6OQl9SYWTM6Z0u2i+N1+OkipA5yNV7F25t367L4eswLVVdLaGvUb740yeTkYncNcjljjau+67f8AvMChgAigAAAAAAAAAAAAAAAAAAAAAAAAAAAAAAAAAAAAAAAAAAAAAAAAAAAAAAAAAAAAAAAAAAAAAAAAAAAADsrxOnnjiZ8p6oiGzakDa1aOFibNYmxR9JwpLmI1XpGiuL8VAAAdlZEWxGi9OJC1lRRdlRU6oWCjfjnjRHuRsiclRfE0jOMDNIi0lVeqOTYzHSMam7nNRPaQeVuJYcjI/wCbb4+agR4AMqFZ1pTR9eO01PjM+K72FmMTLQpPjbMapvuxdvaBrMAEUAAHdUszU7UNmrI6KxC9JI3t6tci7oqHdlslczGRmv5SzJauTKiyTSLu5yoiIm/0IhhgCRyWbyWTp0amQuzWK1Fix1o3rukTV23RPcgrZvJVsNaxEF2aPG2npJNXavxJHJtsqp9CEcAJHCZrJYK4lvD3p6djbbjherVVPJfNCU1BrrU2oKvouXzNuxWXrErtmr7UTqVoAZWOv28Zcjt4+zLWsxruyWJytcn0oWPI9o2rsjRdTuZ66+u5OF7Ufw8SetU5qVIASWEzmTwU08uIuzVJJ41hkdEuyvYvVq+o2B2LXqdHBa8jt2YYHTYl0cTZHo1Xu4X8m79VNWgC10e0XV1LGto1s/eZWa3ga3vN1anki9UKvLI+aV8kr3Pkequc5y7qqr4qpwAFh07rTUWnIXQ4XLWqsDl3WJrt2b+ey8jCz+fyuobaWc3fnuzInC10rt+FPJE8CLAEvp7UeY07O+bCZGzSe/5fdP2R3tTopkaj1jqDUkbY81lbVuFq7pG9/wARF89k5EAAJLGZzJ4yneqY+7NXrXmd1ZjYuySt58nermp8o5vJUcXdx1O7NDRuoiWYGrs2XbpuRwAmNO6lzOnJny4PI2KTpNuPunbI/bzTopnSa91TJlfsk/OXVu92sKS95zRi9WonREXYrIAkcNm8lhH2H4m7NUdYiWGVYl242L1avqJjFdoOq8TjkoY/O3YarU4WMR+/Ankir0KsAO2zYmtWJJ7Mr5p5HK58j3bucq+KqdQAA+pyXkfAB9VVVd1XdT4AB9VVVd1XdT4AB2w2JoN+5mkj368LlTc63OVzlVyqqr1VVPgA5Me+Nd2Oc1fNF2PjlVy7qqqvmp8AE/qPNxZOhg4a7JI30KvcPcq/KXlzT3EE9znu3e5XL5qu5xAAAAAAAAAAAAAAAAAAAAAAAAAAAAAAAAAAAAAAAAAAAAAAAAAAAAAAAAAAAAAAAAAAAAAAAAAAAAAAAAAFj0QiLkbHqi/vQuhRtGyIzLOav4cap/eXkqABlUqb7TuXJidVAxTsZFI75LHL7ELDXowQomzeJ3mpkoiJ0TY0isOgsbc2P2OlzXN+U1U9qFuOD42PTZ7UVPWhNCpgm7eLY9FdB8V3l4KQz2uY9WuTZydUKOJ8eiKxyL02Pp03ZO5qTSL+CxVMq1evylPgBFAAAAAAAAAAAAAAAAAAAAAAAAAAAAAAAAAAAAAAAAAAAAAAAAAAAAAAAAAAAAAAAAAAAAAAAAAN0AADcAANwAAAAAAAAAAAAAAAAAAAAAAAAAAAAAAAAAAAAAAAAAAAAAAAAAAAGXi7Hol+Cbwa5N/YbLa5HNRzV3RU3Q1SXnSeRS1U9HkX+ViTb2oVE8WDDyRuqo1nJzeqFfOyCZ8EiPjXZUNItYMCpkopkRJF4H+voZyKipyVFA+gHXLNHE1VkejUA7Cu5aRkltVj8E2VfNTvv5NZEVkG6N8XeKkWAITVlpK+LdGi/HlXhT2eJNKqIiqq7Ihr/UeQ9PvqrF/ko/it9frMqiQARQAASOnIo58/jYpmI+N9iNrmr0VFcm6Fw1FncZi87doJpvGyxQSKxFVFRXIVLS33S4r86j/eQy9e/dll/wA4cVEnmsXjMpp2TO4CJ1VYHoy3UV3EjN+jmr5Fdw+GyGZmdFjaz53NTdypsiN9qryQsuj2uh0ZquzLyrvgbC1V6K9V5be9CUq16sXZtjI5Mr9jG3JpJJXpEr1lVFVEauy8tkRAKTmsFksK5iZKq+FH/Ifuitd7FTkc8Np3K5iN0mPqPkiauyyKqNbv5bqWmS1iK2jsnjJM4mRe/hlrMWFzVjenkq79TDixttcBj25vOR42g5FkrQK1XOc1fwuFu3X1gVnK4u7ibHcZGu+CVU4kR3RU80VOSkhU0nmrckLIKLl72FJ2uVzUTgXoqrvy9nUses44E7PsEsFxb7WWZGNsOYrVVNl5bLz2T+46tf37MWJ0zUimeyBcfHI5rV24ndOYFHmjdDNJFImz2OVrk8lRdlMzEYi/l5nR46s+ZzU3cqbIjU9aryQwVVVVVXmqlu0tlccunL2DyVmWj6RKkzLMbd+m3xXJ125BUHmcFksMrPsjVfE1/wAh+6Oa72KnI7MPp3K5iN0mPqPkiauyyKqNbv5bqTGcxmRpab3q5SLJYLvkVXRr8h/hui80OyPG21wGPbm85FjaLkWStArVc5zV/C4W7dfWEVnK4u7ibPcZGu+CVU4kR3inmipyUz6ulc1ZlhZDScqywpO1yuajeBeiqu+yezqWLWscKaE0+sFxbzWTzMbYcxWqqeWy89k6HX2g3bDMXpmpHI5kK46ORWtXbd223P3AVTMYi9h7CQZKs+CRybt32VHJ5oqclMnD6ay2YhdNQqOfCi7LI5yNbv5Iq9Sbzs0lrs1wc1hyySxWZYmvdzXh8jv7TJpKU+KxdV7o6MFON7GtXZHOXq71ryAqGXxlzE2HV8hXfBMib7O8U80XopedcacvZXUrG4imjo2U4VeqbMaiqi+K7JuU3I5m5fxVWlbckkVXi7p7k3eiL4b+KFr7WL1j7N06zZXthjqRuRrV2TdU5r+pAKdk8fbxN11bIQOhnZsqtd4p+xUJfVTcnf1DXgu0Iat6SOOOOGHZEci8mr125kjrWR1rSWlLU6q+dYZI3PXqqIqbbknq376WG/q1P2gVivo7PWEn7rHvXuXqxyK5qKrk6onPn9B1YzS2ayccj6lCRzWOViq5UZ8ZOqJuqbqS2psnc/yjTuSeRqw3Wxxo1yojWo5E2Ofadfst1tYbHM9jYODu0YqojeSLv7d1AqNqtNVsyV7MT4543cLmOTmik5DovUE1ZJ2Y5/C5OJGuc1HKn9VV3LldrQ3O1rEekNaqSV45nb/hPSNVT9aIUTNZnIS6htXX2JW2WTOVuzlTg2XkiezYCKdDKydYXRvSZHcCsVPjb+W3mTkmjc/HVWd2Ok4EbxK1HNV6J58O+5ZNXXYcVrbB5iWFHPkrQ2bEaIibu5oq+36j62nFlM4/I6W1HtkJXukZXsorH7rv8VF6L7AKzpCW9Dbu/Y6lDbkWrJ3jZUReBni5N1TmhG0cXdv1bFmnXdLDBwpIrduXEuzeXVd18i2aBbOzUWfbcbw2UoWe9RU22dy36es5aAtzUdH6ps1uU0cUStVPBeab/RvuBBXdJZylRdbsUHtham71RyOVietEXdDBwGKmzWVho1lRrpN1c93RjU5q5fYhO9nOQtM1fTi7x8kVpyxTMcu6PaqLvvv7zJxULKUmtm1PlwQSRxKnVGd6iLt9AHWk2LrTPqYHBpl3xfzlmy1z+JU6qjU6IfIG4nNvirW8YmGtTqrILMXEkTnou2zmr6+W/gdi2bWM7O8bNiHyQusWpUtyxcnbp8lqqnhsZGsVu3dN6RfZY9bkve7/ABdnOVXN2VfWqbKBTLVCzWyUtCSJy2o5FiVjU3VXb7bIStzSGcp1Fs2KD2xIm7tnNVWp5qiLuhdqDYpO1XJSNRslitTVzE67zNjai/TvuULHZbJJqCG22aV9x86boqqvEqrzaqeXhsB0zYTIQ5luKkrK2+5UakXEm6qqbpz326GbX0fnbFeWaLHvcyNzmqnE3dVauy7Jvz5p4FtzH36635aH+GhBy5S47tK73v5EcmR7pERy7I1JOHbby2Ai8bpXNZKss9ShI6JFVEVyo3iVOuyKvMiXVp2WlrOielhHcCx8PxuLy2LVrPI226/sqyeRvo9lrI0a5URqIqdEJLUlTIWO1OZuE4WXeFkqSLtsz4ibuXcCvT6Nz8NV1iTHSIxreJyI5quRPPh33OOi5b8WXkXF0obthYHoscyIqI3bmvNU6Fp0zVqw6tpzP1Qlq86fZ0Ucb1SRV6t4t9tl9hx0axsfabmmMRGta22iInhzAidFRxy4DVz3xsc5tJHNVW/JXd3TyKeXHQn3Oaw/MG/tcU4Kz8RiL+YndFjaz53tTd23JGp61Xkh3ZrT+TwqMdkaroo38mvRUc1V8t0LHamkx3ZfjfQnLGt+zItl7eSrwqqI1V+grdfN3YsRaxvGktSwqOc2ROLhVPFvkoR8w2CyWaV/2Oqvlaz5b90a1vtVeR8zOEyOGkY3JVXw8fyXcla72KnIs+qpZMfonTFOm90cFmF1iZWLtxv5dfZufMHNJkezvUFe650kVJ0c0DnLvwOVeaJ/74gVujgcnerQ2KlR8sM0qwMc1U5vRN1Try5ePQ77uls1Tt1601CXvbC7RIzZyO+lOROstzVeyViQPcxZsi6NytXZeHh32/UdmKyNuPsuyitnfxNuNia7fm1rkTdEXw3/ALwK1mdOZXDQsmyFR0cL12R6ORzd/LdFIguumpZLGg9UwzvdJHG2ORiOXfhdv1T3FKChcNOY3H4/T8moc3B6VGsnc1aqrskj/FV9Sf3FPLrnEWbsx0/LFzjhsSRybeDl323AVtWYy3MlfLafxzaT14VdXYrHxp5ovjsYWZoRaS1SiLBFfpqzvYWzJu17HJy39n9xV9t+SdVLr2losS4CtL/pEOOjbKnii+ShExgcljMlhM5ek09jWPx8KSsajOTlXfkvuKjl81Wyra0MOIpUVbKjlfAi7uTpsvqJbRX3H6x/NG/tUp1f/SIv67f2gbG1llsbg89JQi09jZmRsYvE5myrum/gQupqGOu6aq6hxNb0JHTLXnrIu7Wu25K0sOvqWm5tSzSZXK269pWM4o44eJETh5c9ir6mzdB+Gq4PBRypj4JFlfLL8uV/nt5cwK1BE+eeOGJOKSRyMam+26quyGzbGHyuD0XSjx2PgS3I2R9+V6Ruc1PLdV8vLyNXoqoqKi7Khc9VyyfaVpJeN27oZd+fX4yAVvDYa/mJXRY2s+dWpu5U2RGp61Xkh25nT+UwzWOyNR0Ub12bIio5qr5boWO/LJjuzHEMpOWNL9iR1hzeSuVqqiIq/QnuGiZpL+ntS4+290lRlNbDONd+B6dFT/3wArlDT+UyFeCenUfLFPKsMbmqnNyJuqdeXJOpi5XHWcVekqXWJHOxEVzUci7bpunNC3Jdnqdk1dK0jo1myD43q1dl4eHfbf6EKQ9znu4nuVzvNV3CsqhjreQbYdUhWRK8ayy7KicLU8eZwxtGxkrsVSlGstiVVRjEVE35b+PsLR2d/wCjal/5a/8AaY3Zjz1zidvnP/ccEQNTH2rd5KdWB8tlXK3u2puu6dSQyml8xi6vpN2k5kCLsr2ua9Gr69lXYlNMZmpiM/lm31kjgttlgWaL5cW7uqGW3EWosdkJdMZ2PI1nRL6RBttJweO7V6+0Cp4rGXctaSvjq755tt9m+Cear0QyszpzK4aNkmRqPjicuySIqObv5boW3TENaLs3tSvyCY51q53UlhI1evCiJs3lzTc+Yyxhsfh8tSsah9OgtQKjIVgcnDInRyKqrzAqNDT+UyEEE1Oo+WKeVYY3NVObkTdU68uSdTkuncp9lJ8clbitwRrLIxHt5N2Rd999vFCxem2KnZNVbXkdGs2Qex6tXZduHfbf6EOPZRM9uorsqqrntoyu3dz6bAQ6aQzq0EuJj5Fh4OPZFTi4fPh33IapWnuWWV6sT5Znrs1jE3VVLHoPJXH63xsr7EjnTzbSbuVeJFRd0UyMdTyLtZ5lMLOymkL5llsP2RsUfEu//qARmR0lm8dUfZtUHthYm73Nc13D7UReRHUMZcyENqWnA6VlZneSqip8Vvs8foNiaBp0YNQ8MOoPT5JYZGvrpE5GvTh57qq+HUiOzyeSnitWzwLwyRUuJi+SoqgQOR0rmsdSS3boSNg3RFVFRytVem6Iu6HKzpLOVqDrk2PkbA1vE7miuanmrUXdCd7ML9lt3MIsz3tSjJLs9d0427Ki8/E6+y+5Zm1arJp5JG2IJUlRzlXi+LvzAqOPo2cjaZWowPnnf0YxNySy+l8xiK/pF+k9kG+yva5HI1fXsvItGh4YINI6htLcShIsra/pKMVyxs5dETnz32OzTVjC4h9xlrUiXKdmF0UkDq70RVXovNV5ga4B9VERVRF3Tfkp8IoAAAAAAAAAAAAAAAAAAB30rMlOyyaFdnNX3nQANk4nIxZGukkaoj0+UzxRTONX07U1SZJYHq1yfrLjitSV7KIy1tDL5+ClRPnYyaVnyHuT2KdLHte1HMcjkXxQ5Ad6251TZZXe86XOc5d3Kqr61PgAAxrd2vTZxWJWs9XiVPM6jkso6KoixxLyV3ioGVqfNpwup1HbqvJ70/YVM+rz6nwigAAAADMxFttHK07b2q9sErZFai81RF32LVks9pXIZCe7Zwl588z+N/8AnOyKvsQpIAseotTLk6UOOo1I6GLidxNgjXfid5uXxOeC1DVhw78Rm6TrmPWTvY1Y/hfE7x4VKyCix5XL4hMXJQwmLWFJXIsliw5HyKieDfJDMTUOIyOMo19QY6xLYpRpDFNXl4OJidEVCoAC0ai1LXymnKOLr0fRUqzOe1Gu3bwbKiJ5qvmph6mzUeYixLYoXxLSqNrO4lReJU8U9RBggE/g8tjYMdNQzGNSzC9/GyaJUZLGvki+XqIAAWbJ5+kzAyYfB05a9WaRJJ5J38b5FTonkiGT9sOIyWMowZ/HWJrNKJIY5q8vBxMToioVAFFn1HqSvlcBj8bXpeitqSvc1Gu3bwLyRPPfzXxMTU+ajzEeKbFC+L0Oo2s7iVF4lTxT1EGCCbtZmObSVLEJC9Ja9h8yyKqbKjvDYk49R43I4upU1JQmnlqN4IbMEnC/g8Gu36lRBRO6kzUGRrVKOOpJToVUXgYq8T3OXq5y+KjWWbiz+Wjtwwvha2BkPC9UVd2ovMggQTmYzUd/T+Gx7IXsfRa9HPVUVH8S+Bm5rUsOQ1dRzDK8jIq6QosauRXLwLz5+sqwAlcrk2XdTWMoyNzI5LPfoxV5om6Ltuc9W5aPOags5CGJ8TJeHZjl3VNkRP7iHAFkzmpnW9Q0srQjfBJViiY1HrvurP7lJCfPaZuXvslcwtj01VR74o5tonv81QpYKJ65qSe7qZuXtQQy8LkRK703ZwJyRnuJSDPabp5FuTpYa024xyvZE6dO6a7z22329RTQBZMJqX0PNZXI3YnTSXoJYlRi7bOf4+xCX0Db+x+ktT2e6ZMkbYeKN6bte1VVFRfaiqUQyYL1mvUsVoZnsr2NklYi8n7dNwLVQ1Hg8N3trCYqdmSexWsfPLxth38WkJpzMri8utqwxbEEzXR2Y1X+cY75X0+JDgC/42nkKaTP0dla1mjP8ZYJXta9nkjmu5bp5mHkMrqbAxI25chc6d7ntRXslfG7xcnXh+gpwCJfTMuSfqStLjJU+yLnq5rpHbI9fFFVeu/Mta5G7PmUjp6WhqZp8nC6yjHLwqq83JvyTx5mvWOcxyOYqtci7oqLsqE07VmedXWBcpaWNU2X4/Pb29QJ7VeXgo9qb8iiLPFVlj4msXmqtYiKiL7SsrkmLqZcp3bu79M9J4N+e3Hxbe0jFVXKqqqqq81VT4FSueybMlqO1ko43Mjmm71GOXdUTlyJuXWXDrWTOVqq91JGkL4JHc1bwoi809hTwQXShqHT2IycF7FYewkrXoru+m4kjb4oxPP1r0MTC6mhx+rchl315HxWUmRI0ciK3jXdN19RVgUTmns1HisXm6skL5HZCskDHNVERipvzX3nVj72OgwmQq2sek92ZU7ixxbd1sRAILLgNQ162JmxGZpuuY2R/eNRruF8T/NqnLI53GxYabG4Gg+COdyLNPO9HyPROiJ5IVgFFpxeoaUmEjxGoKUlqtC5XV5Yn8MkW/VN/FDjmdQ1HYRMPgqb6lJz+8mfI/iklVOm6+RWABOSZqN+jYcKkL0lZbWysu6cKordttvM+VczHDpG7h1hess9ls6SIqbIiJttsQgIJzDZqPH4HNY98L3vvsa1r0VERmy+Jk3qNOroPG2liT7I3LL1STfmkbeX1FaO+e3PPBXgmlc+Ku1WxNXoxFXddvpKOgsWmdRpiq9mjfqtvYuzzkgcu2zvnNXwUroILnWy2k8bM23SxVyxZYvFGyxKisY7wX1lZzOSs5fJT3rruKaVd126IngiepDCAE9gc5FjMJnKMkL5H5CFImOaqIjFTfmvvISJ3BKxy80a5F9ynAATesczHns7LfhifCx7Gt4HqiqmybEIAAJzM5mO/gMLj2QvY+gx7XPVUVH8S78iDAFlwWoa0OHlw+apuuY9z+9ZwO4XxO82qdt/UVCthbGL09SlrR2VT0ieZ/FI9E/B9SFVBROTZqOTR1fDJC9JYrbrCybpwqitVNtiDAIJrSmb+wWTdO+FLFeWJ0M8Srtxsd1QnsRqXT+Cy0NzFYmyrkVeNZpUcrWqi8meS77c/Io4KJzDZirTyVyS9j47lS1xI+N/ym7qqorV8F5knDqLE4ivb+16hZjt2Y1iWazLxcDV6oiIVAEFh01n4cdRtY3J1PTMXZVHOiR3C5jk6Oavgp33cxg6+Os1sJintmsJwusWnpI5jf8AhTwX1lXBROT5mOTR9bDJC9JYrTrCybpwqioqbbfSfdH5uLBX7NiaF8zZaz4ERioiortuf6iCBBI6cvsxObo3pGOkZXkR6sauyqS+L1PFTzmWszVFnoZLjbNArtncLl35L5lXAF4wmqMFgcik+LxNjhc1zZHyyo5+ypyRvgib7b+whcBnIsZjs5WkhfI7IV+5Y5qoiMXnzX3kCCic0pmo8JYvSSwvlSxVkrojVRNldtzPmj8zHgc3HemifMxrHs4GLsvNNiEBBP6b1AmJkuQ2ayW8dcThnruXbfnyVF8FQzX5rT9GvY+w2HkWzM1WJJcekiRIvzU8/WVMFEvgb2OpR3kyWPS46WFWQqrtu7d87/3yFC9jocFfq2cek16ZUWGzxfzSIRAIJd97HLpplJuPRMkkyvW3xdW+WxEAAAAAAAAAAAAAAAAAAAAAAAGTWvWay/yEz2epF5EnFqa+xNnLG/8ArIQYAsC6quqn83An0L9ZiWM/kJkVO+VieTU2IoAc5JHyuV0jnOcviq7nAAAAAAAAAAAAAAAAAAAAAAAAAAAAAAAAAAAAAAAAAAAAAAAAAAAAAAAAAAAAAAAAAAAAAAAAAAAAAAAAAAAAAAAAAAAAAAAAAAAAAAAAAAAAAAAAAAAAAAAAAAAAAAAAAAAAAAAAAAAAAAAAAAAAAAAAAAAAAAAAAAAAAAAAAAAAAAAAAAAAAAAAAAAAAAAAAAAAAAAAAAAAAAAAAAAAAAAAAAAAAAAAAAAAAAAAAAAAAAAAAAAAAAAAAAAAAAAAAAAAAAAAAAAAAAAAAAAAAAAAAADJ9Btfi8nuHoNr8Xk9xj7jcDI9Btfi8nuHoNr8Xk9xj7jcDI9Btfi8nuHoNr8Xk9xj7jcDI9Btfi8nuHoNr8Xk9xj7jcDI9Btfi8nuHoNr8Xk9xj7jcDI9Btfi8nuHoNr8Xk9xj7jcDI9Btfi8nuHoNr8Xk9xj7jcDI9Btfi8nuHoNr8Xk9xj7jcDI9Btfi8nuHoNr8Xk9xj7jcDI9Btfi8nuHoNr8Xk9xj7jcDI9Btfi8nuHoNr8Xk9xj7jcDI9Btfi8nuHoNr8Xk9xj7jcDI9Btfi8nuHoNr8Xk9xj7jcDI9Btfi8nuHoNr8Xk9xj7jcDI9Btfi8nuHoNr8Xk9xj7jcDI9Btfi8nuHoNr8Xk9xj7jcDI9Btfi8nuHoNr8Xk9xj7jcDI9Btfi8nuHoNr8Xk9xj7jcDI9Btfi8nuHoNr8Xk9xj7jcDI9Btfi8nuHoNr8Xk9xj7jcDI9Btfi8nuHoNr8Xk9xj7jcDI9Btfi8nuHoNr8Xk9xj7jcDI9Btfi8nuHoNr8Xk9xj7jcDI9Btfi8nuHoNr8Xk9xj7jcDI9Btfi8nuHoNr8Xk9xj7jcDI9Btfi8nuHoNr8Xk9xj7jcDI9Btfi8nuHoNr8Xk9xj7jcDI9Btfi8nuHoNr8Xk9xj7jcDI9Btfi8nuHoNr8Xk9xj7jcDI9Btfi8nuHoNr8Xk9xj7jcDI9Btfi8nuHoNr8Xk9xj7jcDI9Btfi8nuHoNr8Xk9xj7jcDI9Btfi8nuHoNr8Xk9xj7jcDI9Btfi8nuHoNr8Xk9xj7jcDI9Btfi8nuHoNr8Xk9xj7jcDI9Btfi8nuHoNr8Xk9xj7jcDI9Btfi8nuHoNr8Xk9xj7jcDI9Btfi8nuHoNr8Xk9xj7jcDI9Btfi8nuHoNr8Xk9xj7jcDI9Btfi8nuHoNr8Xk9xj7jcDI9Btfi8nuHoNr8Xk9xj7jcDI9Btfi8nuHoNr8Xk9xj7jcDI9Btfi8nuHoNr8Xk9xj7jcDI9Btfi8nuHoNr8Xk9xj7jcDI9Btfi8nuHoNr8Xk9xj7jcDI9Btfi8nuHoNr8Xk9xj7jcDI9Btfi8nuHoNr8Xk9xj7jcDI9Btfi8nuHoNr8Xk9xj7jcDI9Btfi8nuHoNr8Xk9xj7jcDI9Btfi8nuHoNr8Xk9xj7jcDI9Btfi8nuHoNr8Xk9xj7jcDI9Btfi8nuHoNr8Xk9xj7jcDI9Btfi8nuHoNr8Xk9xj7jcDI9Btfi8nuHoNr8Xk9xj7jcDI9Btfi8nuHoNr8Xk9xj7jcDI9Btfi8nuHoNr8Xk9xj7jcD4AAAAAAAAAAAAAAAAAAAAAAAAAAAAAAAAAAAAAAAAAAAAAAAAAAAAAAAAAAAAAAAAAAAAAAAAAAAAAAAAAAAAAAAAAAAAAAAAAAAAAAAAAAAAAAAAAAAAAAAAAAAAAAAAAAAAAAAAAAAAAAAAAAAAAAAAAAAAAAAACQp4e9bTeKByN+c7khKRaTsuT+UnjZ7E3ArYLQukZNuVtqr+T/8AJiWNMXo0VY+CRPUuylEEDus1Z6z+GeJzF9aHSQAAAAAAAAAAAAAAAAAAABJ4LAZXPzTxYWjNckgiWaVsSJ8RieKkYAAAAAAAAABI4zCZPKU71vH0pbFaizvbMjNtom8+a+5RSwuSvYy7kadOWajSRFszN24Yt+m4EcAAAJHDYTJZt9hmJpy23V4lmlSPb4jE6uXfwI7qAAAAAAAAAAAADcAAAAAAAAAAAAAAAAAAAAAAAAAAAAAAAAAAAAAAAAAAAAAAAAAAAAAAAAAAAAAAAAAAAAAAAAAAAAAAAAAAAAAAAAysbSkv2mQxJ16r5J5gfcdQnvzpHA3fzcvRC64rA1aLUc9qSzfOcnT2GbjqUVCs2GFuyJ1XxVTKKgiIibIAdkUMkzto2q5fUB1gyn0LLG7rGqp6jFVNl2U0OueCKdismja9q+Dk3KrmdNKxHTUOadVjX+4twMjVLkVqqjkVFTqinwuep8Mk8brVZu0rebmp+En1lMIoAAAAAysVRlyeTqUK3Ck9mVsLONdk4nLsm6+XM2BU7GtSzZC7UnmxlT0aVIe9sWOFkz+FHbR7pu7ZFTddupU9B/dvgPz+H99C0/CEv2bfapl4p5XOjqd3FC3fkxvdtdy+lVUDEj7KdUu1DaxE1WCs6qxJJbU8qMro1eio/wAd9l5deRja47Oc5o+nXu3vRrWPnXhbaqSd4xHeSr4F17acrdn7N+z2GWw9zLFRZZt1+W5qNRqr57IqmNpeV8/wb9WxSuV8cF+LukVd+HdWLy+kCi6K0VmtY2Zo8NAxYoE3msTP4Io/a7z9RO5/sk1FicTNkoJKGUqQJvMtCfvHRp4qrdunsLJqR78L8HPTUOOc6NuVtuktvYu3HycvCq+XJE+ggvg95CzT7T8ZWgc/0e6j4J4kX4r28CrzT1KiAUrTWAyWpctFjcNWdYtSc9k5I1PFzl8E9ZdrvY5qOGvO+lZxOSngbxS1qdpHyt9jduZJ6N1Dh9Ddp+raWRSWLFW3T0e+gTd0Ccaqiptz28OXqO3GdnViO59lOzHWNLI24UV0cbZO5so3bmmy9fp2QCqdl1PVNnJ5aLSN5KFqOm91pXvVnFEi806Lz3InSmk8nqqtlZ8X3Kpjq/pMySOVHObz5NREXdeS8jY3YAtpdY6uXII9Lq4yx36PTZ3ecXxt/XvufPg3W5aFLWlyuiumr4tJWIidXNR6p+tAIah2Lant1mOWfFQXXs420ZbSJPt5K1E5L6jXuVx1vE5GxRyUD69uB3BJG9Nlapx+yFxMh9kUsy+ncffd/wAS8fHvvvv57m4+3SpDk9WaJuWGJFNlaUCWvBeb0TdfocvuAqGmOyvUGexMeUV1LG4+X+amvzd13iebU67esi9baFzejnwLlYopKs/81arv7yJ/q4vP1Fu+Eldndr5MUnFHj8fVijrwpyY1FaiqqJ9O30FGZq7LR6Pn0y6ZkmKklSZI5G8TmOTZfir4JyAkNFdn+d1fDNZxscENGFeGS3ak7uJF8kXxUzNV9l+f05iXZR608hjWrs+xRm71sf8AWTqiestXa/I/FdmfZ/h6LnR0Z6a2ZkYuySybNX43nzcqnR8Gy1LLq2/hZeKTGZCjKk8K82ck5KqefVPpAdjP3v8AtL/5Yn7rzh2bfeW7R/6kP7UMnsnibBovtThYvE2Oi5iL5oneIY3Zt95btH/qQ/tQCk6L0XmtY2Zo8LXYscKbzWJn8EUflu7z9RP6h7JdQ4fDz5OKXHZKpXTedaM/eOiTxVU26IctDac1JmdH31ZmoMNpRZv84ltSqyOWTlyRETdy8kNj9ienMJh89k2Y3WFPMvnoyMlpQQPYit5fGVVXZdv7wKd8HZFXKaqREVVXDTbIhGYfsb1LkKUMj5sZTszMR8dOzZRszkVOW7URdtyb+DLM6tqPPzsbxPixb5Gt81Rd0T9Rqe/krlzKTZGxYlddkkWVZVcvEjt999wOzO4i/gcrPjstXfWuQLs+N36lRfFF8zANxdvK/ZDTmgs3ZTbIXMdwzuX5T9kaqKv0qvvNOgC5aRp4Ou7Hz5V3p1y5M2OKm35MaK7h4pF/WiFNJPTH3SYn87i/fQoyNa14aurMpBWjbFDHMrWsamyNT1ExorGU4K32ZzMLZoHypVq139JpHKiKvsRFPmcxb812nXcfG7hWa0qK7yaibqvuRSazuEzlzUWPjqYmxFiMe9kVdN27cCOTd68+q9Qipa8rQ09W5KCrEyKFkiI1jE2ROSEHEzvJWM3ROJyN3Xw3Lb2n425W1Pcuz13sq2ZdopF22fs1N9iosa5z2tYiq5V2RE6qoVsPUN+ho+63EUMLSsyRRtWaxbZxrKqpvunqIDU0+EyOOrZDGxspZFzlZYpMReBP+NvLb6PWZ0eslkgjp6mw9fI9ynAj5EVkzU8tzq1Lh8VLpuPP6fSaKBZe5mryrv3bvUv/AL1CIfC6by2ajfJjqb5ImLssiqjW7+W6qYuVxl3E2lrZGu+CZE34XeKeaL0U2Hqqpj24rBUZc59jYI6bJGwtgc9Hq5OblVFQhtUXsXNo6lQjyv2Sv1JlVkixOYvdr+Dz8uQEFW0vmbLqyQ0Xu9Ii76N3E3ZWfOVd9k+kx81g8jhZGMyVV8PHzY7dFa72KnItmuLtmHSOlasT3MglqI9/Cu3EqbIiL7zoxU0mQ7M83FccsjKM0cldzl3Vqquyoi/+9QKQACKAAAAAAAAAAAAAAAAAAAAAAAAAAAAAAAAAAAAAAAAAAAAAAAAAAAAAAAAAAAAAAAAAAAAAAAAAAAAABfdL49KdFJHp/LS/GX1J4IU/D1vS8lBEvyVduvsNkoiIiInRCo+gADkxqve1qdVXYs9aBleJGMT2r5lZgdwTMcvRFRS1tcjmoqc0XmaSX0h83WajUmYmy77OJgjs3IjaqM/CcoECADKhQdUY9KV/jjTaKX4yepfFC/EPqmqljEyO2+NF8dAKAACKAACX0jbgoaqw9u2/u68FuKSR+yrwtRyKq7JzJjtcy1HO9omayWKnSxSsPYsciNVvEiRtReSoi9UUqAA2L2l6hxeY0doeljrSTWcdTfFaYjHJ3bl4dk3VERei9Nz7pzUOLqdi2qMHYtIzKXLkcsEHA5eNqcG67omydF6qa5AG0dFapwGT0PJovWss9WnHN6RRvxN41gcvVHJ125r7/YS2n7ehuzaWfM43Ny6jzqROZTjZXWKOJXJtxOVf/fUaYAF00RldOT5nJ/b3UksQ5FHKlyLdZK0rlVVeieKc/wBhcNJwaC0RnINRt1dPlpKiufXp16jo3vVUVE4lXknXpyNNgDbPZnrXGVtb6tzWdnZRZlKk6RtRjnJxvdujfiovvM34OFtMdS1pckhbO2vjEldE5eT0aj1Vq+3bY0yWvROsJdLUM/WiqMsJlqi1HOc5U7tFRycSefygLVQwPZjZtNyk2qLdehv3jsVJVd3rfHu+NN0VPDcr3anrP7cdWJkKcb61GrG2CnGvJzGNXdFXyVV5+4pYA3PmMto3tNp0LuoMvJp7UdeFsFiR0CyRWETxTbp4+XXbmV7WV/SGJ0m3TulE+ytySVJrWYmgRjtk/Aj3TdE5J/53NcgDbOG1HpnV2hsfprWtyfGXcUqpRyLI1kbwL+C5E5+r6E5mZjszpHs1xOTk0zlpc9qS7CteKwkKxxV2r1Xn1Xx8eidDTQA2P2Z6ixeH0frqnk7aQ2slR7qqxWOcsr9nct0RUTqnXY46I1Di8b2X62xV20kWQyDYkrRcDl7zZU35omyfSqGugBtfSWf03nOzVNGaovzYh9a0tmrcbGsjHKqquzkT+sv6uZYOzjM9n+g81ZjgzMuQnsVXtkyT4HsjZ02jYxEVVVV5q5fJDRAA2Z2E6oxek83l7mYsNha+g5kLXMc5JJN90b8VF232MithezXMWvsrNqW1iq0ju8mxclZXPYq81Yx6bord99l67GqwBeu1rWVfVuaqMxUL6+FxsCVacb+S8KdXKnhvsn0IhRQABl4m02llaVt7VcyCZkqtb1VGuRdk9xiACWz+WW/qK7k6fe1++kV7PjbOai+tDhSzV6C7XmkuW3sjka9ze+dzRF3VOpGACa1Zmlzmas22LM2tI/ijikdvwckTp0IiGR8MrJYnK2Rjkc1yeCp0U4AC8Ws/pvOObZz2NtR5HhRJJaj0Rsu3iqL4kbqTUVa5jK+Iw1NaeLhd3nC93E+R3m5Ssgot1PUWLu4irQ1NQmsLUTggsV38L0b81fNCO1DlqFutXpYjHNp04VV3G/Z0sir853l6iCAGy9QZDHwae0vUzFJ9mpJRSRHRO4ZI3Jsm6L5KnVCuZ7UNOTCx4bA031Mej+9ldK7ikld4br5EBbvWrcVeOzO+VldndxNcu6Mb5IYwQABFAAAAAAAAAAAAAAAAAAAAAAAAAAAAAAAAAAAAAAAAAAAAAAAAAAAAAAAAAAAAAAAAAAAAAAAAAAAAAE/ouNH5V7vmRqv69i8FL0QqJkZ084v70LoVAAADOpZF9dvA5ONngnkddehPNsqN4W+bjNZh/ny+5DSOT8w3g+JGvF6yLsTvsSK+Rd1/YSq4dnhK73HRLiJGp/JvR3t5ARgOyaGSF20jFap1mVDqtR97VljXo5qodpxkXhY5V6IgGq16nw+r8pT4RQAAAAAAAAAAAAAAAAAAAAAAAAAAAAAAAAAAAAAAAAAAAAAAAAAAAAAAAAAAAAAAAAAAAAAAAAAAAAAAAAAAAAAAAAAAAAAAAAAAAAAAAAAAAAAAAAAAAAAAAAAAAAAAAAAAS+lZkhzMW68norDYBquGR0UrJGLs5q7obMoWW26kU7F5PTf6SoyCZxFJqsSaVEVV+SikMSuKvIxEhmXZv4K+RpE0D4nPofQAAA4SxMlYrZGoqKVu9XWtOrOreqL6ixWJ2QRq+Rdk8vMrduw6zMr3fQnkgHSYWZmSvi7Mir0YqJ7VM0q2tbuzI6jF5r8d/wDcZVUQARQAAd1SvJbtQ14E4pZXoxib7bqq7IWV3Z/qFFVPRIlcn4KTs3/aRGlvulxX51H+8hna7lkbrLLcMj02sO22cqFRE5TGXcVZ9HyNaSvL1RHp1TzReimGXzG25NQ6Dy9XIOWafFtbYryu5uRvi1V8vrIzC4XGw4Jc1qGSdKr5Fir14NkfKqdV3XoiAVYFsyeGxN7AT5fTj7LW1XtbZrWFRzmIvRyKnVDHxkGm62Kis5eezbuSuX/Nayozu0T5yr4r6gqtgsupsLRrYnH5jDSzOoXHOj7ufbjje3qm6dU5EtewenMNSxVzJvuyrbqMl9HhcnEr16u3Xo3w2AogOydY1nkWFHJErl4Ed1Ru/Lf6CyaewtCTAXM3mHWH1IJUhbBX2RznLtzVV6JzIKuCwZmDAS4xlvCz2IbCP4JKdheJdvnNcngdmNh03WxUVnLz2rdyVV/zasqM7pE+cq+K+oorYLJqfDUauMx2Ww8szqF1XMRk+3HG9vVFVOpK5HCaewtPFW8i67N6XUZL6PE9EVXrzVyuXo3wRAijAs+qsNj62Lx2XwskzqFxXMWObZXRvb1Tf3mY7C4TA42lLqL0uxfts71tau5GJGxeiuVfEKpirsm5J6hw1jBXmVLb43yOibKixrumzuhlamx2LhqVr2Etukq2EVHQSqnewuTwXbw9Zc9fswUGbr2M36XYkkqRNZBXVG8KIi/Gcq+fgnqCNYIm6onmSWoMPNhLzatiaCZ7o2ycULuJNl8PaSGsMLUxrcfdxUskmOvxd5EkvymKnVq+8zM9p2lR1tjsTCsy1bCQK9XP3d8deey7BVQBfLOJ0pjs/NiLj8hLK6bu0ljciNh3XZqL85U8VOq/htOaeyTsfmpb1uwrt1fXVGtiYq/F336u25qEUgFny+lZK+sI8LRkWVs6sdDI5PwHJvuvsTf3GfZqaOo5BcbO/JTPY7u5LjHtRrXdFVG+SKFUkFmt6Ulg1hXwiTtVlhzVin25OjdzR23n1M+elpCLJTYuZ2SrSRudGtyRyK1HJy3Vm2+26AV3A4ebMzWIoJoIlhhdMqzP4UVE8E9ZGFk0nhamUyeTr2JHSRVqk00b4ncPErdtl9i+R36O0/SzWGy9q9O+utRI3JKi/Fa1d+JVTx5Jy9YRVAXfFYrTGfkfj8W6/VyKtVYJLDmubKqJvsqJ0I3SGOhTK3LOVi4q2LidPNEv4bmrs1v6QViY7TGYyMDZ61J/cO+TJI5sbV9iuVN/oOrK6fyuKiSW9SkjhVdu9RUez9JFVCekiXOUn5zU+VkqVZJFhrRxs491TqjW9Eah3KyXSMWKuQX0yGPyPGksKp/JyRoqJ0Xx2d9CoEUYFul0olnXU2HqSd3V377vF58EKtR2/uVEOb6ukrVxMdRkyEMqu7uO5K5Fje71t6oi+YFOBcshpujX7RocGxZvQnyRsVVf8fZzUVee3rMmPEaVizj8LYkvvtOnWFtljkRkblds1u3VduSKvmBRAXaTEaaxGU+xOXlvWbnGjJJoFRscSqvJNl5ryVNyJymBhxurpMTbuthqsem9l6dGKm6Lsnj4BVfJPT+Hmzd51WvNBC9sbpFdM7hTZPD2ljo0NI5TJsxVJ2TjnlcscNp7mq1z/DdvkphaU07Df1TcxWSV+1eObdYncK8TOXuAicXhrGSqZOxA+NGY+LvpUcvVN16e4jC5aE56c1h+YN/a4ppABacFg8ezBSZvUEs7aayd1BBBsj5nePNeiHzJUMDdw817BzTVrFdU7ypaeiq9q+LF8dvIoq4Lbj8JisfgK+W1G6y/0typWq11RrnNTq5VXwPmWwmMtaffmtOvsJFA9GWa06oro9+jkVOqAVMFwxWCxDtHx5rKS2GcNtYnsiVN5G7cmtTwXfx8kUy1wOnLuG+zdSxdq0K71jtQP2fIrtk2Ri9Oe6dQiiAuFzEYXI6au5TAJchlouak0NhyO4mry3RUKeRQzcTi7uXtpWx1d88ypuqN6Inmq9EQwi8unfguzWo6k5YrWWnd3sreTu7bunCi/wDvVSjCsaBzsULpGRV51am7o4Jke9PoIDGYy1ksg2lVjRbLt9mvVG9Ou+5wx9+zj7kdqpM+OeNyORyL+3zLR2lRRrlKGUrt7r7I1GWHo3ls/bZf7gjpTs/1CqKqVoVROqpO3l+sjszpjKYaGKW/FGxkr+7bwytdu76Cc0W966Q1gqvcqpVbsqr05qU6F73WIUc5ypxt6rv4gWd/Z9qBqoi14d1Tfbv2/WQOXxN7D2fR8lWfBIqbpxc0cnmipyUsnam+RNZ2UY56J3ce2yr81DJzffr2X4z7K8fpXpa+jd78vutl3689v/AFDJ6jpmzYw32Uns1KdRyuSJbEnCsqp4NQha6xJPEthHLDxJxo1dlVu/Pb17GxtUSYFNHYBHV7/cuilWo1JW7tXf8AD5c+fkBrUFqwmEx0WAdm9QSTpVdJ3VevBsj5nJ1XdeifUdtrC4jK4K3kdOOsxTUk456thyOXg+c1UCqgC5YnBYZdIQ5vLTWWIlp0T2RLusiInJrU8F38fJFK1l30X35HYqKaKmqJwMmdxOTlz3X2kGECwaUxFbKw5h9pZN6lN08fA7b4yefqOnRmMgzOpaNC2r0gmc5HcC7Lyaq8l+gohQWXTen4MplsiyzLJHSoMfLJ3abyOa1dkRPWcrEWl7tCytCS5QuQt4o22Xo9s3/DyTkoFYBZdN4SlPi7WZzk0sWMrvSNGQ7ccz1/BTfoZcuHwmZxF23pt1uG1SZ3staw5HcUfi5qp5AU8FyxOCwy6QgzeWmssT0p0T2RKirIiJya1PBd+e/kinHTOGxGotTW61dtmCg2s6WJHvTia5ETmq+W6qBTwXfDYzSmVux4iF+Rbdk3ZHbcqcD3onzfBF25EBjcbU+zstPNXUp14HPbLIibq5Wrts31qBDgu2OxWmtRTS0MN9kKt9I3PhdYe1zJOFN1RUToYOjMDTzVXNPvSvgWnAkrJEXk1d13VU8enQCrgvWLwenNRQWYMPLdp3KzO9WS0qOa9iL8Zdk6ew+YnD6Zzz58fi35CK+yJz4pplRWyq3/AIU6BFGBYdLYOC/FdvZaZ9fF0WoszmJu5zl6Mb6yUr4fAahrW49OrdrZGvGsrYbLkckzU67KnRQqlAAgAAAAAAAAAAAAAAAAAAAWHSmUSrMtad38lIvxVX8FSvADa4Knp7UCNa2tedyTk2Rf2KWtqo5EVqoqL0VCozamQlr/ABVXjZ5KSUeWgcnx0c1SBBpFiXJ1kT5ar7EMafLpsqQsXfzcQwA7J5pJ38UjlVTrBi5C9BRhWSd6J5N8VMq+5G5HRqvmlXknRPNfI1xcsPt2ZJpV3c9d/YZOYycuSscT/ixt+QzyI8KAAgAACU0t90uK/Oo/3kJ3WeBy1rV2UkrY23LHJOqteyJVRyepSowyyQSslhe5kjFRzXNXZUVOioSrtT51yKjsvfVF/wDnu+soszqjtI6LyEOQVrMrleGNtdHIro406q728/1Gfirtybs7o/YapWuz0ZXssQywpK5EcqqjkavtNbTTSTyuknkfJI7q567qp20L9vHz99Rsy15enFG5WqEXO9f1EumL81ihQoY+XaJ/+bpC+XfwaiJz2MmWs7C4HDS4PC18g63Ckk1qSDvlSRfwETomxR8llL2Te12Qtz2HN6d49Xbew54/NZPHQuio37NeJ3NWRyKie4C8a9W0ugsKuQihhtLaer4oWIxGcl5bJyRfMiO0P/R9Mf8AK4yrzX7c9ZteazNJA16yNjc9Vajl6rt5qcbVyzbSFLM8kqQsSONHuVeBqeCeSAdBbNKLqClibWQwqMsU+8SOett3m67dVZ5esqZlY/IXMdMstCzNXkVNldE9WqvuIq6Z6tXyGjJcvcxMWKyEc7WR921Y0sIvX4q+XP3HfNWdhcFhpcHha+QdbgSWa3JB3ypIv4CJ0TYouRyV3JSI+/amsPTosj1dt7Dtx+ayeOhdFRv2a8TuasjkVEKi66/W0uiMEuQihhtLYlV8ULEY1nLpsnJF8yL7RP5nTP8AyuMq8961PXZXnsSyQMcr2sc9VRHL1VE81ONq5ZtpClqeSZIWJHHxuVeBqdETyQC0ZLn2XYj89mM/tApWc0mLzWMhks1JqrInd0nEsb29UVE6dSkPt2H046jp5FrRuV7IlcvC1V6qieZkY3L5HGI5MfdsV0d8pI3qiKBkZrT9vD46nYvuZHLaRVbXXfvGtTxcngTvax900H5lD+xSo27M9yd01uaSaV3V8jlcq/Spyu3LN6ZJbk8s8qNRiOkcrl2TonPwCrTqv7h9J/1Jf2oS2rfvpYb+rU/aa/muWZ68ME08j4IN0ijc5Vazfrsngdk+Ruz3I7c1qaS1Hw8Ernqrm7dNl9QRM6l++Hd/5gn7yHf2n/dxkP8Ao/dQrU1maa06zLK99hzuNZHLu5Xee/mfblqe7YdPbmkmnd8qSRyucv0hWy8hehx/ahg7FlyNi9EiYrl6JxMVqL71KlmNKZhmoZ6bKU8rpZV7uRrVVrmqvJ3F08SBuXLF2VJLc8k8iNRiOkcrlRqdE5+BnQ6izENT0aLJ22QbbcCSrsieQRadYpLc1jisdi7MaXadeKukyv4USVu6/K/95kjjbGVymbjxWqMBDbRXcEllYOB7ET8LjTkqGseJ3Fxbrxb77789yUl1DmJavo0mTuOgVNlYsq7KnkBadGV4amq9R16sneV4qVpkb9992ptscez6m/IaR1PUic1skrIWsVztkV267Jv615fSUqpcs03vdUnkhc9ixuWNytVzV6ovqJ7T+Tq09J6hpyyqyzaSLuGoi/GVrt15+AEhoHA5CLVEFq5Wmq1qKrNPLK1WI1EReXMYCwzL5TVFODZH5SKV1dF5cTkfxo36UQrlvO5W3USrayNqWunLu3yKqGDXmkrTxzQPdHLG5HNe1dlRU8QLbU9DzOla2KtX4cdexs0jm+k7o17XLuqbp4ovgSF2DDZPCYWlBmq0UeLfI2d027XSNcqKrmJ49F2QhptRY7Jr3mdwzJrW2zrFaVYXP9bk2VFX6CJy9nGzpG3F0JKqNVVc6SZZHO/UiIBbcJqKpZ7QrlmZ3c0rsLqcb3cuBvCjWqvl8lPeYDND5Onkmuv91BjopEc64sicCsReqc91VfLYreIkpxZGB2ThfNT32lYx2ztvNF8y0so6XZYbYk1FZlpMcj21Vgd3i7c0bv0Al8x9+ur+Wh/hoVZ33xF/5p/+Ux9Q56bJ6nsZesr60jnosStds5iIiInNPHZCJ9Im9K9J71/pHH3neb/G4t999/PcCwa1+73I/nf96FsyGMp5btanr5BEfEkDZGxKu3eORibNNaWLM1iy6xPK+Sd7uJ0jl3cq+e5zsXrVi56XPZmks8l71z1V3LpzA2Vpe1mJtS14XYGljqkcyd470RGqxPBEevPiXw2MTSP30M5/Vt/tKXY1Bl7DoHT5K29YHI6NXSr8VU8U9ZjQZG7Bcktw2po7MnFxyteqOdxdd19YFm0J9zmsPzBv7XFdqYi9bxtq/XrufUq7d7Iip8X6PE6K1yzVinirzyRRzt4JWscqI9vkvmgiuWYa01eKeVkE23eRtcqNft03TxCrklaXO9m1KLHNWazjLD1mhZzcrXqqo5E8ev7SA+1u9Hg7GUuNSpBG5GMbMitfK5fBqEbRvWqE6TUrEteVOXFG5Wr+o7MjlL2Te12Qtz2Fb07x6u29gRb89UnzmidPW8ZG6wlGJa1iONN3Mdy2VU8uX6z5jqs2C7Ps1LkmOgfknRw14n8nO4VVVdt5FQx2Su42VZMfamrvXkqxvVu/tOOQyFzIzd7fszWJETZHSPV2wFnsfeoq/wDNHfuKfMd963Lfn8f7qFWW5ZWklNZ5Fqo/vEh4l4Ud0328w25YZTfUbPIlV7ke6JHLwucnRVTzCrXpL7itW/ko/wBqlY+x9v7G/ZDuHeh8fd974cXkcILlmCvPBDPJHDOiJKxrlRHonTdPEmsplIHaOw2KrScT45JJ7CbbbOVdmp6+W4FdL3j67tT6Bix1LZ2TxczpEh32WSN2/Tz6/qKIdtaxNVmbNWlfFK3mj2OVFT6QJbF6XzGRvMqx0Z41V2z3yMVrWJ4qqqSPaNer2MxXpUXpJWx1dlVr06OVOq/3fQRtvVGct11gsZS0+JU2VvHtunr8yFAuuivuP1j+aN/apTq/+kRf12/tOyvds14J4YJ5Y4Z28MrGuVEkTyVPE6EVUVFRdlTmikGztf6uy+J1NNUozRMhZGxWo6FrlTdu/VU3Nf5jL38xZSfJWXzvRNm79Gp5IngY923YvWFnuTyTzKiIr5HK5V26c1OgoFx1X9xGkPyM37yFOO+a5ZnrwQTTySQwIqRMc5VaxF67J4EFzlrS5zs2xrccxZp8ZPI2eFnN2zl3R23j1/actK058JpvUGTycT68ViqtWFkicKyPd5IvgUyhet4+fvqNiWvL04o3K1TsyWUv5N7XZC3PYVvTvHqu3sKiyWvvU0f+Zv8A3FKcd7rll1JtR08i1Wv7xsXEvCjum+3mdAVcuzRO/sZqkxU7+1j5GRIq/Kdy5GR2aYPIxaxpz2ak1eKu53G6VqtTfhVEam/Vef6lKTBNLXmZNBI+OVi7texdlRfUpIz6izE88M0uTtulhXeNyyruxdtt0+gIlNPw5l2fyVjT0iNt11e9zOL40jeJd0Rv4XsLFTZ9sePyn2w4WCi+tA6Rt9kSwqj08F89zXUNqeCyliGaSOdF4kka5Udv57mXkM1k8jGkd+/ZsRpzRskiqnuAu2j7dmXs/tVsVXr2r9W13zq8sSScTHInNGr1VDqhyWpfsVkbP2Nx9CqyJWTSPqpCr0Xlwt5bqvqKJTt2KU7Z6k0kEzej43K1U+lDIyWYyOTRqZC7YsNbzRJHqqJ9AFht8uynHf8AMn/uKdnZX/rvIf8AL5v7ipOuWXUm1HTyLVa/vGxK5eFHee3mfadyzSkdJTnlge5qsc6NytVWr1Tl4ASugfuwwv5dv7FLHhMbWv6v1NJPWbdnq99LXquXlK/iXkvn7CiVp5as8c1aR8U0a7sexdlavminNl2zHcW2yxK20rlesqOVHbr1XcDaug7WWtZre3iaePpsY9FVtVInK7ZdmtVea+v1IVfRP+otZfmP96lel1Bl5rUdmTJW3TxorWP71d2ovJdjDr3bNaOeOvPLGydvBK1jlRJG+S+aAWrsz/07Mf8ALZv7jh2U/dhB+Rl/dUrFS5ZpukdUnkhdIxY3rG5W8TV6ovqPlO3YozpNTnkgmRFRHxuVqoi9eaAX7QVqV+nc/j8fFBPku9SxHDMxHpI1OSoiL1VNv1nLF5HVC+lTQ4rHUGwRuWWeWo2FGp4pvt19Rr2CeavO2aCV8czV3R7HbKi+0zMjnMpkokjv37M8adGySKqe4D5jMTeyyWn0K6zJXYssuyonCn0/TyPlXEXrWMs5CCu59OsqJLJunxd/UdFW5ZqJKlWeWFJW8EiMcqcTfJfNBFcsxVZa0U8rK8qoskbXKjX7dN08SK73Yi83DtyroHJQdJ3aS7p8r2dTAMhbllaSVFnlWqjuNIuJeFHee3mY4AAAAAAAAAAAAAAAAAAACTxmatUF2Y7jj+Y7mRgAvNPU1OZESbihd603QlYr9WZN47Ebv+o1iCo2ms8KJusse39ZDDsZihAi8dhir5N5qa4A2aWzIaq5K2lHz+e/6is2bM1qVZJ5HPcvmp0gigAAAAAAAAAAAAAAAAAAAAAAAAAAAAAAAAAAAAAAAAAAAAAAAAAAAAAAAAAAAAAAAAAAAAAAAAAAAAAAAAAAAAAAAAAAAAAAAAAAAAAAAAAAAAAAAAAAAAAAAAAAAAAAAAAAAAAAAAAAAAAAAAAAAAAAAAAAAAAAAAAAAAAAAAAAAAAAAAAAAAAAAAAAAAAAAAAAAAAAAAAAAAAAAAAAAAAAAAAAAAAAAAAAAAAAAAAAAAAAAAAAAAAAAAAAAAAAAAAAAAAAAAAAAAAAAAAAAAAAAAMnen82z+m36hvT+bZ/Tb9QGMDJ3p/Ns/pt+ob0/m2f02/UBjAyd6fzbP6bfqG9P5tn9Nv1AYwMnen82z+m36hvT+bZ/Tb9QGMDJ3p/Ns/pt+ob0/m2f02/UBjAyd6fzbP6bfqG9P5tn9Nv1AYwMnen82z+m36hvT+bZ/Tb9QGMDJ3p/Ns/pt+ob0/m2f02/UBjAyd6fzbP6bfqG9P5tn9Nv1AYwMnen82z+m36hvT+bZ/Tb9QGMDJ3p/Ns/pt+ob0/m2f02/UBjAyd6fzbP6bfqG9P5tn9Nv1AYwMnen82z+m36hvT+bZ/Tb9QGMDJ3p/Ns/pt+ob0/m2f02/UBjAyd6fzbP6bfqG9P5tn9Nv1AYwMnen82z+m36hvT+bZ/Tb9QGMDJ3p/Ns/pt+ob0/m2f02/UBjAyd6fzbP6bfqG9P5tn9Nv1AYwMnen82z+m36hvT+bZ/Tb9QGMDJ3p/Ns/pt+ob0/m2f02/UBjAyd6fzbP6bfqG9P5tn9Nv1AYwMnen82z+m36hvT+bZ/Tb9QGMDJ3p/Ns/pt+ob0/m2f02/UBjAyd6fzbP6bfqG9P5tn9Nv1AYwMnen82z+m36hvT+bZ/Tb9QGMDJ3p/Ns/pt+ob0/m2f02/UBjAyd6fzbP6bfqG9P5tn9Nv1AYwMnen82z+m36hvT+bZ/Tb9QGMDJ3p/Ns/pt+ob0/m2f02/UBjAyd6fzbP6bfqG9P5tn9Nv1AYwMnen82z+m36hvT+bZ/Tb9QGMDJ3p/Ns/pt+ob0/m2f02/UBjAyd6fzbP6bfqG9P5tn9Nv1AYwMnen82z+m36hvT+bZ/Tb9QGMDJ3p/Ns/pt+ob0/m2f02/UBjAyd6fzbP6bfqG9P5tn9Nv1AYwMnen82z+m36hvT+bZ/Tb9QGMDJ3p/Ns/pt+ob0/m2f02/UBjAyd6fzbP6bfqG9P5tn9Nv1AYwMnen82z+m36hvT+bZ/Tb9QGMDJ3p/Ns/pt+ob0/m2f02/UBjAyd6fzbP6bfqG9P5tn9Nv1AYwMnen82z+m36hvT+bZ/Tb9QGMDJ3p/Ns/pt+ob0/m2f02/UBjAyd6fzbP6bfqG9P5tn9Nv1AYwMnen82z+m36hvT+bZ/Tb9QGMDJ3p/Ns/pt+ob0/m2f02/UBjAyd6fzbP6bfqG9P5tn9Nv1AYwMnen82z+m36hvT+bZ/Tb9QGMDJ3p/Ns/pt+ob0/m2f02/UBjAyd6fzbP6bfqG9P5tn9Nv1AYwMnen82z+m36hvT+bZ/Tb9QGMDJ3p/Ns/pt+ob0/m2f02/UBjAyd6fzbP6bfqG9P5tn9Nv1AYwMnen82z+m36hvT+bZ/Tb9QGMDJ3p/Ns/pt+ob0/m2f02/UBjAAAAAAAAAAAAAAAAAAAAAAAAAAAAAAAAAAAAAAAAAAAAAAAAAAAAAAAAAAAAAAAAAAAAAAAAAAAAAAAAAAAAAAAAAAAAAAAAAAAAAAAAAAAAAAAAAAAAAAAAAAAAAAAAAAAAAAAAAAAAAAAAAAAAAAAAAAAAAAAAAAGpkAA2upgAAQAAAAAAAAAAAAAAAAAAAAAAAAAAAAAAAAAAAAAAAAAAAAAAAAAAAAAAAAAAAAAAAAAAAAAAAAAAAAAAAAAAAAAAAAAAAAAAAAAAAAAAAAAAAAAAAAAAAAAAAAAAAAAAAAAAAAAAAAAAOwzcfjLN5f5FmzPF7uSErgsH3yNsXWqka82x/O9a+otLWtY1GtRGtTkiJ4HyvL+oxjn1x9v0P0/6JbNEZM3EfhBVNNV2Ii2Xuld5J8VCRixdGJPiVo/pTf8AaZoPj38rLeebS/S4vp/j4Y1WkMdaNRU2WtD+ghiz4OhKi/yCMXzYqoSQMxnyV5i0ut/EwXjVqQqt7TUjEV1OTvE+Y/kvvICaKSGRWSscx6dUVNjZJi5ChBfi4Jm/G/BenVp9Dx/qdqzrJ0+L5v0Gl4m2Hifw16DMydCXHz93Km7V+S9OjkMM+5S9bxFqzuH5HLititNLxqYAAbYAAABYOz+nXyGutP07sTZq096GOWN3R7VeiKim/O0DC9muhs9j72YxKPSWFWRY+vFxNVUcu8r0VUReqIiL5LyA8xg9Ray0D2f2MLR1ekfoGFiY2xPHUYrUsxu+S1Gp8l3EqJy9aes5YTTfZ72maQu/a7iGY2aB3dJKkSRzRP23aqqirxIvrVQPLYNtdh3ZrX1bkr9vO8f2Lx7+6dGx3D30viir4NROa7eaF6xeT7Js/qT7V6+nYI1ke6CG33KMbI9PBHovEm+3JV6geawbD7T+z1dKa6qYmpMq0Mi5q1ZZV5tRzuFWuXxVq/qVDa+rcToTsqx2Ogu6VdmX2N0fZlYj+abbqqu5Iq78mpsB5lNqakx3Z9F2TY+1ibSO1Q5IuNqSKsivX+cR7eiNTnt9Bw7Vouz67iquU0TZbWyD3N7/AB7WuROFU5rsvJFRdkXZdi2a20jgaXwf8bmquLrxZWSvSe+y1Pjqr+HiX6d1A0ED0d2W6B03qDsbbcydOtFelbZa7IObu6JEe5Ed9CJ+oydGM7I9TW105jMSi2FYqRzWI1a+fZOatk3338fD2AeaAbTyHZTLH2vx6TrzvSjMnpLLCpu5tfmqqvmqbK32mwtUT9lvZ7kIMFc042/Z7trppFibM6NF6K5zl33XrsgHmoG2+23SGm8XSx+f0far+hW1RJarJkd3fE3ia5E33RF57ovQt2l9B6U0T2fx6o11V9OtTMZIkD04kZx/Jjazkiu26qv9wHnY2j2GaBxeu7mWiy8tqNtRkTmejvRu/ErkXfdF8kNjYzTOgO1fT12TTeNTDZOsvD/JsSNWOVPiq5rV4XNXb2kd8FerNSz+q6tlvBPAkMUjfJzXvRU/UBQuz/Q+N1D2o5PTl2Wy2jWWxwOjciPXu3o1N1VNunqIDtP0/V0trjJYfHvlfWrKxGOlVFcu7EVd1RE8VNkdjX+0Dnfbd/iIQPaxUo3u3a/Wy91KOPkliSewqb8DO6aq7J5+Ce0DVZ8cuzVX1HoOfU3Y9gJa+Op4KPLQqiJJc7hJOH1qr+ar4rshB/CF0BidMwY7M6fjWvUuuWKSuiqrWu4eJrm7803TfkB1doPZph9O9l+M1FSmuOu2fR+Nsj2qxO8Yrl2RE36+s08ev9TY/C3ux/BP1PZfBiKkFW1OjPlSo2PZI09aq5EK/pfC9mPaTirtLCYlKFmu3mvB3c7EXkj0VFXiTfz3A8wAkdR4mbBZ/IYqyu81Od0LlTx2Xr9KcyOAEtjNPZTJ0bFypVc6rA1XPlcqNTkm67b9foIyJyMlY57Ue1rkVWr4pv0NkaV1Bczc+dSfghqxYqVIa0ScMcacuiefrKNaExidN5TLUZ7lKtx1od+N6uRqck3XbfqYuFxs+XylejVTeSZ22/g1PFV9SIbJwmTgkzNzEYt3/wDFY/HzRxqn/wAV+3xnr57ruEaoO2vBLZnjhrxukmkXhaxqbqqnUnQs/Zvfq47Vlaa69sUbmPjSV3RjlTZFIru/yfZ/uuLua/ebb9z37e893/kq08MleZ8M8bo5WLwuY5NlRfWW3KaR1LTuvvQskubP7xtqvJxK7nvxddyKyFjIap1HEk8UbchO5sCo1is5py3VPPzKiDBd7VDR2NvLjLs+RmsMXu5rcatRjH+OzfJCMsacSjrSthrUiyQSzRtSRnJXxvVNlTyXZQqtgu+VxmlsFlp6OQdkLT0eu/cPREhavRF3+U7bqQ2r8EzCXYFqTLYx9qJJq8q9XNXwX1oBAgAgAAAAAAAAAAAAAAAAAAAAAAAAAAAAAAAAAAAAAABL6awNzUORSrSaiInOSV3yY081+oCIBnZrF2sNkZaV5nBNGvhzRyeCp6lMEAAAAAAAAAAAAAAAAAAAAAAAAAAAAAAAAATWm8alydZ5k3gjXp853kQ7Gq97WNTdzl2RPWbDoVm06kcDOjU5r5r4qfP+oeROKnrXuX2/ovhR5GX3vHEO8AH5vfy/cRGuAyaVG1ekVlOtNYeibqkTFdt7iQ0phH5/NRU0VzItlfLI1PksT+9eSfSb2xuPq42mytThbFExNkRqdfWvmvrPV4/jTl5niHzvM8+vjz61jctFWtMZqvGySXG2OF7eL4reLZPXtvt9JDKioqo5FRU5Ki9UPTJTdf6Uhy1Ga7Vj4MhCxXIrE/nUTnwqnivkp2y+F6Rus7ebx/qvvaK5I1tpcAHz32u2NkaUd6q6GX2td81fMoFiF9ed8UqbPYuymyCtavp8o7bE5/If/cp9T6b5M0t9uepfn/rngxkx/erHMdqwAD9A/GAAAs/Zh98fS/8AzKD99DZXwsfurwX5g7+IppzCZKfDZmjk6aMWzTmZPHxpu3iau6bp4pyJnXutsrri/Vt5ptZJa0Sws9HjVicKu358157qBvDV/wDsu4/83rfxEOn4J3+ptR/nEf7imosh2kZy/oeHSk7af2LiYxjVbEqSbNXdPjb+fqOOgu0XN6HrXIMK2mrLT0fJ6REr13RNk25oBu/4OFyCzgNU4lj2tttvSyqm/Phe1Gov0K1TUugdC6hj7UMbSnx9qFaNxss8zmKjGsY7dXcXRUXbl57lQwOpMrgM2uWxFp1a4qqrlb8lyKu6tVF5KnqU2NP2/wCr5KixMixkUqpt3zYF3T1oirsBYPhNzfZTWemsPjnNdkWMdy4kbwuke3gRVXp8nfn5oSM/aDrrSFOrU13pdmSgkThSZiornbcl4uHiaq+1E3PPeRyNzJZGa/esSz3Jn94+Z7t3K7z3Nl4Xt21djaLK060r6MTZslmJVf8ASqKm4F27bdKaesdnMGrMfi24jIPWGTukb3auR/Vjmpy4k33+hTO7Qv8AZhxP5rj/APsNJa57QM/rV8aZqy30eJeKOtC3gjavnt4r61MjL9pOdyuiYNK2m0kxcEcUbVZEqSbR7cO7t/Um/IDe/ZHjpcv8Ht2OrvRk1uK5CxyrsiOc96JzNY9imhdRV+0zHWb2Mt0q+Oe6SeSZisb8lURqKvXdV8PAvug5HxfBgyEkT3MkZVvOa5q7Kio9+yoa5h7d9ZxYxKqy0pJUbwpZfBvJ7euyr9AG272cpR/CSo1XSM7z7ELTVd+krnLIjfcnvU1b2/6UzTu0q1crULVqvkGxuhfDGr03RqNVvLou6dPWass5G5Zyb8jPZlfefJ3zp1cvGr99+Lfz3Nn4zt71fTptgmShcc1NkmmiXjX27KiKBX9d9mmV0ZgaWQy9unxW3IxlZiqsjV4d135bcuim7+2GlPrHsaxl3ARvstj7i33USbuczgVqoiJ1VFXp6jzrrHV2Y1hkku5yz3z2JwxxtThZGnk1vh+0l9C9pmo9GQOrYuxHLSc5XejWGcbEVeqt8U+gDbvwXcBkcXDncpkq8tStYbHFF3zVZxcKqrnbL4Jv1O74Pt6HJ9oWv71bnBZspLGvm1ZZFQ1bq7tj1VqXHSUJZoKVSVOGRtRitV6eSuVVXb2bEJoDXmY0LNclwjaiutNY2T0iNXps1VVNuaeagbG7Gv8AaBzvtu/xEO3Nabpaq+ExexmU3WmqJNIxHbLJwQtXh39ZrDTmtsrp/VlrUVBtZchZ73jSSNXM/lHbu2Tfz9Z05XWOXyOsHamWZtbLK9r0krt4EarWo1Nk5+CcwN7auzVjTOrY9N6T7PcfMzZjYbElVXJKqonNFROib7Kqr4HZ8KviTQ2F40RHempuidEXun77GtMv246wyWJkoLJTrd6xWPnrw8MioqbLsqqu30EFrjtIzmtMTUx2ZbTSvWkSRiwRK1yqjVbzVVXfkoHoDXuAv6j7CsbTxMbpbcdSrO2FvWRGsTdqea7Lvt6ipfBo0hm8Xn8llcpRs0ay1vRmNnYrHSOVyLyRfBOHr5mu7Ha/qqTEY3HxTVa0ePdE6CSCJWv/AJNvCiKqqqKiovNNuZnZntx1hk8XJS72nV7xvA+atErZFTx2VVXb6AK52tXYch2laisVlR0K23Na5OjuH4qr70KifVXdd15qfABc+zX5eof+Vy/3FMMipcs0+99Enlh71ixycDlTiavVF80AsmiMvicVVybcl6UyxZjSGOau1Fcxi/K236KvIsuhmaYS/e+xcmUdJ6HJ3nfozbg257beJq4yKdyzSe99SeSFz2qxyxuVFVq9UX1FR2ZZKCXnpiXWHU9k4Fn2499ue+3LruZel8M3O5JaKWmV5nRudFxpuj3J+D6tyIOTHOY5HMcrXIu6Ki7KhFWTGVNVYvItgoQ5GCw12yMai8Krv4/gqnrLPn7tTH9qWJszujbJGyNLjmfJbIrVRV+jdCn/AG3Z/wBH7n7LWuDbb5fPb29SEe5z3q57lc5V3VVXdVKjZWfsagrZ2evDgaNhkkirDK2i16SNVeS8W3r5kXasZGbtGxLMytb0uGaGNUr/ACWpxIqJ7eZXK+osxWqpWr5O3HAibIxsqoiJ5IcdPWo62osfbtPVI47DJJHrzXZHIqqBP67wGSXVl2WvVmsxWplfG+JqvRVVebd06Ki8tjn2holKhp7DyOa63RrL36Iu/CrlReH9RHZbUl2LPZWbDZGxFVsWHyN7t6tRyKvXYr00r5pXSTPc+Ry7uc5d1VQOAAIoAAAAAAAAAAAAAAAAAAAAAAAAAAAAAAAAAAAAAl9M4G3qHJNq027NTnJKqfFjb5r9RtjK3aWgcCyjiazpr0ibpsxXK5fnvVP2Fc7KNU1KLfsRdZHB3r+KOwibcTl/Bcv7FL1q/Uc+nIGWPsY+3UXk+VkvDwL602Xl6ywktDXnX79uWzbZYlnkXic9zF3VfcdHo1j8Xm/s1+o2p/lag/oiX/6hP8I/ytQf0RL/APUJ/hA1O5rmO4Xtc13k5NlOJu2hk9PdoFeWnYrdzca3dGvRONqfOY5OuxqTUWJlwmZs4+deJ0Tviu+c1eaL9KARoAIoAAAAAHNsb3NVzWPc1vVUaqontOC9OR6L0VDRbpTHpQbGsDoWq9URPjO2+NxevfcqS86HJ0b2ta5zHta7oqtVEX2FqlhxH+Unut2fYj0zZfm+tPZxcvYbh1hDQdpa+2+2NtZsDlbuifFXb4vD699ho285oiqqIiKqr0RPE+vY5juF7XNd5OTZTYPYvHSfmrbrKMW42JFgR3tXiVPX0/WTfbXHSTG0ZHIxMgsqozb5Ss2+Nv6t9ho21CACKAAAAAAAAAACU03Ck2Xi36MRX+4vBUtHJvfmXyj/AL0LafnPqdpnNr8P2/0CkV8b2/MgAPnPuQ2Z2MxMV2VlVid41ImI7yReJVT3onuNnGjuzvNx4XPf5y5GVbLO6e9ejF33Rffy+k3gioqIqLui80VD7Hh2iaaj4fmPqmO1c02nqX0AhtVZqHBYiazK9vfK1Wwxr+G/bkns8z03tFa7l4MVJvaIq0VmomQZm/FE1GRx2JGNangiOVEQwz65yucrnLu5V3VfNT4fn7c2ftMcarESGJl4UnxllipuvAqp7U5mWfHpxMci9FTY1in1vEwxnrF8dqz+GtAfV6nw/YV5iH8ytGrTAACoAAAAAAAAAAAAAMll62ystdlqdtdUVFiSRUaqL15dDGAAAAAAAAAAAAAAAAAAAAAAAAAAAAAAAAAAAAAAAAAAAAAAAAAAAAAAAAAAAAAAAAAAAAAAAAAAAAAbT0BrWK1AmE1E5j43N7uKaXo5PmP+s1YCiV1PDjoM5ajwsjpKTXfEV3gviiL4p5KRQBBZezh7ma3xPCu3FIrV9aK1SZ7Z2o3VUConN1Rir6/jPT+4qmm8k3D56lkXRLK2u/jViO2V3JU6/SZ+uNRM1LlorkdZ1dGQpFwOfxb7Ocu++yeZUV0AEUAAAAADJgvW68L4oLM8UT/lMZIrUd7UTqYwAGRNdtzwMhmszyQs+Sx8iq1vsTwMcAc4pZIZGyQvdHI1d0c1dlT6TnZsz2pe8tTSTSdOKRyuX3qdIAAAAAAAAAAAAAAJzSD+HJSN+dGv6lQuBr/EWPRclBKq7NR2zvYvI2AfnvqlJjJFvy/a/wDT+WLePNPmAAyKNKzfnbDTgknmXo1ib/8A6PmRG+n3ptWsbsxyy4LWmXxEDYI5WTwNTZrJk34fYqKi7erclcb2a5Ow1HXp4KifNT+Ud+rl+sslbsyxMau7+1cmRUTZOJrNvch6sWDNE7rw+b5HmeLMet+UDZ7Tcg+NiV6VaN/Ds9zlV26+aJy28eS7lNy+Wu5e16RkJ3TSbbJvyRqeSJ4G1k7NsH865/ap9RG2+y6BWf5nkpWv3597Gjk2+jY65MOe0c8uODyvEpP7Y01aCzZnROaxbHSOrpYhbtu+uvFt9HX9RWTx2x2pOrRp9XHmpkj9k7DhYf3cEj16Naq/qOZGajsJXxUqb/Gk+In09f1GsNJveIj8uflZIxYbXn8KN1AB+ujiH80mdzMgAKgDIo1ZblqOCCOSRzlTdI2q5UTfmuyEtrDT8mAy9isxLEtWNWo2w+NURyqiL16AQIMqrjrttivq07E7E6ujjVyJ9KIYzmuY5WvRWuRdlRU2VAPgBmR4y/JMsUdK06VGo5WJE7dEXou23QDDBkQUrVid0MFaaWZvymMjVXJ7U8DqmikhkWOaN8cjerXtVFT6FA4AyquOu243SVadiaNvV0cauRPpRDGVFaqo5FRU5Ki+AHwAAAAAAAAAAAAAAAAAAAAAAAAAAAAAAAAAAAAAAAAAAAAAAAAAAAAAAAAAAAAAAAAAAAAAAAAAAAAAAAAAAAAAAAAAAAAAAAAAAAAAAAAAAAAAAAAAAC86evJdotRy7zRfFd6/JSjGXjbslC02aPmnRzfnIePzfH+/j/mH0vpfm/pcu56nttnSuCm1BlW1IXd2xE45ZFTfhb9fkbzw+KqYioyvRhbExqbKqJ8Z3rVfFTVvYjYit5S5LA7djq6fR8ZOSm4T5viYYpH7o5fc+peTOW8RSf2gAPa+WAAAUjXmjocrXku49jYr8bVcqNTlMnXZUT8LyUu4OeXHW9dS74M18V4tWXmUpmp7yWrqRRrvFDy9rvFSZ1JlkqtfXgdvYduiqn4CfWU05/TvFms/cv8A6d/rf1GL1jBjn/IAD7L8uAADOwl2zQycEtKZ8MquRiuYuyq1VTdC5dolm3e10/DyWpPQXzwtSLf4rVcjU3T3qUKJ/dzRyIm6scjtvYu5b9a5LEZS6zOYy5O3JPdGrqz4tkYrU6o7p4IVGXrfUOQxWfkxWHnfRo0EbHHHDy3XZFVV8+pj654MlgcDnnRsZctsfFYVqbI9zF2R2x25S1pvU87MlfvT4y+9qJYjbCsjXqibcTVInWGaq5BtGhio3x4yhGrIu8+U9V6uX2gVs2T2j6hyOLzteDGWHVUSrFI90aIiyLsu26+KJ5GtiydoGUqZjOss0JFkhStHGqq1W/GRF35KBZNd569Q+xcmOkSpNeqR2rMsLUa6V+2ybr5Jt+sxdWxrmo9IWbKp6VfjSGaREROL46Juvr5kLrPKVMm3DJTkV/o1FkEu7VTZ6dU59TnnMzXmwmm4qUqraoRu7zdqpwu4kVOfj0Auuoos5XyaVcFlcbjsfVRI4oPSWsdyTq5FTqVftMigdax1xklR1yeDa2lZ6Ob3idV5ee53ZSxpjUs6ZK7esYy+9qekRNhWRrnImyq1StahlxT7jGYOvJFVjYjVfK5VfK7xcqeHsQCKLPpSviMrVmxV9ErZCV3FVuKvLi2+Q5PJSsH3p0Iq54zSH2Oks3dV71sfUfw8CL8ay7waz1L5lUyM0Ni/PNVrpWge9VZEi7oxPLc78pmb+VjrR37L5mV2cEaOXon96+sjygACAAAAAAAAAAAAAAAAAAAAAAAAAAAAAAAAAAAAAAAAAAAAAAAAAAAAAAAAAAAAAAAAAAAAAAAAAAAAAAAAAAAAAAAAAAAAAAAAAAAAAAAAAAAAAAsOidWZHSGV9Mxrmua9OCaF6btkbvvsvl7UPSmiu0PB6rjayvOlW/t8arOqI7f/AIV6OT2Hko+tVWuRzVVHJzRUXZUOd8US7Y/ItTienuUHk/T3afqjBsZFFf8ASq7eSRWm94iJ6l6/rLtR7ebTWol/CQPXzhmVu/vRThOG0PZXyaz3w30DSMnb3Dw/yeAk4v8Aispt+6QWU7cs7Ya5uPoUaiL0cqOkcnvXYn2bfhZ8ikfL0NasQ1K757UscMLE3dJI5GtT2qppntC7ZIYo5aGkl7yZd2uvOb8Vv9RF6r61NOZ/UuY1BL3mYyE9nbo1ztmN9jU5IQ51pgiObPPk8qZ4rw5Pc571c9Vc5y7qq9VOIB36eSZ9uZAAAAAAAAAAAAAAAAAAAAAAAAAAAAAAAAAAAAAAAAAAAAAAAAAAAAAAAAAAAAAAAAAAAAAAAAAAAAAAAAAAAAAAAAAAAAAAAAAAAAAAAAAAAAAAAAAAAAAAAAAAAAAAAAAAAAAAAAAAAAAAAAAAAAAAAAAAAAAAAAAAAAAAAAAAAAAAAAAAAAAAAAAAAAAAAAAAAAAAAAAAAAAAAAAAAAAAAAAAAAAAAAAAAAAAAAAAAAAAAAAAAAAAAAAAAAAAAAAAAAAAAAAAAAAAAAAAAAAAAAAAAAAAAAAAAAAAAAAAAAAAAAAAAAAAAAAAAAAAAAAAAAAAAAAAAAAAAAAAAAAAAAAAAAAAAAAAAAAAAAAAAAAAAAAAAAAAAAAAAAAAAAAAAAAAAAAAAAAAAAAAAAAAAAAAAAAAAAAAAAAAAAAAAAAAAAAc4m8crGKu3E5E96m58z2V6PwcsUOZ1k+lNKxJGsmYxFVPNANKg25/knxWXif9p+r6OSstTi7iTZFVPanNPcavy2NuYjIzUclXfXtwrwvjenNPrT1gYYAAAAAAAAAAAAAAAAAAAAAAfW83InrLEbnSTOnwFp7Q8LTwWWr18e2RI3wJIvG7iXfiVP7irGslJx2ms9s0vFoiYAWPSEOAl9O+2GZ8apHvDwqqbr49PHpshXV23XbfbfluW1NVid9rFtzMa6fAAc2gAAAAAAAAFkwEOnpMFkn5eaRmQan+btaq8+XLZPFd+u5WzpanrETtmttzMa6AAc2gGVjaFrJ22VaML5p39GtTp618k9ZZn6Ux2PXgzeoKtex+FDA1ZHN9qnamC143EcOdslYnXyp4LgmkKl9qpgc7UuzJ0gk/k3r7N+pVrlWelZfXtwvhnYuzmPTZUJfFfHG5jha5Itw6AAcmwAAAAAAAAAsbodP/AGmtlbNJ9ne85s3Xpv5dNtvHzN0p7751pm1ta4VwFqpYSnN2fXsu9snpsNju2qjvi7bs8P8AqUqpcmOaa38wlbxbevgABzbAAAAAAAAAAAAAAFn0FovJazyT69Dhirwoiz2ZE+JEi9Paq+ReJtG9mlCX0S/rGxJbT4r3wo1WNXx6NVP1gagBsPXXZrNgsW3NYS/HmME7mtiLbijTfbd23JU9adPEwtC6d0vmcfYm1HqZuHsMl4I4lRvx27IvFz9e6fQBSQbsodlOkMjjrd+jrKSelU52JmMYrYuW/P6CDyujNB1sXbnpa5ZZtRxOfFDs3+Ucibo3p4ryGxq8GxOzDQmN1ZicvkMvlJ8fBj1TidG1qtRvDuqrv5EvHoHQE7kjr9oESyu5N4kYib/qA1IC29oGhshoy3ClmSO1RsJvBbiT4r/UvkpUgAMzD0JMrlqePgVEltTNhaq9EVy7bmyO0HCaG0lDawkTMpb1AyFFSxxp3bHqm6bpunh4IigarAAAAAAAAAAAAAAAAAAAAAAAAAAAAAAAAAAAAAAAAAAAAAdlb/SYf67f2m2vhKfdRiPzFP3lNS1v9Jh/rt/aba+Ep91GI/MU/eUDVNC5Zx12G3RmfBahcj45GLsrVQ272291ndIaU1W2Nsdm1F3U+ydd27on0KjveacYx8j2sja573KjWtam6qq9EQ3T2sRswOgdEaduKnpEatmnZ5IibL+t6p9AEbR0tpfR+mqGW15HZvZDIN7yvjoHcPCzru7mngqb7r47HfFprR+vsTefoqvaxWbpxrL6FO/ibM31c19m6LyXbctPbHkdI1M5j01LhL1+V1NqwywT8DEZxLyRN057/tQq2mdeaD01kvT8PpvJw2uBY+JbPF8VeqbK7bwINf6IwlLOZ9lTL5OviqTWq+aeZ7W8k/Bbvy4lLy7L9k8FpaKaeyU1druBb3eruvhxbcW+3j0IXQulK+utUZizPO+jh66yW5nJsr2sc5VRqeG+2/P1GbJlOy2m5WV8Dmcg1vJJJbHAj/XyX+5CiJ7VdHwaSzdduOndPjL0ST1nPXdyJ4tVfHw5+SobB1do/QWk5cdksxHY9FlrN4MfBI5z55eqvVVXk1E2TqnMjPhDrE6HSC14lhhWm5WRuXdWN/k9mqvqTkdHwjVX7M6cTw+xifvEGvNX28Ndzss+m6MlDGuYxGQSLurXInxl6r1UhQCi91cPhMFp2lk9Qwz3bF3nFXjdwo1OvPp4ftMe5W0xmMRZs4pVxV6unF6PPKnDKnk3devsPmH1dUXDQ4nUWOS9Uh/mntXZ7E/98d0MubTeCzmLt3NL2Z2WKzeN9Wfy6+3w5dT6movXWOI1rr5eGJmJ3aflXtJ4yhkbsi5a9HTpwt43cT0a6T/hbuWGtc0Passp/Ym3Cx7kY2wsi8lXoq89yK0dp2tla93IZWw+DG003kVnynLtvsn/AL4mbDf0ayxGyDD353caI10k2267+SKZwVmta7iI23ktuZ1zpF6iwDcLqlmOc9Za73sVjl5KrHL4+vqhadTYfS2mspx3YJ52yMTuqcT15dd3uVV9yeo6O037ucb+Ti/fUwO1xVXWDvVXj/vNXrXDF5iInlmtrXmvPbKvYXBZzTdvKacilqT0/jSwSO33Tbf1+G+23kQmi9OpnbU8lqVYMfVbxzyJ128k9yk32bL/APwupk8PRun0OGld3dmOomwfzyP3ciddtm/3biMdck1ya7gm9qbrE/Lh6foVZvRvsXcSHfh9K4139u2+5C6wwDcDk4mV5knpztSSGTfnt5L6yvHc+OaNY1mZI1Hc28aKiKnq3PNOaL8TV2jH6TxZtbtBhwtfKVshne9sN7hIoakK7OcqKqq5V8k3QhvsPp7UuEu2NP15qV6o3jWF7t0cm2/mvXZefmdPbCq/bBTTw9FT95w7Jf8AS8wnh6Iv7T2WtF8845q88VmMUXiZ2j+z3DUcxLlEyESyJBW7yPZyt2d58h2bYalnMjbhyESyNZX42fGVuzt0Tfl7SR7Jv5/Ofma/tU49jvLK5BU/E1/eQxix0/7fH5ave37tT+HCq7RlGduOu1bNuVq93LdRyozi6Lwoi77bmTltN4LS9p9jMST3K8q/5rWiXZyptzVy8uSGvXc91Uv3a7/rHEfmafvGa5KzS1prHHSzSYtWIt25X8Ngc3pi5ldPQy1J6acUsL3b7onPzXw32VPIg9F6dbnLE8tuZYMdVbxzyJ19ie5Sa7P/ALktV/kE/dcNMbu7L9Qtg/nUk3ciddtm/wB25r7dck1vNfjpmb2pE1iXWl/QrpvRlxdxsO/D6Txrv7dt9yG1pp77AXou4l7+jYZ3kEviqeS+9PeV4v8ArTdugNMNn/n9t0RevDw//wDJyi1c1LTautOkxOK0anbhDh8Hp/A0chqCCe9aut4o4I3cLWptvz6eaGNeraZy+Hs2sS5cXerpxejTyptKnk3devsPuK1dTkxEGL1HjUvVoE2ikYuz2J+r3oqGRPpvB5rE27ul7M7Z6zeOSrP5deXj4Lt1OsxF66xxHXXy57mJ3edcsDS+HpXtKagu2olfZqM4oXcSpwrwqvTx6HfoDT1TPUMwlhiLYiY1IHq9URjlR3NdvWiGTon7hNWfkv8AscdnZskjtPanSHfvVg2bt134XjFjrum43wXvb92p+WLFY0VRk9DmpXL3CvC+5xbIq+KtTdORg6105BiPRbuMlWbF3G8UTlXdWrtvtv7P7yrF/wAsit7I8Yk/J62P5Lfy3d/5MUmM0Wia603beOazE726UmXS2iKz6vxMnmN3LKnymRJ4J5df1mPR0tRgw8GS1Jkn022vjQxRs4nuTzX9py16ne4TS88fOJ1LgRU6IqbcjN7RK0+RoYLI0YnzU1qpHvG3i4Hevbp5fQdJjidRv1jiGImeOdbnmUfkdKRUNPTZqpku/jZK30d8SbcTVVE3Xxa5F35eo7s3IuodDw5iwiLkaMyVppNucjF22VfXzT9Zntx1ur2T2o7ET2yOsNmSNU+Mxiq1EVU8OiqRzGuxvZhYbZascuRtosTXclVrdt128uRbUiONaiY5SLT3vcxLlp7T+Lq6f+zupnSLWeu0FeNdlk//AGdlWDSuobsNXHVrGNtq9OBsr945kRebV5rsqpvsd2tGusaB0zYroq14mcL9ujXcKJz+lFKjpqCaxqDHR1kVZVnYqbeGyoqr9CIYmYpeuOK7huP3Vm820nNVYajQ1vXx1WJWVHuhRWK5V+Uqb8yZ1HitLaazD/Ta09lsiNWKpE9fiJtzc5VXxXohj66++VU/r1/2oR/asqrrSzuvSKP9hckUx1vb152zTdprEz2mLOmMBk8dBnMbPJSxbOJbUbt1c1E8G9ee/Ly5nHCQ6Mz1pMZWx9urYei91M9+6uVE3815+0x8av8A/iDKfnafvRkFoD7ssV+VX91SzasXpEVjmOVitpi076YkmI7rUb8VYsRQoydYnzyLs1qIvyl+gs9ibROJl9D9Bs5NzOT7LZPiuX1c0T3GLksNJnu0i/Rjf3aPnc579t+FqdVO64ui8XZkq+iZC/JE5WPk7zhaqp122VP2GaY/T2mIiI33LU299b70xNZYGhUx9HL4R8i465y4JF3Vjv8A3f3CXD0m9m8WWSJfT3Wu7WTiX5PEqbbdPAnNZSVJuzjFSY+s6tVdY3ZE53ErU+P4/rMKf7zkH57/ANymr4qxktqP/ViuS01rufl9xn3ocr+dp+2MoRfcZ96HK/naftjKEebyuqf4d8HE2/ysWjNO/Z+7Ks8vcUaze8nk8UTyT3KTK3tCtm9G+xdx0KLw+lca7+3bfc7NF7u7P9UNg/n+HdUTrtw//soBuZjBSsxXe+2IictrbnWli1jp5uFvwehTekUrbeOu9F3X2L70J6XDaf0tSrLqKKa9kp28fo8Ttmxp7095UsKx8eaxbrTJGwrYjVFeioipxJ03J3tWSRNZWFfvwrFHweW2317ivrWtssV/0TEzatJsz24TA6nx1qXTUc1PIVm8a1pXbo9PVzX9REdnWJp5jULquRiWSFIXP4UcreaKnkZvZIki6s3ZvwJA/j9nL+/YzOzZWL2g3li27tWzK3by4k2OtKVyTS81Yta1fasT0x0TSGHtPoZCrZvztcrZbDHbMYu/Rqboq7eZl5jTGBwE/wBkchNNYxcyItWtGvx3qqbruvzUT9pQrqqt2yqruvev/eUu/aT/AKi0r+af9sZK5KzW8+scdE0t7ViLd9u77Ead1Jgb9nA1pqN2mzvFje7dHJsq8+apz2Xma7ToX3ss/mdRfmf9zihHDyIi2Ot9REy64txe1d7iAAHjehunI2HaS7A8ZFj1WK3nJOKaVvJysciqvP8Aqo1v0qaWNzaoidnuwLT12miyLiXpFOiJurGoisVV/wDsX2KaZEDb/wAHrJusZHKaYuKsuNv1nv7p3NEcmyO29rVX3IaqylVaGTuU1Xda8z4VXz4XKn9xtD4OmPeuqL2YlRWUqFV/HKqfFRzvDf8Aqo5TWWatpfzN+43faxYkmTf/AInKv94G1+yn70Gvv6q/wzTadDcnZT96DX39Vf4ZptOgG4+yD72OvfyK/wANTTf4PM3f2E2YKehdZWbdZtuvEiPkgd0kaka7tX2kTF2j6RruSWt2e0GTN5tc57F2X9ACQ1AkrPg54luW4ksLZb6KknyuDidt1/4OL6NjS5adea3yes7sUuQSOCtAipDWh3RjN+q+tfWVYDYXY5b09BqKnDmMdZs5OW3H6FPFJwshX/iTfnzLJ22ZDSTc7m6suHuu1HwsRLqS/wAki7NVF4d/m8uhrzs4+77Afnkf7SZ7cdv8qOY4vk7x7+zgaBOYnSWmtL6TpZ7XrbNqxfTiq46B3Cqt23RV5pz2VFXnsm6eJl4nC6C7QUnx+nKtvA5tsayQtmfxsl28Oqp+xfE6/hGI92T03Izdajscndqnyd9+f6tipdj7ZndpWB9H34knVXbfN4V4v1bgZfZZpirle0T7CahqueyNszZYuNWqj2IvinrQn8pX7OdJT3cZkKVvMZVrpEc+J691AqqvCxF3TdWptv15k5pZ0bvhKZVYduHedF2+d3acX69zTeqVVdUZlV5qt2f+I4CLTom/UAAAAAAAAAAAAAAAAAAAAAAAAAAAAAAAAAAAAAAAHOFyMmjcvRrkVfebv1ZrDsy1Zbr2s1Fm3zwxJE1Y41Ym3XojjRoA3BR1j2daXk9M0xp67byTP5qW47kxfPmq7fQhrXVGoL+pszNksrKkliTkiNTZrGp0a1PBEIkAbUxWt9Oag0zTwvaDTtvkopwVshV5vRu2yIv0IieKLsh2N1TobSVG19p2Ot5DLTMWNtrIMRWxIviiL1+hENTgC7dmOtW6Sy9t1+utvG34+6tRp8rbf5SefVeXrJqzb7MMVKt/FVctkbTfjwUrHxYGu8ONeqoi+G6mrwBsTtd1pQ1i3AyUe+7+rA5tnvIuBvG7h34ea7puinT2varxurMjiJ8T6RwVaSQSd9HwLxb78ua7oUEAD6iKqoiIqqvgh8OyCV9eeOaF3DJG5Hsd5Ki7opY7F4r5LC5fEVamocfcrWq7eFtmrD8pPXy9SdUU5rmMVgcXbq6Yp35bVpvA+zYjVOFPUn0r4ER9vupf6Td/ZR/4T59vmpf6Td/ZR/4T6MeTjiP6/t45w3md64d+jM03FQ3MflaNifGXE2kRka8TV223QzO901h5UtYinkrtxq7xekxr3cS/O225qhGfb5qX+k3f2Uf+Efb5qX+k3f2Uf+ElfIx1iImd664/s+1bc6jtl6zy8OY1NTv04LfcRMY13HCqLujlVeX0mLr3IMzuoXXaMFruViaz+UhVq7pv4fSfPt81L/Sbv7KP/CPt81L/AEm7+yj/AMJm+bHeJiZnn+P7arjvXWo6d+jspFiMdmYLkFvjtw93HwQqqb7L18upi6PzVvT117nU5Z6c7eCeHgX4yeacuvU5/b5qX+k3f2Uf+Efb5qX+k3f2Uf8AhFc2Ouv3TwTjvO9x2mO60V33pXomX234vRe6dw7+Xs+kgtW5a1qDKtseiTQ14mpHDFwL8Vqf3nb9vmpf6Td/ZR/4R9vmpf6Td/ZR/wCEuTPitGt6/wBf2kYrxz27u0HJxZ7LV7FCC33bIEjXvIVau/Eq/wB590HlIsHYyD70Fvhng7tndwq7nv4nR9vmpf6Td/ZR/wCEfb5qX+k3f2Uf+En3sfv9z2n/AOf219u/r6a4ZGg8pFg5cm69Bb2sV+6Z3cKu+N6zj2fZSLA3bct+C3wS11ib3cKuXfdF/uOn7fNS/wBJu/so/wDCPt81L/Sbv7KP/CWueka/d1/H9pOK874hXVrT8/5Cb9BS06+ykWdt0JKEFvhgrpE/vIVb8bffkdH2+al/pN39lH/hH2+al/pN39lH/hMRbFFZr7Tz/wA/LU1yTMTrp36VykWLwOdp2oLffXY0ZFwQqqb8Lk5r4dUMbR+atafty95TlsUrDeCeHgX4yeaevmvvOX2+al/pN39lH/hH2+al/pN39lH/AITUZsddfunj/n5ZnHed8dphItFNm9K9Ey7k34vRVjXh38vZ9JBavzNzUOQbL6JLDWhbwQxIxfit815dTt+3zUv9Ju/so/8ACPt81L/Sbv7KP/CXJnxWj1idf6/tK471ncxtLRZLCZnF1a2oMfcq267eBtmrD8tPXy9Xiin2TMYvB4m3T0xTvy2bTeCSzYjVNk9SfSvgRH2+al/pN39lH/hH2+al/pN39lH/AITX6nHEcT/HX9pOG886d+m8pFjtL52hYgt+kXWcMXDCqpvwqnNfDqS/ZlPLRwupJ2N4ZoYmyNR6eKNeqboQP2+al/pN39lH/hPlLV9uKLM+lsS1Pk40ZJKq8Kt2ard9kTbov6hj8jHW1Ziei2K8xMaSsDtH33pdtUcnXld8d9eJqujcvjwqnh7iO1nnJs7LXgp0Zq2Nqt4YYljXfy3X6OWxi0NY56hThq1L7o68TeFjO7Yuye1UO/7fNS/0m7+yj/wmbeRS1fXet/w1GK8TvW9JDTssGXwDtPZjjrPY9ZKVmRio1jl6tVfL6/YIYdZaVa+vUjnWsqq5FijSaNfWnJdiIvayz16nNVt31kglarHs7tibp5ckMKhnstQYjKeRsxMT8Fsi7e4n38cRGpPt35mY4lMwZbVmOkuZRUttbJw9/JPDuxeezeSpt47JsQ+Xv5XNWG2Mgs870TZv8mqNanqRE2OORzuUyUSxXr9ieJerHvXh9xJV9b6hrwRww5FzY42oxqd0xdkRNk/BOc5a2nU2nTcUmvMRyzNN53I4PDvZdxj7mCmcqbSsVGIq9dnbbdU6eaGXQ1LWfkqtTTWFix8tmZjHzIvFIreJN0TyTbr6iLwGsLeMhnrWYIb9Kd6vfDMniq7qqe3yJFmuKlFHPwmnqVOy5Nu9X4yp7NkQ9GPNWIr+/iHK+OZmf29uWvpUZ2iMmRr3tgWF0iRt4lRE2Vf1ETrm63N6jmvUYLXcPYxqd5ErV3RNl5GFR1HlaOQs3qttzLVn+dkVrXK7nv4opIfb5qX+k3f2Uf8AhOd82O/tEzPMtVx3prUb076eUih7P7uGfBb9NmnSRu0K8O27F5r/ANKkZpWZcXqKjdtQWO4herncESqu2ypyT6TM+3zUv9Ju/so/8I+3zUv9Ju/so/8ACScmOZifaeP+flYpeImNdu77OzU9cWM3RqzyQSSuXgfGrVcxeqepSSvro+1Zkvuq5jvZFV7qrI1RquXmvPw5+SkP9vmpf6Td/ZR/4R9vmpf6Td/ZR/4TpHkY4iYmdxPPX9szhtxMRpJ6o1BDmNK06MNKeCxFNxd02FUjYxOJERF8eSoYcuUid2exYVILfprbPer/ACK8PDuq9fpOj7fNS/0m7+yj/wAI+3zUv9Ju/so/8JLeRjmZtM8zx1/ZGG0RERHUu+llIodAXsO+C36ZNP3jdoV4dt2dV/6VGkrWIo47IR5rFT2LEqfyTkhV3Lboi/grv4nR9vmpf6Td/ZR/4R9vmpf6Td/ZR/4TP3se4nfxrr+19L6mNfLq0hmbmnsg6X0SWarM3gnhVi/Gb6uXUnVj0U+dbS1Mu3deJaqRO4d/L2fSQ/2+al/pN39lH/hH2+al/pN39lH/AITWPPjrHrvf+v7S2K8zuI069XZiznsjHLHTmr1YGd3XiRi/Fb5+0nvs3itQY+vDqqjeZdgbwNtV41+Mnr//AEQv2+al/pN39lH/AIR9vmpf6Td/ZR/4RXPjiZne9/x/ZOO8xHHSZkzeMwWMs1dK0by2rLeCS3PGu6J6v/UInQGRZgs8ty/Ba7lYXM/k4Vcu67fUcPt81L/Sbv7KP/CPt81L/Sbv7KP/AAic+ObRaLa18a/tftX1rUcoGzDNJYme2Cbhe9zk3jXoq7ll1jlIsvjMHBTgt95Tg7uXjhVE34WJy8/kqdH2+al/pN39lH/hH2+al/pN39lH/hMRfFEWj2nn/n5a9cm4nXTv0PlIsLHl23YLe9qv3Ufdwq7n8br5dSY7FtPYzM5vKv1FUSejRpOneyRVaiLunlsvTcgPt81L/Sbv7KP/AAndi9bW6WL1LDLEk93NxsiktKqNVjU3Rfiomy7ouxyzXpNIrWd6ax1tFptMdqtYeySxK+JiRxuermMT8FFXknuOsA8zsu/ZrryXSE1mtarJew1zlZqu28tuJu/LfbkqLyUsssPZDekW2lrL0UX4y1GtdsnqTkv7TUYA2jq/tDxsenH6a0JQfj8TJuk80nKSZF6p1Vefiqrv4cjVwAGw9C6vxeE0BqnDXvSPTck1Ug7uPib8jb4y78uZrwADYXZ/q7F4HReqcXf9I9KyUatg7uPibvwKnxl35czXqdAAAAAmNH5CDE6pxWQt8fo9aw2WTgTd2yddk8SQ7TM5T1JrXI5XG976JPwcHes4Xcmoi7p9BVwBtHA64wOW0rW07r+nZmip8ql2t/ORptsiL9HLx3TbdDOoat0PoiGxY0ZUv381LGsbLN1NmxIv/vgnPzNQAC7dmGqquA123OZ188kbmS96+NnG9z3p123TxUq2bsx3c1kLUPF3U9mSVnEmy8LnKqb/AEKYQAAAAAAAAAAAAAAAAAAAAAAAAAAAAAAAAAAAAAAAAAA+oiquyJuqn17HRu4ZGua7ycmygcQc2RvejlYxzkb1VE32OAAGRNStQxJLNVnjiXo98bmtX6VQxwAO+vUs2UctavNMjeqxxq7b27HSqKiqioqKnVFA+A5LG9I+NWO4F5cW3L3nZNVsQMY+evNEyT5DnsVqO9m/UDpB2dxL3jY+6k7x3RvCu6+xD7YrzVn8FiGSF/zZGK1fcoHUAZDqNtkHfuq2Gw9e8WNyN9+2wGOAdncS941ndScbvkt4V3X2IB1g7J4Ja8nBYikif82RqtX3Kc21LLoFnbXmdAnWRI1VqfT0A6ADtr157L1ZWhlmcn4MbFcv6gOoHKRj43qyRrmPTq1ybKn0HEAAdsME02/cwySbdeBqrt7jUVm3RuIdQPqoqKqKioqdUU+sY6R6Nja5zl6I1N1Ump6Nw4g7JoZYVRJopI1Xwe1W/tOLWOeuzGq72JuX1mONJuHEHZHBNK1XRRSPa3qrWqqIdY9ZjuDYD61rnuRrUVzl6IibqpzmhlhVEmikjVeiPard/eIrPejbh7D4Xbsia1+rXI9rXJ6M/kqb+LSpzwSzXLPcxSSbSO34Gqu3NfI6Tgn7dbx8sRk3aa/hin3Zdt9l26bhUVFVFRUVOqKWJNROTRjsJ6BHwq/f0nb17+/w38iUpFpn2nS2trWo2rgOXA7h4uFeHz25HJ0MrY0kdFIka9HK1URfpMes/ENbdYOcUUkzuGGN8jvJjVVf1HFzVa5WuRUcnVFTZUHrMc6XcPgOTWue5GsarnL0RE3VTlLDLCqJNFJGq9Ee1U/aPWe9G4dYB2x155WK+KGV7E6uaxVRBFZt0kzEduo+qiptuipv09Z8Usmp9RuzOOx1Z1COslZu3G1PlckTl5IbrSJrMzxMMzOpiIhWwclY5qIqtVEXoqp1OUkEsbEdJFIxq9Fc1URTHpP4a3DrALdjtO0KGKiyuqJ5Iopk3gpxcpZU818kN0xzk/0ze8V7VEFsXUGn2LwRaXhWHpvJO5Xr9JkwYnA6mY9uBWXHZRE4m1J38TJPU13X/wB6HT7ET/425Y+7rmY4UoHZPDJXnkhnY6OWNytc1ybKip4CKGWbfuYpJNuvA1V29xw9bb06e0OsHJGPVVRGuVU6oidA1rnLs1quXyRNxqV24g7I4ZZUd3UUj+H5XC1V29pwRFVdkRVVfBB6z+DcPgOyWGWFUSaJ8arzTjaqb+86xqY4k3ADukrTxsR8kErGL+E5ionvFSb0e1DMjGyLG9r+Bybo7Zd9lHrMT+5PaPh1KiouyoqL5Kg6dSd1lnXZ/JR2XU21OCNGcKdV9aqT3a8xrMzj0Y1rU9ET5KbfhOO84I9bWienOMk7rEx2oYB9RFVUROaqeeOenbp8B2y15oURZoZI0Xor2Km/vOos1mvabiQHbHXnkYr44ZXsTq5rFVPedQ9ZjuF3ADlwu4eLhXh89uRyfDKyNsj4pGsd0crVRF+kes/hNw6wdkUMsyqkMb5FTwY1V/YcHIrXKjkVFTqi+A9Z70u4fD61quXZqK5fJE3PhbezTVbtIZ6W+zGsyKyQrEsa8lbuqLui7Lt05mRUgZOSsrdyNq0sTIVmldIsbE2azdd9k9SHxtK06Dv21Z3Qf7xI3K337bAY4AAAufZ7oh2qPSb167DjsHSciWrUjkRU5b8LUXx28VL1rvD6S/yRJlNLUGI1tttdlyRn8rIjXORyqq89lVP/AABpIFz7PdEO1Qlm9euw47B0nIlq1I5EVOW/C1F8dvFf1l615h9Jf5I25TS2PY1rbba7LcjP5WRGuc1yqq89lVP/AABpIFp0Bo6zq/ITsZZhp0ajUkt2pXIiRMXfw8V5L6jZ2Xwei3dlOfs6aqMsyY96QfZCVu8kj0Viq5rvLZ23LZANEAtOgNHWdX352Msw06NRqSW7UrkRImLv4eK8l9Rs7MYPRbuynP2dNVGWZMe9IEyErd5JHorFVzXeWztuWyAaIBadAaOs6vvzsZZhp0KjUkt2pXIiRMXfw8V5L6jZ2Ywei3dlOetaZqMsyY96V0yErd5JHorFVzXeWztvBANEAsGidLXdXZr7H0HxRcDFlmmlXZsUaKiK5fPqnI3DQ01odNG6or4aGPK3cXWcsuQmajt5VY5U4F6bJw+HL1qB5+AToAAOyCGWxIkdeKSWRfwY2q5fcgngmrycFiKSJ/zZGq1fcoHWDmyN8iqkbHOVOa8KbnZBVsWGOfBXmlY35TmRq5E9uwHQD70XZepyijkmkRkLHyPXo1iKqr9CAcD77S19mtd8XaPgIrMLmO9KbuyVmy9F6op3dsTWs7Ss61jWtakybI1NkT4qAU0AAAAAAAAAAAABJab+6LF/nUX76F5+EKiJ2kz7Jt/m0X7FKHgZGw5zHSSLsxlmNyr5IjkNifCNqTQ6/bZexyQWKsfdybcnK3dFRF9XL3gZXYsiLozX+6J/oKfuSnHsCxdWw3UGU9Djv5bHwI6lXkTdOJUcu6J57oibmd2OY6zB2ca3vzRPZXs1XMic5Nkfwxv4lTzT4yJ7zXmj6mp68VnPaXZZa2gn8tNAqLwJtuqOb4pt4bKBcK/a3qWpmFg1bUis456qyxRkqNjXhXqjd06+0r2n8LjdY9pcNHD156eHszLL3Uior44kTie3dF9SontQt+ku1HI6jzFHCalxGPzFe3I2BypBtIm67cW3Rduq9OR36fpY3RfwgEx9Z6NoytWONHO37t0jN0bv7eXsVCDq1Z2lZPAZibDaLoV6GJoPWBv+a8ayq3k5V3Tpui+teu5x1jDW112av1clBlHOY+XuriRsVrZm8ue3/Ui+fVPIa57Rta6b1TkMdM6rHHHK5YFdVb8eNV3aqL48v17kZmtW6+zOh7lrIQwpp+wncyTdw2Pi3VPk+K8/FALTp/K0cH2DYrJ36LLz691zq0L/AJCzcb0arvNE5r9CGtNWa6zGsZ6DMwtbu60quibDFwcPFsi+3ohbsr/s24n/AJkv78hqer/pUP8AXb+0o9B9s2r/ALUc9UfhasH2dsVGo63MxH91CjnbNa1eW6rvuvqQwNL59/aho/UWN1LWry5CjXWxWsxxoxUXZdl9SorfDqile+En921H/l7P33nb8Hv+c1X/AMuX/uIKZ2e5vB6eyc2Qz2LkyUkcf+axpw8DJPnO36lvxPbDqubMQLcr1rGOkkRslZlXlwKuy7O69PM+9jmLow6b1JqefHx5O/jW/wCbVpG8TUXh4uLb/wB5IpxwnalrXOZupQxTKTJJ5EakdaonJu/Nee+yInVSiI7ccFTwWu5GY2JsFe1CyykTE2axVVUXZPBN277es2P2v6q+1Kzhp8TWgXOz0WtbamYj+5hRejWry3VVXn5IU/4SX3d09/xGP9952fCN/wBeae/5Y395SCz6ZztHtC0Rk7utMfDYnwL0srJE3gWRqNV23Loi8KoqdF5Fd0n2wZqxqehTt1qDcRYmZX9FigRqRNcvCmy+rdOp19kn3se0X80//FIa20r91GG/PYP4jSi49pOloWdrj8JiI2wR3ZYe7Y1NmsWRE32TwTfdS1621dP2f3G6Y0NQirR1GN9ItPr94+WRU38eS8lTn69uWxj9ouQixXwgcfdsqjYIX1le5fBuyIq/rJLtZ11q7SmrJq9V1ZuLma2SrI6sjkcnCm6cXiqLv70IMNLCdqWhMvLlaEUGpMRH30dmOPg75myrsvt2VNvYqGkU5pubbp677Rc1gsjcrRV34yGNyWJ/R2Majdl35r1XbyNSImyIiFGTjYo58hVhndwQySta93kirzNk62zOW0zcipYSqynjGRpwPbCjkevjuprOpWluWoq9dnHNK5Gsbvtuq+BbI9V6k03J9j7+z+7RE7m0zi+L4bL1VPee7xrxWsxMa/l5s1dzGvhh6m1DSz+OrSS0u6zLF2lsRoiMkbz8Ou/QyMRqqvg8IyDDUeHLPX+WtTNR26eTU9xJ6sgp5bRdfULaLKF1ZUY5rE2bIm6pvt49N0UzMpbTRmnsT9iKdd81uPjltSs4912Rdv1/qO3271tNtufvE1isR8u3SeYtav8ATMTqGvHMxYVkjl7rgVqpy/vI3siY1M5k2P5olZWqv/WhPdnWezedvWXXuBaEca82RI1OPdNkRfZuQXZT/r7Mfm7/AN9DvERvHbtymeLx0wF15eozJBhYa1fGxLwxwrGiq5qeLl67qZPaVXq2KWIzlWFsLr0e8rW+K7IqL7eap9BRC+6z+4HS/wDV/wC08tck5a3i/wAPRakUtWYZkk8WhdNY99WvFJmcgzvHTSJvwN2ReXvRDDxWuEyKyUtXRQ2KMrV/lGxbOYvhyT/9nb2iRPyOn8Bl6qLJXbB3cit5oxdk6+XNFQp+Bw1zOXvRaDEc/hVznOXZrU9a+BrLfJS8VpHGmcda2rNrdrV2VtiZrew2s9ZIUglSN6psrm8TdlU6rutrWMuyVcBFBWoQvc1GujRzpV35ucvmp2dlMSwa2nhVzXLHBIxXMXdF2c1OSlKu/wCl2Pyjv2qZnLbHhrridrGOtsk754XrX7a+U05iNQRQMhs2PiTI1PlLt/cqKdbET/I5Kvj6an7yH3Ofepwn5df+4M+85L+ep+8h1tETeZ+ZrtiJ1WI/Es7Ss9ar2ZXbNyBs8cVlXpG7o5yKzhRfVvtucdI6wu5rMx4rMRVp6dtHM4EiRvDyVU9qcjDofehyP52n7zCE7Pfu0xX5Rf3VH3JrbHWOpjk9ItW9p7hN5nUsmmMlNidOQQV69Z/DI97Ee+V3juq+47dfOhy+k8Pn+5ZFbld3cnAnXr/e3l7Ssa2+6/MfnLixZvl2T4T8uv7XmYyTeb0t0s19YpaO5Zk9iLQum8etOvE/MX2d4+aRu/A3ZF5e9EOGmdVyaivNw+pIa9qva3ax6MRqsdty6HV2jxOyGDwGWrIslb0fu3ubzRi7J18uaKhBdntCa9quisTHLHA/vZHonJqJ5+1eRbWvXLWlY/akViaTae3Ojg4INfR4i87irts8C78uNvVqfTyLHq/U+eweYkq0q8dPHxbJCiQIrXt267/UV3UzZs7rm83FNWWVZFSPgVEVeBNlVF+gzItb6gxMr6WSbFZWJeF8dqP43L1p+3mZpatfakcc8StqzbVp/CL1Zmcfm1rWq1Fat/h/zpzduCRfNP1k72jJ/wD27pT81X9yM4doNCk/DYnNVaiUZ7ifykCckXlvvt/71Q59o33O6U/NV/cjLek1jJudzwb5ppNZe/VxOitO3pK0di6yFG1WyJuxrlam7lTx2ROXtIrT2uLWRyUWP1BHXtUrTkiX+SRvCq8k6eG536wx89rs909agY57asTVkRE32a5qc/Zy/WU3SdCbJahowQMc7aVr3qifJai7qqmsmS9ctYrHCUrSaWtMpiXTkdbtEhxG3FVdO17UX/dr8bb+47shG/VvaM+m96trtlWFqJ+BGzrt7dl95n5zKws7WK06OTuoJI4Hu35Iu2y+7f8AUYKTppftNlmtoqQd+9yu2/8Ahybqip7N/wBRJilZmPjfK7mYjf4duUy+nIr8uIbg4m0Y3rC60138q1U5K9PYvmvMx+0OtBgtRUnYmNtfu4GSosfLdyKvP9RmZXRbJMpNkUydFMLJIs7pu9+MjVXdURPFfIktWYJ2qbuOymNsV0xawNZJLJIje6RFVV3Tz28PM3NL2i24jvj/AAzFoiY5/wAorWOMTKayxKRoka5SGGSRU8FX5S+4zNU6qk03dXC6bhgrQ1URr5FYjlc7bfx9vUjsnqKq7X9C3A7fH0Vjrtf5sTkrv1r7h2iaevJqCe/Try2advaRkkLVfsuybouxi1v22nF3tYiPasX6WPQ2ZizqZSxZrxRZSOurZJIm8KTMXfZVTzRf2lc7I031e783k/ahNdm2Es46rk7d+NYJJ66tihfyerU33dt1RN9kIXsj+6935vJ+1Dce0zim/aTMR7xXpzua3t4rKTVsNDXix8Mrm925iKsq8S7uc7ruq7k1q3IU8FHUzWLowtyeTjRyPe3dsbeFFVUT5y8SczWmU/1nc/LyfvKXTtI/1DpT80/7YznXNaa321NKxauvlK4DLyay0/maeaihkmrQ97HK1nCqLsuy+pUVP1lO0nmcfhFsWrVF1u/ttWV23BGvmv07E52V/wA1qH8z/ucc9HQV8Zo6/qBtOO5fjfwMbInEkacue307liLZIpb555ZmYpNq/D7gdcZm5l69fIxQ2KViRInx9xsiI5duv1kHq/HQ4rWstWq3ggSWN7Wp0ajtl2J3TmsNRZfOVKsCQd26RO8SKBERrN+aqvgmxH9o33wJPbD+xC31bFE73qWq8X1/Dt7X021a3b8WZ+1x3dsH+usd+aJ+846e2D7rW/mrP2uO7tg/11jvzRP3nEy9Zf8ARSeaKEbDwqVtKaOhzj68c+Uuu4a/eJukac/q3KNYx9ytWhsWKs0UE383I9io13sUvGZifl+zDEWKjVkWi9WzNbzVqc0Vdvcv0nn8Ws19p1zrh0zzE+sR1PboxXaBantJBqKOvax0vxZG9yiKxPNNup1aWweLy+sLfcOdLhqzVnRHoqKqeDV9W+/uKricdZyt+KnSZxzSLsnknrVfBC9dnVdcdqPMYa1LF6RJXWNFY7dFcnVEX6f1HTBa+W1YyQzetaRPowbvaJk0uKmLjrVqLF2ji7pF3ann/wCDt1bBUzmlK2paldle13ndWmM6KvTf37e8pFyrNRtSVrMbo5onK1zXJspe7EbsT2TpDbarJ71jiZG7kqJvvvt7G7/SWlr3965OoS1a19ZpPLL07YrU+y6a1bgbO2G0r2Ru6Ofu3h39W+x80hq65nssmJzUVexVtNc1GpGjeFURV93IwYfvO2PzxP3mkR2b/dpjfa/9xxv7s1vjrHUxG2fSLVvae4S2W1RNprIy4nTsMFerUesbnPYj3yuTqrlX1nb2hdxlNN4XPshZFZs/El4fHkvv2VP1lW1j91eX/OpP3lLLqL71unPyq/8AcSck3+5WevhfX1mk/MqEbT+DciL2jO3Tf/Mpf3mmrDanwbvvjO/Mpf3mHy5e1gdkmIx2a7UXV8tGyaFj55WQv+TI9qrsip4p1Xb1E7qntO1pgdTWYJqkFKjBKrY6klVOB0aLsnxuq7p4opQMLic3ldT3Ptaimkv1ppJ0WF6NexEftxJz81Qt2P7YdS1HJSzlSnlY2O4JIrMHDJ5KnLx+gCqdoGXwmdzbb+n8bLjWSx72IXcPCsm/NzUToilZNm9uencbhcxi7eJrJSbka3fSVE5d27fwTw69PNFNZAZCXLLaLqTZ5EqOk710KO+Kr9tuJU8V2NsTf7NFX/mK/wAVxp83BN/s01f+Yr/FeBqdLlltF1Js8iVHSd66FHfFV+23EqeK7G2J/wDZoq/8xX+I80+bgn/2aKv/ADFf4jwNTQ3LENWetFPIyvY4Vlja7ZJOHfbfz23U2zo7/Z81b+d/3QmnzcGjv9nzVv53/dCBqaK5Yhqz1op5GV5+FZY2u2STh32389t1Ns6P/wBnrVn53/dCafNwaP8A9nrVn53/AHQgamiuWIas9aKeRledWrLG12yScO+2/ntuptnSH+z1qv8AO/8A/SafNwaQ/wBnrVf55/8A6QNT1rlmqydlaeSJs7O6lRjtuNm6Lwr6t0T3G2exr73faD+bN/hyGnjcPY197vtB/Nm/w5BI08nRAE6Icom8crGKvCjnI3dfDdeoGy6PaTBp3TtPG6HxaVL3Ci3LlmNsj5X7dUTny3369C26cylntN0bqGlqqnCt2hB39a42Hu3Iuyr+1vh1ReZx1/nX9l7MXh9K4ujFHLWSWS7PD3j5Xb7Lz8/FfaTXZjqTUmqNM6ku5/hWi2s5lZzYUja53C7i226onIgpfwakY/UOZST5C4/43s427kava3lcXZbV0zWpUsHXXggqugRyvYni93XiXqq+sz/g3f67zn/LV/eaakKNtduNOjcx2nNVY+s2s/LQKs7GIiIruFHIq+vmqKvqQmLV+Hsn0LhvsXUgk1JmIu/lszN4u7bsi+5OJEROnVVIrtP5dkeglT/dr+4h39tleTMaU0hqGi10tJKaQyuYm6RuVG7b+XNFT2oQd/Z3r6XVmrsZQ1bWq2LKS95SuxRJHJFIiKvCu3VqpumxSO2T75md/LJ+6h3diuIs5TtCxckEb1gpyd/PIicmIiLtuvrXZDp7ZPvmZ38sn7qFFLAAAAAAAAAAAAADZeL7X8zXxMVDKY/G5dkKI2OS5ErnJt038F9vU1oANgSdq2flZl45o6T4chX9G7ru3NZXj2cm0aIqbfKXmu/gV/RurstpC8+zh5mtSVEbLDI3ijkROm6f3pzK+ANoP7YchE2R+KwODx92RFR1qGv8fn4//vc1xcvWrmQkvWrEktyR/eOmc74yu677mMANmUO2HMsoxV8vjsXmFiTaOa3Du9PbtyX27blc1prrM6vWJmSkiipwrvFVrt4I2L57dVX2lWAFksavuz6GraWdBWSjBP37ZUR3eK7dV2Vd9tvjL4FdjcrJGvTq1UVDiALHrnVt3WOVhv5GCtDLFCkCNgRyNVEVV35qvPmp90Zq+7pN2RWhBWm9Og7iTv0cvC3nzTZU58ytgCw6M1fldIZF1rEyt4ZE4ZYJE4o5U8N0/vTmWPM9q2Uu1ZYMbjcXiO+/npacPDJIniiu6oi+/wBZrsAWLXGrLusctFkMjDXhmjhbCjYEcjdkVV35qvPmctb6vu6wt0rGRgrQvqQJXYkCORFai77ruq8ytgCyac1fewGBzeJqQVpK+Wj7qZ8qOVzE4XN+LsqJ+EvVFIPH2n0chVtxI10leVkzUd0VWqipv6uRjgCc1nqW1q3Oy5XIQwRTyMaxWQoqN2amydVVSz6f7V81jMXHjchWo5inEiJG29HxOYidE38fp3NeAC66w7R83qegmPlStRxiKi+i02cDXbdN+e6+zoUoACW07hrmZtvZj5II5YGpJxSy93tz5bL5mzIm6lfCxuSq6dvyMTZss8qK79hp1UReqHzhTyQ9WHyIxRrThkxTee2ytRYPVGeWNtyzimV4/wCbgisI1jf1czPwlLU+Nx6UJ0wl+o35DLM6O4U8k5dDU3Cnkg4U8kOv6usW9ojmf5YnBMxrbb8TNWxZBtiNcE2JjFjZWbPwxM323XZNufIidPaf1FgrlmxVXDyPsMVjkks7oiKu/LbY1twp5IOFPJBPlxMxMx1/JHjzG+e1w/yfZj/fY3/6pPqJjKad1DkcPj8dM7DthpJtG5ln4zuW3M1vwp5IOFPJDnXNjjfE8tzjvMxMz02fpzEapwUb4a8+JmqvXd0E1hHN39XLkSGQj1RPTkrUWYLHRyJs9a06I5fp25GoOFPJBwp5IdI8uIr664/yx+nmZ3tsXTWmtQafyS3ajsRJIsax7S2d02VU8tvIjZdA5mSV71mxiK5yuXa0nj9BTOFPJBwp5Ic5zY5iImvEN/bvE73y2Rb07qGzp6rh3uw6V6z+Nr0s/HVefXw8fIJp3UKaYdg+LD+irL33H6T8ffff2bcvI1vwp5IOFPJDX6mnepZ+zb8tkQ6d1DFpqfCNdh1rSyd6562fjou6Ly8PwU8DEwuj87iMpXv15MU+WByua19n4q8lTnt7ShcKeSDhTyQn6im4n166X7V9TG+17yujM5kslZuzSYpsth6yOayzyRV8tzNt6d1DZ07Uwz3YdK1Z/G16WfjqvPr4ePka34U8kHCnkgjyKRMz69n2r8c9Nn6dxOqcFE+CCfET1Hru6Cawjm/Ry5EhkItUz031qLcFjo5OT1rTojl+nbkag4U8kHCnkhuPMiI9Yjj/ACz+nmeZldqmh89TtRWK1rHxzxu4mPbaTdF9xb0+2ORGvu0dNWrLU2SaSROL9n7DTXCnkg4U8kJTy604rVbYLW7lsTUGm9T5602bIW8Y7gTZjG2URrE9SbHzU2Ez97EVG3FxLYMZA5GrDY3c5qNTfffquzfDY15wp5IOFPJDM+TS2/2zz/KxhtGuem1Mncv08Jov7FysjsTM7raRfiORWt5O9RnzfbSlV8VGHT1GR6bOlglRF+g1TcyVy5Vr1rVh8sFdNomO6MT1GFwp5IdZ82N8RwxHjTrlcn6AzT3ue+xjnPcu6qtpN1Xz6E1mIa0tCjR1lNFDfRqtr5Cs/vU4U25SIntT/wAGs+FPJD6iInRDjXyK13EV7bnFaZjc9Lc7RjXpxVtQYeWHwVZuHl60I+XTzly9fGUMlSuSysVyvjk2jaqb8ld57J+sgR16mJy1nqumopaO5WXJaOyGMrek3LFBsCPaxzmT8at4lRN9kTom5OT1tY6Yijr46zLbpObux9dnesTfwTdN0/Ya+REToiExjNS5jGQpDSyE0cSdGLs5qexF32OmPNjjfGmb47TC96YZlKNTNZ7U75mK+v3cfpC7OcvPkjfDnsiIQuhcTm6j4szi1xjkljcxGWZ9tkVee6J7CrZXM5HLOauRuTTo35LXL8VPYiciP2TyQ1byqe0aiZiErgtqdz2udjQeannlldNjEdI9XqiWk23Vd/IlM5p3UOYp46tYdh2Mox93Gsdnm5Nmpz3/AKqGt+FPJBwp5IY+/jiJiInntr7V5mJ3HDZGntO6hwTbqVXYeT0uLun95Z32Tn02258znprB6n0/JJ6JYxT4JP5yCWyisd6+nU1pwp5IOFPJDVfJrXWq9fyzOG1t7lt25X1NJwNpxYCjEj2ve2vMje82XfZy7b7ewhs3pjUGYzLslYfiGTLw/Fjs/F+L068/A13wp5IOFPJDVvLraNTVK4LRzEti6l01qDUGSS7bdiI5EjSPhis7Jsir57+Zz1Np3UOobMM9x2HjdFF3SJFZ2RU3Vee+/ma34U8kHCnkhmfJpPw19m3HLZ+bxGqMxh6mOtS4dIa6ovEyxs56omyb/QvgdGncBqjATPfRtYtY5P5yKSyisd9G3X1oa34U8kHCnkhf1NfaLRH/AOp9m0xrcabkn+2dIHsoV9PUZJE2dLDKnF+wqUOidQQ3G2orlBtlr+NJEtpxcXnvsUjhTyQcKeSC/lVvMTNev5K4LV6luaN+pnNY63V05ZsMT4s0kvxv/fZsVzP6a1PnbaT5C3jHq1NmMbZRGsT1Jsa84U8kHCnkhb+VW8esxx/lIwTWdxLZDdO6hbpl+ER2H9FdL3qv9J+Pvui+zbl5GNg9I57D5SC/XfiXywqqtbJZ+Ku6KnPbbzKBwp5IOFPJDH6jHuJ9eYa+1fUxvtecnorOZDI2bk0uLbJPI6RyNs8kVV35cjIzeGz32pwUbS4n0PHI6ZHR2N5HIiKq+peqmvuFPJBsnkhPv051Ha/bvxuen0sOh9VXNHZtcpjoa806xOh4Z0crdlVF8FRd+RXgeR3SuHz2RwucTLYuda9xHufu1N0XiXmiovVOfRS+r2x3nSekyadwL8l+NrXXj38+u+/0mrQBK6kz+S1JlH5DMWFnsuThRdtmtanRrUTohFAACzP1jedoSPSiwVvQGTd+kuzu94uJXbb77bc/IrIAFmfrG87QkelFgregMm79Jdnd7xcSu233225+RWQALNjNY3sfozI6ahgrOpXpO9kkcju8avxei77fgJ4eZWQALNjNY3sfozI6ahgrOpXpO9kkcju8avxei77fgJ4eZWQALNjdY3sfovI6ZhgrOpXpO9kkcju8avxei77fgJ4eZWQALNpjWN7TuFzOMpwVpIMqxI5nSo5XNThVPi7KifhL13KyAAAA2Nhe1nL0sPFjcnQx2ZhhTaJ16Pjc1E6Ivnt7/WcIu1vUDJ8g98VF8Vuv6M2v3bmx12c+UbWqmy8+q7+BrwAWTQ+rrujrVuxjoK0z7MHo7knRyojd0XdNlTnyK2ABZM/q+9m9N4fC2YKzK2LbwxPjRyPdy2+Nuqp7kQz9E9omZ0nVkpV0r3MbIqq6pabxMRV67eKb+XQpgA2Jd7WMzLbpupU8dj6daZJ/RK0SsZK5OnGqLuvsTYp+p81Y1FnreVuRxRz2Xcb2RIqNRdkTluqr4eZFgAAAAAAAAAAAAAA7ateW3ahrVmLJPM9I2MTq5yrsiErqvTGV0rfjp5qukM0jO8ZwvRzXN9SoRdNZkuQLWcrJ+8b3bkXZUdvyXfw5ln7SoNS1tRsg1jYWxkkgarVR6PRGKqoiJw8uqKBUgbAxHZHqvI0Y7S1a9OORN2NtTJG93/T1T6Ssan01ltMXkqZqm+vI5N2O6senm1yclAhgCd0vpXKanS6mHjilfTi72RjpEa5W8/kovXp+wCCAJ3IaVymO01RztuOKOhddwwbyJxv68+Hrty6+zzAggXjTPZdqjUNFt2tTjr1X82SWn93xp5onXb17EZq/RGd0ksbsxT4IJF2ZPG5HxuXy3TovqUDCwum8pmsdkr2OrpLWxzO8svV6N4G7Ku+y9eTV6HfprSGa1LUvWcPU76Gm3ilVXo3w32Tfqu3gX7sd+972ifmafw5SqaCh1VNjM87S1t0FWGvx3mpKjd2bO6b+OyO6cwKaDJxtG1k7sNTH15LFqZeFkcabucpfLPY5rCCitj0OvK9G8SwRzo6T3dFX1IoFSt6bylTTtTOz10bjLT+CGXjReJefh1TopDm39YRvh7ANLxyscyRlxzXNcmytVFk3RUNQAC3/AOTjVLcDLmJcY6GjHF3zlle1ruDbffh33PvZtpDI6ozEctGGKWtSnifZR8iN+Krt+SL16KbI7dtM6myOVu5iCT/+BqVm/FSxw7Inyvib8+agaHBYtJaNzmq5HphaTpYo+T5nqjI2r5cS+PqQmdQ9lWqsHRfcmpx2a8abvdVk7xWJ5qnXb6AKIDMw+OsZfKVcfSa11mzIkUaOdworl6c/AuOM7J9V5DI3KkdSGP0R6RSTSSokfFsjtmr48lToBQgZF+rJRv2ak/D31eV0L+Fd04mqqLt9KHLF147eTp1p5kghmmZG+VejGq5EV3PyRdwPmPo28jY7jH1Z7U+3F3cMavdt57IddmCarYkgsxPhmjXhfG9qtc1fJUXob/0HqfT+M1jjdK6KptkqSuelvJS85LCtjcqcK+W6Jz6eSeJqLtO++FqH89k/aBWACd0/pbKZ/H5O5jYo3wY6PvZ1dIjVRuyryTx+SoEEDYVTsf1fZxjbjaULFc3jbBJMjZVT2eC+pV3IjTPZ/qPUVmzDRx7o0rPWKaSwvdtjenVqqvj6kAqhP4zSOayenLucpVO8xtRVSWTjRF5c12Tqu2/MydY6FzukUifl6zUryrwsnifxsVfLfwX2mVgYdVO0Bm7GLtuj07E/a7EkqJuq8PROvPdN9uoFNBYcbo/M5LTr81RrJNSZOlbZjkWR0iq1ERG9V5uQsr+xrWDaXpCVKzno3iWBthqyJ6tum/q3A1yDumrzQWn1p43RWGP7t0b02Vrt9tlTwJXVemclpW9DTzEccc8sSTNRkiPThVVTqnsAhAqonXkTml9L5PUy3kxMcb1pw9/NxyIzZvPpv16F67B9JXchqCpnn1q82HgfJDL3jmqvFwfNXr1QDVINidqmhcvhcjk83Yr14sVPdckPdyNVURyqrU4U6ckILSOhs9qxHvw9PirsXhdYldwRovluvVfYBWAXHVnZxqTTFT0vIU2yU0+VPXf3jWf1vFPaqFbw+LvZrIRUcXWks2pV+LHGm6+tV8k9YGEDY8/Y1q6Kq6VsFOWVreJYI7CLJ7ui+817ZrzVbEkFqJ8M8buF8cjVa5q+SooHUAW7sowTNRa9xdKdnHWa9Z5k8FaxN9l9Srsn0gQ2awGRwkNGTJwJB6bF38LVeiuVngqtTmn0mBTq2LthlenBLPO9dmxxMVzl9iIWbtSzL87r3LWd1WNky14Wp4MZ8VET3Kv0mychch7IdF4+tjYIX6pykfezTyN37tvj9Cb7InTdFVQNYTaD1XBXWeXT+RSNE3Ve5VVRPWicytva5j3Ne1WuauyoqbKil0q9qesq9xLH2allVF3WOVjXMX1cO3JPZsWDtJyGn9X6Ro6lry1KepEckdymx2zpE324tvHbqi+S+oDVIJXTmn8pqTIJTw1OSzPtu7h5NYnm5V5Ihbct2Qaux1F9r0OG01ibuZWlR70T+r4/RuBr0GRTqTXL8FOFv+cTStha13L4yrsiL5cy5VuyvVVjN2sYynE2WqjVmldKndN4k3ROLxXbwQCigtesNAag0nCyfLVG+ivXhSeF6PYi+Sr4fSQGJxl3L34qWMrS2rUi7NjjTdV9fqT1gYYNjzdjOsIqazpVqyPROJYWWEV/s8lX6SgPpWI7/oU0L4rSSd0scicKtdvtsu/QDHBfIeyjVcublxjacSTQxtkkkWZO7Yjt9k4vPkvJCt5XTuRx2pZ8C6H0jJRSJF3dfd/E5UReXnyUCHBsqLsW1e+skqwU2SKm/cusJx+zy/WVBul8v9s8en5qjoMrI9I2xSqjeapui79Nl8wITdN9t03B6F1P2b5a92a6dxVGlTTL1Hb2XcbW7psv4fj1Q0VJiLzM3JiGV3zZBkzq/dRJxqr0XZUTbr0AjwbIb2MawdU75atVH7b9ythvH7PLf6SgZKhaxl6ankK8la1EvC+KRuzmqBjGZh8bazGTr4/Hx97bsO4I2cSJuvXqpOaQ0LntWo9+Iqb12Ls6xK7gjRfJFXqvsLfpPQmf0n2i6cly1RPRX2uFtiF6Pj34XclVOi+0DWmYxtrD5Oxj8hH3Vuu7gkZxIuy+1DDLf2t/fJ1B+cr+xCoAAS+m9O5XUt70TC05LMqJu5U5NYnm5y8kQt2R7HdX0qjp21K9nhTd0deZHPT6OW/0Aa6BlU6Ni3koKETNrU0qQtY/4uz1XbZd+nMuFTsr1VZzVvGspxNkqo3vpnSokTVciKicXiuypyQCigtWsNBZ/SUbJstUT0V68KTwvR7N/JV8F9pVQBk0KNvI2Er4+rPanVN+7hYr3beeyDGQR2slUrzypDFNMyN8q9GNVyIrvoRdzfehdTaexOscZpTRVRstWZ723MnLzfOrWOd8VfLdE59PJPEDQFmvNVsSQWYnwzxrwvjkarXNXyVF6HUWntR++JqH88k/afOznSsurtTQ0EVWVI0761L07uJOvPzXogEQzB5Z+O9PZjLrqPCr/SEgd3eyct+LbbYjj0pZ1LW1BoLXMGKjZHiMZClSojE2RzUam7vYq9PUea06AADsrwvsWIoIk3klejGp61XZAM7C4PKZyZ0WIx9m49vNyQxq5G+1eiDNYLK4OVseXx9mm93ye+jVqO9i9FNu9pWen7OsZi9I6Vk9DlbAk9uyxE7x7l5dfBVVFXf2Ig7MtQz9oVHJaQ1ZL6YskCzVLMiJ3jHJy6+KpuiovXqgGkCfxejdR5WqlnH4W9PXVN2yNiVGu9ir1+gsnY7peHLdofoeWiR8OObJNNE5OT3McjURU8uJUXY7dadqmor+esfYm/LjsfBIscENfZu7WrsiuXxVfLoBr+/StY60+tfrTVrDPlRzMVjk+hTHN3rZf2n9lWSt5KBi5/B/GZZY3ZZWo3iVF28033TzRFNIAAC59k32Bj1fDa1RYhho1mLKxJebXyJtwoqePiv0AR1DROpshUS1Twd+WBybtekSojk9W/X6CDt1p6dh9e3DJBPGuz45Gq1zV9aKXjUHapqnIZua3Tyk1Kuj17mvAuzGtReW6fhfSWvtUli1N2Wac1Vbhjiy7pEgkcxvD3iLxb/Ru3dPaBpmGKSaVkULHySPXZrGJurl8kQnrui9S0aS27eDyEVdE3c90K/FTzXxT6S/9lsVfSmgMzrmeBk19jlq0UkTk1eSb/SrvcnrIHA9rOp6Oeju5DIyXKjn/wAvWkROBWKvPhT8HZOmwGvSQw+GyWandDiaFm5I3m5IY1dw+3yLr25adq4TVcVrFsRlDJwpZja1Nmtcq/GRPV0Xb1kxqPW9bTOj8Lg9BXoWvfD3l+1Cn8p3mybpuviqqvPyRNgNdZvTObwTWvy+Lt1GOXZHyRrwqvlxdCHN5di+q8lqrIXtM6nldlKFms9/FYTiczbbdN/Ln9C7bGrsPWw9TXLK+bmcmGrW3tlejVcr2McuybIm677In0gY+J0vncxB32LxF61D/vIoXK339DByWOu4uytfJVJ6k6c+7mjVi+5TYutu1jMWszLDpi6uPwsCpHWbBGjFc1Pwl3TdPZy5FhblZdddimaualbHJexT19Ht8CNVyojVROXiu+y7dd0A0cAAAAAAAAAAAAAysX/rOn+XZ+8htztquV8f21Ym5dZx1a8VaSVu2+7Ukeq8jUeL/wBZ0/y7P3kNsdutSte7XqNS/bSlWmqwxvsK3iSNFc/4yp5AS3aborM63y/2f0xkq2Ux0kTe6gbPwrEiJzRE6c15+C79TXGtMnqyLG0dP6rikZHUXjg9IiTvNuacpPwk57dV6J5EzmOzLV+nswn2ust3qztnQ3KTuHiTbqqIvIs3azLZq9luDx2q7Ec+p+/7xERyOkYz426uVPUrUVfFfPYg0eXLsjzy6e15jbD3cNaw/wBFn8uB6om/0Lsv0FNPvNOaclKLnrjSstPtOtYKozlZtN9HRPmyqipt7N1T6Cd7d8pEzUeOwNBWrSwldkSM23b3ioiry9iNQ2HgEp52pp/tDvPZvisdNHbRerpWJsi/rcv0oaLxGVjt68p5XNKjopb7bFhX80RFfuu/qT+4C65DAdpGvoKty/XcyoxiJC2Rza0e3mjP71Qt0unsxiOw7UVDU8sViSBe+rcM3e921OFUTfw2Xfl6yO7YdM6vz+qEu4VtnIYaaNno3os3xGJtz3RF8V57+O5nUsDJpzsS1bSt2458jsr7Ucb+NIHKjdmKviu3NfaQVzsd+972ifmafw5T72Gfc1r3/l3/AGSnzsd+972ifmafw5T72Gfc1r3/AJd/2Sgfew1seI05q3VHdtfbo1eCDdOi8KuX3qjTWMucys2VXJyZG0uQV/H3/eKjkX1L4ew2J2F5OjMzOaWykzYIczX4IpHLt8fZW8PtVHbp7CJn7I9XxZVaaY9HxI7ZLfeNSHh+cq+Hs6lFx7UMvJnuxTTWSsI1LE9lFl4U2RXoj0Vfp23+k0ebz7ValKh2Madp4yy23Wr2kiSdvyZHIj+JU9XFuaMECY0e97NU4hGuc1Ftxb7Ltv8AHQuPwgJJE7SbrEe5G9xF8Xfl8nyKZpH7qsP+eRfvoXH4QX3zLv5CL90Cw9qN2fSegNK6cxEr60dqv6RafGvC6RdkVUVU8FVy+5CqdjepL2H1xja8diVaV2VIJ4FcqtcjuSLt5ou3MuWYxr+1Hs8wdvBvikzmIj9HsVFejXK3ZE3Tfz4UVPPdSP7NOzrK4rUMGe1XC3FYvGqs7nWHoivcick235Jvz3IMOTEw4X4QdanVajIEyUcjGImyNR+ztk9509uWo8nY11fxqW5oqNNWMjhjerWqqsa5XKidV3Xx8jpxmbbqPtzpZSJFSGfJs7pFTnwIuzf1IRvbP987PflGfw2FFLc5XOVzlVXKu6qvVT4ABeuxD76GE/rS/wAJ5Gdp33wtQ/nsn7ST7EPvoYT+tL/CeRnad98LUP57J+0fIrBufsDuOx+m9bXGNRz69ZsrUVN0VWskVN/caYNvdi/3EdoH5j/+OQSKHp7UWWh1fTyiX7DrktpiyPV6/H4nIiovmnNeRfvhHZa2zWEeJhmfFRirtmWKNeFHvcq7udt1XZETmarwv+t8f+cRfvIbF+Ef98x/5lD+1wEribs+W+DvnW5CV860rTWQukXiVrUdGqJv6uJ30KY2iPvB63/Lt/8AxjSf+z3qv88T9sI0P94LW/5dv/4yCR0Pl7OD7As1foO4LTLjmxv234FcsbeJPWiKuxrXQ+cyGO1li7cFufvH2o2yqr1XvGuciOR3nuir1Lzhv9nDN/8AMG/vxGtNN/dDivzuL99Ci79utaOt2p2HRNRvfNglciJt8ZURFX6dtzP+Ef8AdhjP+Xs/ecYnwg3KztLkdtzbXhXb2IWvtb0vkNcQ4TUelokyFd9NsT44nJxNXfffb6VRU8FQCE+D1/O6u/5Yv/cQfYO9ydpuKYjncCtl+Lvy+QpsPsh0lb0xQ1G7MrHDk7VBytpo5HPjiRHfGdt03Xkieo1n2KW4afaXh5LL2xsc58aOcuycTmqifr5EEXr9ZZdeZ2JHuVHX5GtRV5b8WyG6+0HR+o59O4TT+klggxFeui2EWwkTpZPX5p1X2qay7WtH5rDajy2YsVVTG2LivhstcioquVVRNuqLyX3Fx1li7XabpvD6g0tKk1+rAla5SbLwvaqc+Sb9d9/aioBLdk+kNU4C7bo6hWrLp+5A6OWBbSSIjl6KieG6bov/AIKr2PXMbpvXWocTctMqSypJUq2n7bMc16ptuvJN+S+1CNw3ZfmvRLd/Vl2TAY2vGr1kmfxPcvkjd/8A3wITQOkK2sreRqR5dtW/GxX1Ypmb+k9fHfkvTfr19QFiu9nOvNPZVMxjHrkZY5O9baqzcbn8991avNd/FOe5Q9WZnI57OT3s21jcgu0cqNhSLm3lzaniX/ROkO0XD6kqx1IL1GBkze+kfL/IKxF5+Ozk236EZ283cde7QrD8W+OTghZHO+PbhdKm+/TqqJsilGuzbnwcI0TUmasr1hx7lTz3VyfUajNqfB0tsi1xZqPdwrdpSRM38VRUd+xFEjXWIkSbP0ZJ13SS3G56r63oqmyPhJNemu6yu/mlpM7v2cTt/wBZrLJ1XUMpbqO3R9eZ8S+HNrlT+43ZfqQdr+isfPjrEEeqsYzu5YJHcKyp4/Qu26L0RVVANb6H0/p/NV7j8/qOPDSRPa2Jjo+LvEVF3XqnTl7yyai7NsNS0Te1FhdSLk4azkYiNgRrXOVyIqb7+G5C1OyrWVi6ldcNLDz2WWV7Wxp6+LfmnsLX2j2qGj+z2poWjajt5B8iT3pI+jF34tl8lVduXkgE5orA5eLsWYuk+6iy+WlV087pEjVsW7k5O89kRP8AqUidEaE17pvUtTIQy1ki71vpDVuoqSR7/GRU8eW/0nDRzW667KX6VqW2V85jJlnrMc/h75u7l2/+5yerkQOF7KtYXck2C/DNjqjV/lbU03xWt8VTZeZBndouMr4ztwpeiNa2K1ZrWeFvRHOeiO96oq/Sdvwic7el1o/EJM9lCtFG9ImLsj3uTdXO816Im5UY6dTHdpWPp4/IuyVeC/CxLSpsj1R6b7c15b7oTPwgvvo5D8jD+4UWDs1u2Mx2Ta2xuRlfYgqQd5B3i8Xd/FVeW/raip5GX2IYm4zQWocvg2RLnZ3ei1XyORqMRETdd16c3Kv/AEoRfY7977tA/NE/cecex+5VzWk89oq1bbUs3k76nK5227+Xxfbu1q7eKbkHGj2ddodHLsyle1Al9r+8WVb6Krl33+N5ovkpn9uuNjg1ppzJcEbLV5rEspGu6LIxzU339jkT6CtRdleuH5P0R1KVjeLhWws/8lt87ffmn6yN1ThKmndZUcbUzC5WSKSPv5NtmxvVybsTmu+3iUXj4RmoslFqeHD1rUtek2u2Z7InK3vHOVyfGVOqIickNc6Hy2ex2o2WNNxrYy0rFiYiwpM7Zdt9kXp06+Rb/hH/AHxk/Mov3nmT8HazWjzWZrd9FBlLNTgpvk2+VvzRPX0Xb1AY3+TbtDt5D7J2XJBec7vO+nvI16L16oq7En8IuGWKfS9iyrfsg6m5k8jF+U5vD0Xy3c73lef2da3uZSX7NNsV4EcrrF+1Y3iY1PlP335+eyFh+EMyGOno9lWRZa7ab0jkX8Nu0ey/ShBx17LInYboxySPRyvTdUcu6/Fcdnwe8ZI+DUeaqRxy5SCHuKnersiPciruq+HNGpv7TNt4O7rLsP03Dp9jbVqjJtLCj0RybcTVTn480XbyUhOx25BRu6j0fnZfQXZON1dHudtwTN4mq3fz+Mv0oBxk7N+0OTK/ZN9uFchx8ff+npxIv1eroSXwgMZMuI0zlb7YW5mSP0W2sTkVHPRqKi7p6+L3lZs9leuIcktRlKaZnFs2wyf+SVPPdV5exeZF9ommoNK26tBM19kchwcdmNqfFru5bN33Xdevly9pRfO2e9NpjTOmtLYeV9am6r3s/drwrIvLkqp5qrlXzK72G6ju4/W1HHOmfJj7zljfC9eJqO2VWvRF6Kip19ZbNXYmXtS0Zg8zp1Y5spj4fR7VPjRH+G+2/jum6eaKYHZToO/g9WY7K6pjTHNbIsdSCVyLJPMrVRERqeCJuu/sIKR2t/fJ1B+cr+xCoFv7XPvk6g/OV/YhUCjc7bcuj+wWlYxL1gv5qyqSzs5ORq8XRfD4rET6VNaaW1JktP52tkKVqZsjZEWRqvVUlbvzRyeO5svSkMWv+yb7V69iKLO4qZZq0Ujtu9buqp+p7k9XIgdMdkmpLebhZl6Tsdj4no+exM5u3Ci7rw8+f7AJ7tPxlel20aet1WJG3IyVrD2p4v7xEVfp2QwPhDZ29PraXEpO9lCrHG5sTF2Rz3NRVc7zXonPyPmttR1dR9suFfjXtkpU7NerFI1d0ftIiqqerddk9hF9v330cn+Th/hoBZezy5PmOxrWdDIyvsRVI1fAsi8Sx/F4tk38lTc0ubg7I/vYa+/IL/DU0+nQAXjsS++hgv68n8J5Ry8diX30MF/Xk/hPAwe09rn9o2oGsRXOddeiIibqq79C6ahkb2b9nkOBge1mpM03vr72r8aGLwZv4eX6RVtcX3Yvtcyl9kbZXVcksyRuXZHK12+ylrs9tr7Uyy2dJYiaVeSvkerl96tA4dl6p/kh17sqbI1P3ENZadxUuezNPG1ZIo5rL+Br5XbMRdt+a/QehdG69bltCamy6YDHVUx6Iq1ovkTfF3+NyNC6wz/2yZ2TJtoV8fxsY3uK/wAhvCm26ck6gXr/ACI5/wDpTDf26/UV6DT02l+0vD4zJTV5nstV3ufA7ibs5yL1Kbxv/wB473qcoJpIbEU8bl7yN6Pau/ii7oBsL4QHH/lMu8f+4i4fZw/XudfYLx/5TcdwdO7l4vZwL/fsW7tHwU3aPisXq3SsfpljuEguVGKneMcnPp5oqqm3lsp87NdPzdnVDJau1ZH6HIyBYKlWRU7x7l59PNdkTb2qQV3Faph0l20Zi/K1zsfJdsQTo1N1RjnrzT2KiL9BMah7J481kJcrpDN4uXFWnLKjZptliVV3VN08OfjzToa90jHiszq+JmqZ5YKdyR3eTxvRqse7dUVVVF5b8ix6o7JdSY7LTRYihNksdI7eCeFUXdi9OPyX9RRs7s9gw2A0/qLAYy43JWIKb7OQtxL/ACXeK1zUjb7Eav8A700pobRV/WLrbcdZpwLWRqu9Jerd99+nL1GwLtRvZj2X5DHXZol1JndmrDG7dYYui7+pE4vpcaXRVb8lVT2KBtNexHPIir9k8Ny/+ev1GrXtVj3NXq1VQcb/APeO96k9obS9zV+oIcZSc2PdFklld0jjTq7bxXn0AzezrRdnWGWVnF6Pi6/x7dp3JI29dkX5y/q6kp2sauqZqalhcA3u8BiW91Bt/wDFcibcfs5cvpXxNi670rqaPCRaU0ViFhwMbUWex37GvtvXmu/Pfbfr5+xDU2oOzzU2n8XJkMtjkgqRqjXP71jtlVdk5Iu/UC55X/ZvxfddPTf5T28bv/Bp9eim4OyyarqnQeZ0NZsMguyOWzRc9eTncl2T2K33L6iDwHZLqe7nmU8ljpKVJj/5e1IqcHAi8+Fd/jb+GwE724/cnoPvP5/0JeL9CL+/c1FBDJYnjhgjdJNI5GsYxN1cq9ERDYHbhqOrndWR18Y9smPxsKVo3tXdr3IvxlT1dE+gvvZ1oO/pbTa6ihxjMnqSzGi06zntays1yfKVVXrt129ieKkEQxIOyHScySPjl1nlYtka3mlWNfP2frX1IaWcqucrnKquVd1VeqqbIyvZn2gZbIz3sjj3T253cT5HWI+a+/knqIDSdPGY7XUWO1nWRabJXV7LVkVqRP6I5XNVOSLtvz6FGTojIaKp0ZW6txN67bWbeN8EmzUZsnJU4k357l41lAuqdAus6HvQt05jV4p8QyDuZItufE5d1416rz/WpAat7JM9Tysr9P1PslipncdeSu9HKjFXki7r4J480UtGmsTL2Z6B1Fc1NLFDdykCwV6KPRzlXhcib+v4267dEQDRYDU2aieQAAAAAAAAAAAD61ytcjmqqORd0VF2VFMi/et5Gfv8hasWptuHvJ5HSO28t1VV25mMAJfH6mzmOrpXoZi/XgTpHHO5Gp7E35fQRtqxPbndNamknmdzdJI9XOX2qp1AAAAMuLJXoaMlKK7aZTkXd8DZXJG5fW3fZeie4xAAJajqTN0KfolLL369bwiinc1qexEXl9BiR5K/HVnrR3bTK067zRNmcjJF83N32X6TEAGVVyF2pBPDUuWYIZ04Zo4pXNbInPk5EXZeq9fMU8hdpRzR07lmuydvDK2GVzEkTyciLzTmvXzMUAfU5KipyVCVn1LnLFL0OfMZCSrtssTrDlaqeSpvzT1ESAMqTIXJaMdKW3ZfTiXeOB0rljYvmjd9k6qYoAHOKR8UjZInuZIxUc1zV2Vqp0VFO27ctX7Cz3rM9mdURFkmkV7lROnNeZjgDIo3bWPsJPQszVp06SQvVjvehl5TPZfLMazJ5O5bY3mjJpnOan0KuxGADsrzy1p2TVpZIZo14mSRuVrmr5oqc0U5W7M9yw+e3PLPO/m6SV6vc7w5qvNTpAAAAd1S1YpWGWKc8tedm/DJE9WObum3JU5pyONieWzO+axLJNNIvE+SRyuc5fNVXmqnWABlVMhdpwzxVLlmCKdOGVkUrmNkTyciLzTmvXzMUAfWOcxzXMVWuau6Ki7Ki+ZkX71vIWO/yFqxan2RveTyLI7ZOibqu+xjADKjyF2KjJSiuWWU5V4pIGyuSN68uat32XonuEOQuw0pqcNyzHUmXeSBkrkjev8AxNRdl6J1MUAZTMhdZQfRZcstpPdxOrpK5I3Ly5q3fZV5J7jHje6N7Xxucx7VRzXNXZUVOiopxAGReu2r86z37M9qdURFkmkV7tk6JuvMysXnstiWPZi8ncqMfzc2GZzUVfPZOW5GgDPZmcoyxPYZkrrZ7CcM0jZ3o6RPJy77qntMHp0PgAkLeZylym2pcyV2xVaqK2GWdz2IqdOSrsdOOyN3GT99jrdirNttxwyKxdvoMUASGUzWUyyt+ymRt20au7Ummc9E9iKuyGDHI+KRskT3Mkau7XNXZUXzRTiAJqxqvUFiqtafN5KSBU2VjrDlRU8l58yFAAEppjMTaf1BQytZN5asqScPzk6Kn0oqoRYAvHa5BRl1MmZxE8UtDLxtttax6K6N6onG1yJ0Xfn9JTalmenYZPUnlgnZzbJE9WuT2Kh0gCyT661TPXWCXP5FYlTZUSVUXb2pzK45yucrnKquVd1VV3VT4AOyCaWvMyWCR8UrF3a9jla5q+aKhJ3tS5y/W9Hu5jITwKmyxyWHK1fam/P6SIAHOKR8UjJInuZIxUc1zV2Vqp0VF8FOy7cs37DrF6zNZnciIss0ivcqJ05rzOgAZVXIXakE8NS5ZghnThljilc1sieTkRdl+kxmqrVRWqqKnNFTwPgAmZNU5+Sr6NJm8k6Dbh4Fsv2VPLr09RENc5r0c1yo5F3RUXmi+ZxAGTfvW8hP3+QtWLU2yN7yeRZHbeW6rvsdEb3xSNkjc5j2ru1zV2VF80U4gCVyOos1kqyV8hlr1mun/wAOWdzmr7U35/SYlzIXbzIWXblmw2FvDE2aVz0jTybuvJOSdPIxQBm47K5DGOc7G3rVRXfKWCZzOL27LzMWaWSeZ800j5JXuVznvVVc5V6qq+KnAATMeqdQR1UrR5vJNgRNkYll6IieXXoQ7lVzlc5VVyruqqvNT4AMvG5K9i5++xtyxUlVNlfDIrFVPJdup3Wc3lbV6O7ZyV2W5H/NzOncr2f1V33T6COAHbZsTWp3z2ppJ53ru+SRyuc5fNVXmp1AAdkE0teZkteR8UrF3a9jla5q+aKhJ39S5zIVvR72Yv2IOixyTuVq+1N+f0kQAOcUj4ZWSwvdHIxUc17F2Vqp0VFTop2Xbdm9YdYvWJrM7tkdJNIr3Lt03VeZ0ADKrZC7VrzQVblmCCdNpY45XNbIn/EiLsv0mKAAO6pasU7DLFOeWvOz5MkT1Y5vLbkqc05HSAOyxPLZnfNZlkmmkXifJI5XOcvmqrzU6wAMqvkLtarNWrXLMNaf+dijlc1kn9ZqLsv0mKAAAAEhh81k8LM6XE37NOR3JywvVvF7U6Kfcxmsnmpmy5a/ZuPb8lZnq7h9idEI4ACexusNRYyolWhmr0FdE2SNsqqjU8k36fQQIA77lqxdsvsXJ5bE713dJK5XOX2qp0AADJoX7mOmWbH27FWVU4VfBK6Nyp5bovQxgBM/bTqH+nst/wDWSf4jou53L3q7oLuVyFmByoqxzWXvau3Tkq7EaAOcUj4pGyRPcyRq7tc1dlRfNFJu7rDUd6ktS3m78tZU2WN0y7OTyXz+kgQAJdmps/GxrGZzKtY1ERrUuSIiInRE5kQAJn7adQ/09lv/AKyT/ERU80liZ81iR8ssiq573uVznL5qq9VOsAS+L1NnMVD3ONy96tD/ALuOZUansTohhZDIXMlYWfIWp7Uy/hzSK9fepigAAAAAAAAAAAAAAA5wRSTzRwwtV8sjkY1qdVVV2RDa0+gNKaXigi1zqOWLJysR61aUav7pF81RFX6dkA1MSmKwGUy1K7cx1OSxWpN47EjVREjTZV3XdfJF6Fu1xoKnjNOQaj0xlfsrhZX925XN2fE5em/08vBUNidllDS8Wh9SNoZi1NFPVb9kXOgVq1/iO34eXxvH3DY88gntX08BSuwM0vk7GRqui3kkmiWNWv3XkiKieG3vIEDOwuJvZvIxUcVWks2pPksYn61XwT1qWbXnZ5k9FUqNjKWakvpTlYjIVcqsVERV33RPM7sF2gTac0amKwFWOrk53vdayOyK9WqvxWt9ieK9PDzLR2sSPl7KNAySvc+R8KOc5y7q5VjbzVQIHTPZXf1BgqmUgzGJrx2Gq5Ip5FR7dlVOabeolE7EsqqoiZ/Bqq9ESV31Gplai9UQ2L2KacgyOoJc1k2tZicKz0qZ7k+Kr05tT6Nt/oTzAruudKW9HZluNvzwTzOibNxQ78Oyqqbc09RXUVF6LuWbUGp/s7rqTPZGv39d1lr/AEZy8liaqbM9yfrM7tV1NiNU5utbwWOWjDHAkb+JjWLI7fffZvLknICK0fpPLatyPomHrq9G/wA5M/lHEnm5f7up2a60nb0bmY8bfsQTyvhbMjod+HZVVNuadeRYbfaJZkxWI09p+BMVjYu5ZYdFyksP5caqqdEVd/b4+RJ/CU++BB+Ys/ecBxi7FsnLEyRM9g0R7Udssrt03T2HbH2H5eV6MizuEe9ejWyOVV+jY1Jwt+anuNudlNWHSmk8vru/E1ZWNWrjmOTbjevJXJ9PL2I4DWeoMZLhM1dxtmSN8tSRYnvZ8lVTxTcwC1aF1HTxOtI8zqCo7IxKr3SIqI53G78NEXkqou/JfM685ncdc17Jm6eMSLHeksnSnybxI3bdF25JxKiqvtAsWG7KL02JgyWoMrj8DVnTeJLb9nuRenLkiezfcwdadm2T01jGZWKzVyeIdt/nVV26N35JxJ5etNyN7RNWz6z1C7IyxvggRjY4a6v40jRE57dOq7qbA7K5ZK/ZFrOTJ7/YlWObCknRZFZsvD/1Kz6QNP4+lZyN6CnRhfPancjI42JurlU2czsefWSOHNaow2PyEiIrar5N3c/DmqfqKj2capi0fqH7Ky0PTnthdGxnHwcKu2+Nvsvhun0kDlb0+UyNm9ckdLPYkWR7nruq7qBN630ZltHXmV8qxjo5UVYbES7xyInkvgvqUrRurtAkmj7CNLQ5jdci+VjokkX46Ro122+/P5Kt/UaVAsGg8AzU+rKGHlndXZZV6LK1vEreFjndP+kwtT4xuG1FksYyVZW1LD4EkVNlcjV232LP2IffQwntl/gvLXqvSulqerMtb1rn5ali7blmhp1I1kc2NXrwueqIu2/XbyA00DYXaF2f1sDhaeewGT+yeDtORiSKiI5irvtvt1TkqeGymZpHszr6i0LHnPsmtSX0l0cyyoiRRRNVOJ6r13RPADWILtrHB6WrpjqujctYy+Qmm7mVHN2au6Jwq3l4r61LHkNCaO0p3NTWWorX2VkYj3QUoVckSL5rsv69twNTFsymk2R6Gx+psXZfZqyPWC5G5iI6vL5curV8/Whm680NFgcZSzeEyLcpgLi8Mc6N2cx3zXJ9C+5eRY+xRv2c03q/S8rkVtmsliFF8Hpy39/ABqMDpyXqAAAAAAAAAAAAAAAAAAAAAAAAAAAAAAAAAAAAAAAAAAAAAAAAAAAAAAAAAAAAAAAAAAAAAAAAAAAAAAAAAAAAAAAAAAAAAAAAAAAAAAAAAMrGUrGRyNalRYslqxI2ONqct3KuyGy8hoHS+npW19X6vczJ8KOkr1IFkVm6eKrv+tEKBpPL/YDUuNyvd96lSZsis324k8UT17KptLVmD0ZrDKy6irazq45tpGvnrWGbvY5ERF2TdFReXTmBIXK+Cr9g+fj0zdt3aSWWqslpiNcj+OPdERETltt7yH7GfuA1/wDmv/43mTktQaUj7HsxgsFba18czWwtndtNb+OxzpeHwReeyeSEH2M6kw+Miz2G1DYWrTysKRpYVPisXZUXfy5O336ciDWSdEBYta4XFYPIwwYTOQ5mu+LjdNEiJwLuqcK8+uyIv0ldKBuDtT+9H2ffkE/hNNPmz+0XN4y/2Z6Ko0r9ee5UhRtiFjt3RL3bU2cnhzA1kxrnvaxjVc9yoiNTqqr4G39fPboTs5xukKzkTJ5FPSsi5vkv4PvRE9jV8yr9kDMJFqtmS1JfrVKlBvfxsmdsssqfJRE8duv0IQGss/PqbUt7K2N0Wd/xGKvyGJya36EAiIYnzSsihY58j3I1rWpurlXoiIZ+ewWTwFtlXM0pac72JI1kiJzb5psYlC3NQvV7dV/BYgkbLG7bfZyLuik3rXV+U1jkILmYWHjhj7qNsLOFqJvuvLdeaqBC4/8A1jU/LM/eQ2f8JT74EH5iz95xq+i5rL1Z71RGtlYqqvgiOQ2D295jG5zWsNrD3YLtZKjGLJC7iajkc7l+tAKTpzD2c/nKWLpJvPZkRiL4NTxcvqRN1+gv/bfl68NvH6Sw68OMwsaMcifhTbc9/WifrVTj2T5XDaUw+a1Fcu1n5psSwUaSu/lF323dt5Ku30IprSxPLZsSz2HrJNK5XvevVzlXdVAycRi7uYvx0cXWktW5N+GONOa7dV9SHXkaNrG3pqd+B9e1C7hkiemytUz9Kahv6XzUWUxTo0sMarNpG8TXNXqioc7uRl1VqxLmctxwOuzsSedG7Nibybvt5IifqAlOznRdjV+Tfxv9FxNVOO3bdyaxvXZFXlxKnu6kp2m6zq5OCvp3TEfo2mqHxWNby79yfhr6vLfr1U2PnWaIuaTqacxOt6OKxcXOZsSo91hfN7l28ea+fLyKRPoTQrIZHR9odV72tVWt4G/GXbknUg1YbN7ONI0a2NdrDWX8lgqy8UEDk+Nbf4bJ4pv719W5W+zehgr+p4m6pvxU8ZE1ZXd67hSVyKmzN/Df+42tr2rpDWF6F8/aDSqUa7EZXpxNb3cSbbKvXmv93Io1Lr3VtzWGdfet/wAnAz4launSKPwT2+alaL/qzSelMVg5reH1lBlLrFajKrGNRXIq7KvJfBOZQAL12IffQwntl/gvIvtNlfN2hahdI5XOS7I3dfJF2RPciGV2R5Cniu0PE3clZiq1Ilk45ZV2a3eJ6JuvtVEIzXdqC7rTOWqcrJq01yV8cjF3a9quVUVPUBsGk5X/AAbrqPXdI8giN9Xx2r/ep9ikez4NMyMcrePI8LtvFO8byI2jmsYzsIvYl96BMm+6kjaqu/lFbxNXfby5KG5rGf5A34j06D7KLfST0Xi/lOHjRd9vIDXeNuS4/IVblfbvq8rZWb+bV3Q2/msn2fdolll/KXrmAzT2NZI5zeKJyp057Kip6+RqPD2a9PK1LF2q23Vjka6Wu5dkkbvzbv7DaGU0noTUdhMjp/VdPC15GoslK0xd41257bqi/tArmvdAXNLY+tka2QgymEsO4Y7MC8kVeabpuqc+fNFUnPg4K77ebSJ8haMnF7OJv95x11qHBYzQdTRmmbjsmxk3fWLqps1V3Vdm+1V8OiIZPYY5uHxWrdTTt/kqdPuWKvRz1+Nt70Z7wNWZFGpkbaR/ISZ/D7OJdjGOcfC6ZnfOVGK5ONU5qib81Lz2o0NH0VxX2mXFsq+JVsokivROnCqqvRy8909QFDAAAAAAAAAAAAAAAAAAAAAAAAAAAAAAAAAAAAAAAAAAAAAAAAAAAAAAAAAAAAAAAAAAAAAAAAAAAAAAAAAAAAAAAAAAAAAAAAAAAAAAAAAAAAAAAAAAAAAAAAAAAAAAAAAAAAAAAAAAAAAAAALpkdV1YuzylpjCxzsSSRbGRmkRE71/LZrdl+Smye5ClgAAAAAAAAAAAAAAAAAAAAAAAAAAAAAAAAAAAAAAAAAAAAAAAAAAAAAAAAAAAAAAAAAAAAAAAAAAAAAAAAAAAAAAAAAAAAAAAAAAAAAAAAAAAAAAAAAAAAAAAAAAAAAAAAAAAAAAAAAAAAAAAAAAAAAAAAAAAAAAAAAAAAAAAAAAAAAAAAAAAAAAAAAAAAAAAAAAAAAAAAAAAAAAAAAAAAAAAAAAAAAAAAAAAAAAAAAAAAAAAAAAAAAAAAAAAAAAAAAAAAAAAAAAAAAAAAAAAAAAAAAAAAAAAAAAAAAAAAAAAAAAAAAAAAAAAAAAAAAAAAAAAAAAAAAAAAAAAAAAAAAAAAAAAAAAAAAAAAAAAAAAAAAAAAAAAAAAAAAAAAAAAAAAAAAAAAAAAAAAAAAAAAAAAAAAAAAAAAAAAAAAAAAAAAAAAAAAAAAAAAAAAAAAAAAAAAAAAAAAAAAAAAAAAAAAAAAAAAAAAAAAAAAAAAAAAAAAAAAAAAAAAAAAAAAAAAAAAAAAAAAAAAAAAAAAAAAAAAAAAAAAAAAAAAAAAAAAAAAAAAAAAAAAAAAAAAAAAAAAAAAAAAAAAAAAAAAAAAAAAAAAAAAAAAAAAAAAAAAAAAAAAAAAAAAAAAAAAAAAAAAAAAAAAAAAAAAAAAAAAAAAAAAAAAAAAAAAAAAAAAAAAAAAAAAAAAAAAAAAAAAAAAAAAAAAAAAAAAAAAAAAAAAAAAAAAAAAAAAAAAAAAAAAAAAAAAAAAAAAAAAAAAAAAAAAAAAAAAAAAAAAAAAAAAAAAAAAAAAAAAAAAAAAAAAAAAAAAAAAAAAAAAAAAAAAAAAAAAAAAAAAAAAAAAAAAAAAAAAAAAAAAAAAAAAAAAAAAAAAAAAAAAAAAAAAAAAAAAAAAAAAAAAAAAAAAAAAAAAAAAAAAAAAAAAAAAAAAAAAAAAAAAAAAAAAAAAAAAAAAAAAAAAAAAAAAAAAAAAAAAAAAAAAAAAAAAAAAAAAAAAAAAAAAAAAAAAAAAAAAAAAAAAAAAAAAAAAAAAAAAAAAAAAAAAAAAAAAAAAAAAAAAAAAAAAAAAAAAAAAAAAAAAAAAAAAAAAAAAAAAAAAAAAAAAAAAAAAAAAAAAAAAAAAAAAAAAAAAAAAAAAAAAAAAAAAAAAAAAAAAAAAAAAAAAAAAAAAAAAAAAAAAAAAAAAAAAAAAAAAAAAAAAAAAAAAAAAAAAAAAAAAAAAAAAAAAAAAAAAAAAAAAAAAAAAAAAAAAAAAAAAAAAAAAAAAAAAAAAAAAAAAAAAAAAAAAAAAAAAAAAAAAAAAAAAAAAAAAAAAAAAAAAAAAAAAAAAAAAAAAAAAAAAAAAAAAAAAAAAAAAAAAAAAAAAAAAAAAAAAAAAAAAAAAAAAAAAAAAAAAAAAAAAAAAAAAAAAAAAAAAAAAAAAAAAAAAAAAAAAAAAAAAAAAAAAAAAAAAAAAAAAAAAAAAAAAAAAAAAAAAAAAAAAAAAAAAAAAAAAAAAAAAAAAAAAAAAAAAAAAAAAAAAAAAAAAAAAAAAAAAAAAAAAAAAAAAAAAAAAAAAAAAAAAAAAAAAAAAAAAAAAAAAAAAAAAAAAAAAAAAAAAAAAAAAAAAAAAAAAAAAAAAAAAAAAAAAAAAAAAAAAAAAAAAAAAAAAAAAAAAAAAAAAAAAAAAAAAAAAAAAAAAAAAAAAAAAAAAAAAAAAAAAAAAAAAAAAAAAAAAAAAAAAAAAAAAAAAAAAAAAAAAAAAAAAAAAAAAAAAAAAAAAAAAAAAAAAAAAAAAAAAAAAAAAAAAAAAAAAAAAAAAAAAAAAAAAAAAAAAAAAAAAAAAAAAAAAAAAAAAAAAAAAAAAAAAAAAAAAAAAAAAAAAAAAAAAAAAAAAAAAAAAAAAAAAAAAAAAAAAAAAAAAAAAAAAAAAAAAAAAAAAAAAAAAAAAAAAAAAAAAAAAAAAAAAAAAAAAAAAAAAAAAAAAAAAAAAAAAAAAAAAAAAAAAAAAAAAAAAAAAAAAAAAAAAAAAAAAAAAAAAAAAAAAAAAAAAAAAAAAAAAAAAAAAAAAAAAAAAAAAAAAAAAAAAAAAAAAAAAAAAAAAAAAAAAAAAAAAAAAAAAAAAAAAAAAAAAAAAAAAAAAAAAAAAAAAAAAAAAAAAAAAAAAAAAAAAAAAAAAAAAAAAAAAAAAAAAAAAAAAAAAAAAAAAAAAAAAAAAAAAAAAAAAAAAAAAAAAAAAAAAAAAAAAAAAAAAAAAAAAAAAAAAAAAAAAAAAAAAAAAAAAAAAAAAAAAAAAAAAAAAAAAAAAAAAAAAAAAAAAAAAAAAAAAAAAAAAAAAAAAAAAAAAAAAAAAAAAAAAAAAAAAAAAAAAAAAAAAAAAAAAAAAAAAAAAAAAAAAAAAAAAAAAAAAAAAAAAAAAAAAAAAAAAAAAAAAAAAAAAAAAAAAAAAAAAAAAAAAAAAAAAAAAAAAAAAAAAAAAAAAAAAAAAAAAAAAAAAAAAAAAAAAAAAAAAAAAAAAAAAAAAAAAAAAAAAAAAAAAAAAAAAAAAAAAAAAAAAAAAAAAAAAAAAAAAAAAAAAAAAAAAAAAAAAAAAAAAAAAAAAAAAAAAAAAAAAAAAAAAAAAAAAAAAAAAAAAAAAAAAAAAAAAAAAAAAAAAAAAAAAAAAAAAAAAAAAAAAAAAAAAAAAAAAAAAAAAAAAAAAAAAAAAAAAAAAAAAAAAAAAAAAAAAAAAAAAAAAAAAAAAAAAAAAAAAAAAAAAAAAAAAAAAAAAAAAAAAAAAAAAAAAAAAAAAAAAAAAAAAAAAAAAAAAAAAAAAAAAAAAAAAAAAAAAAAAAAAAAAAAAAAAAAAAAAAAAAAAAAAAAAAAAAAAAAAAAAAAAAAAAAAAAAAAAAAAAAAAAAAAAAAAAAAAAAAAAAAAAAAAAAAAAAAAAAAAAAAAAAAAAAAAAAAAAAAAAAAAAAAAAAAAAAAAAAAAAAAAAAAAAAAAAAAAAAAAAAAAAAAAAAAAAAAAAAAAAAAAAAAAAAAAAAAAAAAAAAAAAAAAAAAAAAAAAAAAAAAAAAAAAAAAAAAAAAAAAAAAAAAAAAAAAAAAAAAAAAAAAAAAAAAAAAAAAAAAAAAAAAAAAAAAAAAAAAAAAAAAAAAAAAAAAAAAAAAAAAAAAAAAAAAAAAAAAAAAAAAAAAAAAAAAAAAAAAAAAAAAAAAAAAAAAAAAAAAAAAAAAAAAAAAAAAAAAAAAAAAAAAAAAAAAAAAAAAAAAAAAAAAAAAAAAAAAAAAAAAAAAAAAAAAAAAAAAAAAAAAAAAAAAAAAAAAAAAAAAAAAAAAAAAAAAAAAAAAAAAAAAAAAAAAAAAAAAAAAAAAAAAAAAAAAAAAAAAAAAAAAAAAAAAAAAAAAAAAAAAAAAAAAAAAAAAAAAAAAAAAAAAAAAAAAAAAAAAAAAAAAAAAAAAAAAAAAAAAAAAAAAAAAAAAAAAAAAAAAAAAAAAAAAAAAAAAAAAAAAAAAAAAAAAAAAAAAAAAAAAAAAAAAAAAAAAAAAAAAAAAAAAAAAAAAAAAAAAAAAAAAAAAAAAAAAAAAAAAAAAAAAAAAAAAAAAAAAAAAAAAAAAAAAAAAAAAAAAAAAAAAAAAAAAAAAAAAAAAAAAAAAAAAAAAAAAAAAAAAAAAAAAAAAAAAAAAAAAAAAAAAAAAAAAAAAAAAAAAAAAAAAAAAAAAAAAAAAAAAAAAAAAAAAAAAAAAAAAAAAAAAAAAAAAAAAAAAAAAAAAAAAAAAAAAAAAAAAAAAAAAAAAAAAAAAAAAAAAAAAAAAAAAAAAAAAAAAAAAAAAAAAAAAAAAAAAAAAAAAAAAAAAAAAAAAAAAAAAAAAAAAAAAAAAAAAAAAAAAAAAAAAAAAAAAAAAAAAAAAAAAAAAAAAAAAAAAAAAAAAAAAAAAAAAAAAAAAAAAAAAAAAAAAAAAAAAAAAAAAAAAAAAAAAAAAAAAAAAAAAAAAAAAAAAAAAAAAAAAAAAAAAAAAAAAAAAAAAAAAAAAAAAAAAAAAAAAAAAAAAAAAAAAAAAAAAAAAAAAAAAAAAAAAAAAAAAAAAAAAAAAAAAAAAAAAAAAAAAAAAAAAAAAAAAAAAAAAAAAAAAAAAAAAAAAAAAAAAAAAAAAAAAAAAAAAAAAAAAAAAAAAAAAAAAAAAAAAAAAAAAAAAAAAAAAAAAAAAAAAAAAAAAAAAAAAAAAAAAAAAAAAAAAAAAAAAAAAAAAAAAAAAAAAAAAAAAAAAAAAAAAAAAAAAAAAAAAAAAAAAAAAAAAAAAAAAAAAAAAAAAAAAAAAAAAAAAAAAAAAAAAAAAAAAAAAAAAAAAAAAAAAAAAAAAAAAAAAAAAAAAAAAAAAAAAAAAAAAAAAAAAAAAAAAAAAAAAAAAAAAAAAAAAAAAAAAAAAAAAAAAAAAAAAAAAAAAAAAAAAAAAAAAAAAAAAAAAAAAAAAAAAAAAAAAAAAAAAAAAAAAAAAAAAAAAAAAAAAAAAAAAAAAAAAAAAAAAAAAAAAAAAAAAAAAAAAAAAAAAAAAAAAAAAAAAAAAAAAAAAAAAAAAAAAAAAAAAAAAAAAAAAAAAAAAAAAAAAAAAAAAAAAAAAAAAAAAAAAAAAAAAAAAAAAAAAAAAAAAAAAAAAAAAAAAAAAAAAAAAAAAAAAAAAAAAAAAAAAAAAAAAAAAAAAAAAAAAAAAAAAAAAAAAAAAAAAAAAAAAAAAAAAAAAAAAAAAAAAAAAAAAAAAAAAAAAAAAAAAAAAAAAAAAAAAAAAAAAAAAAAAAAAAAAAAAAAAAAAAAAAAAAAAAAAAAAAAAAAAAAAAAAAAAAAAAAAAAAAAAAAAAAAAAAAAAAAAAAAAAAAAAAAAAAAAAAAAAAAAAAAAAAAAAAAAAAAAAAAAAAAAAAAAAAAAAAAAAAAAAAAAAAAAAAAAAAAAAAAAAAAAAAAAAAAAAAAAAAAAAAAAAAAAAAAAAAAAAAAAAAAAAAAAAAAAAAAAAAAAAAAAAAAAAAAAAAAAAAAAAAAAAAAAAAAAAAAAAAAAAAAAAAAAAAAAAAAAAAAAAAAAAAAAAAAAAAAAAAAAAAAAAAAAAAAAAAAAAAAAAAAAAAAAAAAAAAAAAAAAAAAAAAAAAAAAAAAAAAAAAAAAAAAAAAAAAAAAAAAAAAAAAAAAAAAAAAAAAAAAAAAAAAAAAAAAAAAAAAAAAAAAAAAAAAAAAAAAAAAAAAAAAAAAAAAAAAAAAAAAAAAAAAAAAAAAAAAAAAAAAAAAAAAAAAAAAAAAAAAAAAAAAAAAAAAAAAAAAAAAAAAAAAAAAAAAAAAAAAAAAAAAAAAAAAAAAAAAAAAAAAAAAAAAAAAAAAAAAAAAAAAAAAAAAAAAAAAAAAAAAAAAAAAAAAAAAAAAAAAAAAAAAAAAAAAAAAAAAAAAAAAAAAAAAAAAAAAAAAAAAAAAAAAAAAAAAAAAAAAAAAAAAAAAAAAAAAAAAAAAAAAAAAAAAAAAAAAAAAAAAAAAAAAAAAAAAAAAAAAAAAAAAAAAAAAAAAAAAAAAAAAAAAAAAAAAAAAAAAAAAAAAAAAAAAAAAAAAAAAAAAAAAAAAAAAAAAAAAAAAAAAAAAAAAAAAAAAAAAAAAAAAAAAAAAAAAAAAAAAAAAAAAAAAAAAAAP/Z;" vertex="1" parent="1">
          <mxGeometry x="50" y="80" width="206.04" height="370" as="geometry" />
        </mxCell>
      </root>
    </mxGraphModel>
  </diagram>
</mxfile>
